{"glyphs":{"0":{"ha":780,"x_min":84,"x_max":696,"o":"m 193 725 l 193 300 q 197 258 193 278 l 506 883 q 390 921 455 921 q 250 864 308 921 q 193 725 193 806 m 696 723 l 696 302 q 606 89 696 177 q 390 0 517 0 q 174 88 262 0 q 84 302 84 177 l 84 723 q 174 936 84 848 q 390 1025 263 1025 q 606 936 517 1025 q 696 723 696 848 m 578 785 l 264 149 q 390 104 317 104 q 529 161 471 104 q 587 300 587 218 l 587 725 q 578 785 587 757 z "},"1":{"ha":780,"x_min":117,"x_max":449,"o":"m 340 829 l 180 677 l 117 763 l 340 977 l 449 1025 l 449 47 l 340 0 l 340 829 z "},"2":{"ha":780,"x_min":75,"x_max":705,"o":"m 692 707 q 591 508 692 587 q 403 358 409 366 q 247 134 293 246 l 241 122 l 705 122 l 657 14 l 75 14 l 127 146 q 409 503 230 374 q 528 589 498 568 q 584 714 584 629 q 584 724 584 719 q 526 863 582 807 q 387 921 469 921 q 248 863 306 921 q 189 728 189 806 q 189 725 189 727 l 190 718 l 81 671 l 81 723 q 170 936 81 845 q 387 1025 258 1025 q 603 937 515 1025 q 692 707 692 849 z "},"3":{"ha":780,"x_min":85,"x_max":695,"o":"m 370 505 q 311 491 350 505 l 254 541 l 474 903 l 109 903 l 157 1011 l 664 1011 l 431 608 q 606 519 530 593 q 695 307 695 433 l 695 304 q 607 88 695 176 q 391 0 518 0 q 174 88 262 0 q 85 302 85 179 l 85 311 l 193 358 l 193 300 q 252 161 193 218 q 391 104 310 104 q 530 161 473 104 q 588 300 588 220 q 532 438 588 385 q 393 504 473 494 q 370 505 382 505 z "},"4":{"ha":780,"x_min":56,"x_max":724,"o":"m 514 250 l 56 250 l 104 359 l 514 977 l 623 1025 l 623 359 l 724 359 l 676 250 l 623 250 l 623 47 l 514 0 l 514 250 m 514 359 l 514 794 l 225 359 l 514 359 z "},"5":{"ha":780,"x_min":85,"x_max":695,"o":"m 366 505 q 274 486 323 505 l 219 460 l 138 531 l 228 1011 l 664 1011 l 607 903 l 318 903 l 259 591 q 372 608 315 608 q 402 606 388 608 q 616 516 541 593 q 695 307 695 436 l 695 304 q 607 88 695 176 q 391 0 518 0 q 174 88 262 0 q 85 302 85 179 l 85 311 l 193 358 l 193 300 q 252 161 193 218 q 391 104 310 104 q 530 161 473 104 q 588 300 588 220 q 531 446 588 397 q 393 504 474 496 q 366 505 380 505 z "},"6":{"ha":780,"x_min":84,"x_max":696,"o":"m 390 921 q 250 864 308 921 q 193 725 193 806 l 193 530 q 390 602 279 602 q 606 513 518 602 q 696 300 696 427 q 606 88 695 180 q 390 0 522 0 q 174 88 262 0 q 84 302 84 176 l 84 723 q 176 936 84 847 q 390 1025 269 1025 q 606 937 519 1025 q 696 723 696 846 l 696 714 l 587 667 l 587 725 q 529 863 587 806 q 390 921 471 921 m 587 301 l 587 302 q 529 441 587 383 q 390 498 471 498 q 250 441 312 498 q 193 302 193 388 l 193 300 q 250 161 193 219 q 390 104 308 104 q 529 161 469 104 q 587 301 587 218 z "},"7":{"ha":780,"x_min":71,"x_max":709,"o":"m 229 47 l 84 0 l 536 903 l 71 903 l 119 1011 l 709 1011 l 229 47 z "},"8":{"ha":780,"x_min":85,"x_max":695,"o":"m 695 311 l 695 302 l 695 300 q 607 88 695 170 q 391 0 511 0 q 169 94 264 0 q 85 310 94 170 l 85 311 q 174 519 86 436 q 224 559 198 542 q 191 587 207 572 q 115 769 115 663 q 190 950 115 876 q 390 1025 266 1025 q 583 957 510 1025 l 590 950 q 646 868 628 912 q 665 770 665 823 q 589 587 663 662 q 555 559 573 572 q 606 519 582 542 q 695 311 694 434 m 588 309 q 532 438 585 388 q 390 505 468 498 q 248 438 312 498 q 193 302 193 387 l 193 300 q 250 161 193 218 q 391 104 308 104 q 530 161 471 104 q 588 297 587 218 q 588 300 588 299 l 588 309 m 268 873 q 224 769 224 829 q 268 665 224 709 q 391 616 308 625 q 512 665 471 625 q 555 769 555 709 q 513 872 555 828 q 395 917 473 913 q 268 873 313 917 z "},"9":{"ha":780,"x_min":84,"x_max":696,"o":"m 390 104 q 530 161 472 104 q 587 300 587 218 l 587 494 q 390 422 501 422 q 174 511 262 422 q 84 724 84 597 q 174 937 85 845 q 390 1025 258 1025 q 606 937 517 1025 q 696 723 696 848 l 696 302 q 604 89 696 178 q 390 0 511 0 q 174 88 261 0 q 84 302 84 179 l 84 311 l 193 358 l 193 300 q 251 161 193 218 q 390 104 309 104 m 193 724 l 193 722 q 251 584 193 642 q 390 526 309 526 q 530 584 468 526 q 587 722 587 637 l 587 725 q 530 863 587 806 q 390 921 472 921 q 251 863 311 921 q 193 724 193 806 z "}," ":{"ha":780,"x_min":0,"x_max":0,"o":""},"!":{"ha":780,"x_min":302,"x_max":478,"o":"m 336 977 l 444 1025 l 444 285 l 336 237 l 336 977 m 328 26 q 315 39 328 26 q 302 90 302 52 q 328 153 302 127 q 390 179 353 179 q 452 153 427 179 q 478 90 478 127 q 452 26 478 52 q 390 0 427 0 q 328 26 353 0 z "},"\"":{"ha":780,"x_min":231,"x_max":549,"o":"m 342 701 l 231 653 l 233 979 l 342 1026 l 342 701 m 549 699 l 438 652 l 439 977 l 549 1025 l 549 699 z "},"#":{"ha":780,"x_min":39,"x_max":741,"o":"m 336 208 l 227 161 l 227 349 l 39 349 l 86 458 l 227 458 l 227 566 l 39 566 l 86 675 l 227 675 l 227 816 l 336 863 l 336 675 l 444 675 l 444 816 l 553 863 l 553 675 l 741 675 l 694 566 l 553 566 l 553 458 l 741 458 l 694 349 l 553 349 l 553 208 l 444 161 l 444 349 l 336 349 l 336 208 m 336 458 l 444 458 l 444 566 l 336 566 l 336 458 z "},"$":{"ha":780,"x_min":85,"x_max":695,"o":"m 336 1215 l 444 1262 l 444 1015 q 551 950 505 998 q 627 770 627 874 l 627 763 l 518 714 l 518 768 q 475 872 517 831 q 444 896 460 886 l 444 606 q 606 519 540 583 q 695 307 695 433 l 695 304 q 607 88 695 176 q 444 4 537 19 l 444 -190 l 336 -237 l 336 4 q 174 88 242 20 q 85 302 85 179 l 85 311 l 193 358 l 193 300 q 252 161 193 218 q 336 111 289 124 l 336 512 q 191 587 248 531 q 115 769 115 663 q 190 950 115 876 q 336 1023 252 1013 l 336 1215 m 336 627 l 336 911 q 268 873 297 903 q 224 769 224 829 q 268 665 224 709 q 336 627 294 640 m 444 493 l 444 111 q 530 161 492 123 q 588 300 588 220 q 532 438 588 385 q 444 493 491 477 z "},"%":{"ha":780,"x_min":34,"x_max":746,"o":"m 555 359 q 557 359 555 359 q 687 307 629 359 q 746 180 746 254 q 690 53 746 106 q 557 0 635 0 q 423 53 479 0 q 368 180 368 106 q 423 307 368 254 q 555 359 478 359 m 648 183 q 621 244 648 217 q 557 271 594 271 l 554 271 q 490 244 519 271 q 465 176 465 219 q 490 121 465 146 q 555 95 518 95 q 621 121 593 95 q 648 183 648 146 m 222 1025 l 224 1025 q 353 972 296 1025 q 412 846 412 920 q 357 719 412 772 q 223 666 301 666 q 90 719 145 666 q 34 846 34 772 q 90 972 34 920 q 222 1025 144 1025 m 314 849 q 287 910 314 883 q 223 937 260 937 l 220 937 q 157 910 185 937 q 131 842 131 885 q 157 787 131 812 q 222 761 184 761 q 287 787 260 761 q 314 849 314 812 m 684 807 l 746 718 l 96 241 l 34 330 l 684 807 z "},"&":{"ha":780,"x_min":0,"x_max":780,"o":"m 184 767 q 225 661 184 706 q 328 625 258 625 l 368 625 l 534 378 l 684 601 l 780 553 l 593 286 l 762 47 l 663 0 l 528 196 l 408 14 l 302 14 q 90 103 178 14 q 0 319 1 192 q 88 536 1 449 q 153 586 119 566 l 148 590 q 76 770 76 665 q 149 937 76 863 q 330 1011 224 1011 l 500 1011 l 454 903 l 332 903 q 228 859 273 901 q 184 767 184 819 m 104 315 q 161 180 104 237 q 300 122 219 123 l 354 121 l 472 286 l 313 517 l 300 517 q 162 457 220 517 q 104 315 104 397 z "},"'":{"ha":780,"x_min":335,"x_max":445,"o":"m 445 699 l 335 652 l 336 977 l 445 1025 l 445 699 z "},"(":{"ha":780,"x_min":285,"x_max":614,"o":"m 551 1262 q 614 1168 551 1262 q 577 1136 595 1156 q 490 994 526 1083 q 431 781 453 904 q 409 517 409 661 q 431 243 409 367 q 490 31 453 120 q 577 -112 526 -59 q 612 -142 595 -130 l 551 -237 q 467 -162 507 -212 q 334 117 382 -59 q 285 521 285 294 q 334 907 285 730 q 467 1186 382 1083 q 551 1262 507 1236 z "},")":{"ha":780,"x_min":165,"x_max":495,"o":"m 229 1262 q 313 1186 273 1236 q 446 907 397 1083 q 495 521 495 730 q 446 117 495 294 q 313 -162 397 -59 q 229 -237 273 -212 l 168 -142 q 203 -112 185 -130 q 290 31 254 -59 q 349 243 327 120 q 371 517 371 367 q 349 781 371 661 q 290 994 327 904 q 203 1136 254 1083 q 165 1168 184 1156 l 229 1262 z "},"*":{"ha":780,"x_min":106,"x_max":673,"o":"m 444 481 l 336 433 l 336 635 l 202 558 l 106 628 l 281 729 l 106 830 l 202 900 l 336 823 l 336 977 l 444 1025 l 444 823 l 578 900 l 673 830 l 498 729 l 673 628 l 578 558 l 444 635 l 444 481 z "},"+":{"ha":780,"x_min":94,"x_max":686,"o":"m 444 264 l 336 216 l 336 458 l 94 458 l 142 566 l 336 566 l 336 760 l 444 808 l 444 566 l 686 566 l 638 458 l 444 458 l 444 264 z "},",":{"ha":780,"x_min":265,"x_max":477,"o":"m 355 3 q 315 26 332 8 q 289 90 289 52 q 315 153 289 127 q 377 179 340 179 q 439 155 410 179 q 475 85 469 131 q 477 55 477 70 q 450 -52 477 1 q 327 -164 401 -149 q 288 -168 307 -168 q 265 -167 277 -168 q 292 -93 279 -127 q 340 -59 320 -90 q 355 -12 355 -36 q 355 3 355 -4 z "},"-":{"ha":780,"x_min":94,"x_max":686,"o":"m 142 566 l 686 566 l 638 458 l 94 458 l 142 566 z "},".":{"ha":780,"x_min":302,"x_max":478,"o":"m 328 26 q 315 39 328 26 q 302 90 302 52 q 328 153 302 127 q 390 179 353 179 q 452 153 427 179 q 478 90 478 127 q 452 26 478 52 q 390 0 427 0 q 328 26 353 0 z "},"/":{"ha":780,"x_min":34,"x_max":746,"o":"m 648 1262 l 746 1216 l 132 -237 l 34 -191 l 648 1262 z "},":":{"ha":780,"x_min":302,"x_max":478,"o":"m 328 26 q 315 39 328 26 q 302 90 302 52 q 328 153 302 127 q 390 179 353 179 q 452 153 427 179 q 478 90 478 127 q 452 26 478 52 q 390 0 427 0 q 328 26 353 0 m 328 447 q 315 460 328 447 q 302 510 302 473 q 328 573 302 547 q 390 600 353 600 q 452 573 427 600 q 478 510 478 547 q 452 447 478 473 q 390 420 427 420 q 328 447 353 420 z "},";":{"ha":780,"x_min":265,"x_max":478,"o":"m 355 3 q 315 26 332 8 q 289 90 289 52 q 315 153 289 127 q 377 179 340 179 q 439 155 410 179 q 475 85 469 131 q 477 55 477 70 q 450 -52 477 1 q 327 -164 401 -149 q 288 -168 307 -168 q 265 -167 277 -168 q 292 -93 279 -127 q 340 -59 320 -90 q 355 -12 355 -36 q 355 3 355 -4 m 328 447 q 315 460 328 447 q 302 510 302 473 q 328 573 302 547 q 390 600 353 600 q 452 573 427 600 q 478 510 478 547 q 452 447 478 473 q 390 420 427 420 q 328 447 353 420 z "},"<":{"ha":780,"x_min":97,"x_max":683,"o":"m 261 506 l 683 326 l 635 218 l 97 458 l 144 566 l 638 796 l 683 696 l 261 506 z "},"=":{"ha":780,"x_min":94,"x_max":686,"o":"m 142 675 l 686 675 l 638 566 l 94 566 l 142 675 m 142 458 l 686 458 l 638 349 l 94 349 l 142 458 z "},">":{"ha":780,"x_min":97,"x_max":683,"o":"m 519 508 l 97 688 l 144 796 l 683 556 l 635 448 l 142 218 l 97 318 l 519 508 z "},"?":{"ha":780,"x_min":85,"x_max":695,"o":"m 588 724 q 530 863 588 804 q 391 921 473 921 q 252 863 311 921 q 193 730 193 806 q 193 725 193 728 l 193 718 l 85 671 l 85 723 q 174 936 85 846 q 391 1025 262 1025 q 607 937 518 1025 q 695 720 695 849 l 695 719 q 595 508 695 593 q 431 409 587 496 q 384 354 391 388 q 384 317 381 346 l 275 270 q 277 366 275 275 q 428 525 279 444 q 531 589 499 564 q 588 724 588 635 m 269 26 q 256 39 269 26 q 243 90 243 52 q 269 153 243 127 q 332 179 295 179 q 394 153 368 179 q 420 90 420 127 q 394 26 420 52 q 332 0 368 0 q 269 26 295 0 z "},"@":{"ha":780,"x_min":109,"x_max":671,"o":"m 417 -4 q 314 49 353 -4 q 256 259 256 128 l 256 323 l 562 498 l 562 503 q 519 611 562 564 q 416 658 475 658 q 276 601 333 658 q 218 462 218 543 l 218 37 q 276 -102 218 -44 q 416 -159 333 -159 q 497 -142 459 -159 q 534 -233 497 -142 q 416 -263 475 -263 q 199 -175 288 -263 q 109 39 109 -86 l 109 460 q 199 673 109 584 q 408 762 288 762 q 416 762 412 762 q 596 685 518 762 q 671 505 671 612 l 671 47 l 562 0 l 562 372 l 366 259 q 393 130 371 169 q 431 102 408 102 q 455 110 442 102 q 490 130 488 129 l 531 28 q 455 0 492 7 q 417 -4 435 -4 z "},"A":{"ha":780,"x_min":84,"x_max":696,"o":"m 84 0 l 84 723 q 174 936 84 848 q 390 1025 263 1025 q 606 936 517 1025 q 696 723 696 848 l 696 47 l 587 0 l 587 458 l 193 458 l 193 47 l 84 0 m 193 566 l 587 566 l 587 725 q 529 863 587 806 q 390 921 471 921 q 250 863 309 921 q 193 727 193 806 l 193 725 l 193 566 z "},"B":{"ha":780,"x_min":85,"x_max":694,"o":"m 85 14 l 85 964 l 194 1011 l 365 1011 q 545 937 471 1011 q 619 770 619 863 q 547 590 619 664 l 543 586 q 606 536 576 566 q 694 319 694 447 q 606 103 694 193 q 393 14 518 14 l 85 14 m 194 122 l 395 122 q 533 180 475 122 q 591 319 591 239 q 533 459 591 401 q 395 517 475 517 l 368 517 l 194 517 l 194 122 m 366 625 q 469 661 435 626 q 511 764 511 705 q 511 771 511 767 q 467 859 511 820 q 363 903 422 901 l 194 903 l 194 625 l 366 625 z "},"C":{"ha":780,"x_min":84,"x_max":696,"o":"m 696 358 l 696 302 q 606 89 696 177 q 390 0 517 0 q 174 88 262 0 q 84 302 84 177 l 84 723 q 174 936 84 848 q 390 1025 263 1025 q 606 936 518 1025 q 696 723 696 846 l 696 717 l 587 667 l 587 725 q 529 863 587 806 q 390 921 471 921 q 250 864 308 921 q 193 725 193 806 l 193 300 q 250 161 193 219 q 390 104 308 104 q 529 161 471 104 q 587 300 587 218 l 587 308 l 696 358 z "},"D":{"ha":780,"x_min":83,"x_max":696,"o":"m 192 907 l 192 117 l 390 117 l 391 117 q 530 175 471 117 q 588 313 588 232 l 588 712 q 530 850 588 793 q 391 908 471 908 l 390 908 l 192 907 m 390 14 l 83 14 l 83 964 l 192 1012 l 390 1012 l 391 1012 q 607 923 517 1012 q 696 710 696 835 l 696 315 q 607 102 696 191 q 391 14 517 14 l 390 14 z "},"E":{"ha":780,"x_min":138,"x_max":730,"o":"m 247 458 l 247 122 l 730 122 l 682 14 l 138 14 l 138 964 l 247 1012 l 642 1011 l 594 903 l 247 903 l 247 566 l 642 566 l 594 458 l 247 458 z "},"F":{"ha":780,"x_min":138,"x_max":642,"o":"m 138 0 l 138 964 l 247 1012 l 642 1011 l 594 903 l 247 903 l 247 566 l 642 566 l 594 458 l 247 458 l 247 47 l 138 0 z "},"G":{"ha":780,"x_min":84,"x_max":696,"o":"m 696 566 l 696 302 q 606 89 696 177 q 390 0 517 0 q 174 88 262 0 q 84 302 84 177 l 84 723 q 174 936 84 848 q 390 1025 263 1025 q 606 936 518 1025 q 696 723 696 846 l 696 717 l 587 667 l 587 725 q 529 863 587 806 q 390 921 471 921 q 250 864 308 921 q 193 725 193 806 l 193 300 q 250 161 193 219 q 390 104 308 104 q 529 161 468 104 q 587 300 587 217 l 587 458 l 386 458 l 433 566 l 696 566 z "},"H":{"ha":780,"x_min":84,"x_max":696,"o":"m 84 0 l 84 977 l 193 1025 l 193 566 l 587 566 l 587 977 l 696 1025 l 696 47 l 587 0 l 587 458 l 193 458 l 193 47 l 84 0 z "},"I":{"ha":780,"x_min":94,"x_max":686,"o":"m 142 1011 l 686 1011 l 638 903 l 444 903 l 444 122 l 686 122 l 638 14 l 94 14 l 142 122 l 336 122 l 336 903 l 94 903 l 142 1011 z "},"J":{"ha":780,"x_min":84,"x_max":696,"o":"m 587 903 l 184 903 l 231 1011 l 696 1011 l 696 302 q 606 89 696 177 q 390 0 517 0 q 174 88 262 0 q 84 302 84 178 l 84 308 l 193 357 l 193 300 q 251 161 193 219 q 390 104 309 104 q 530 161 472 104 q 587 300 587 218 l 587 903 z "},"K":{"ha":780,"x_min":84,"x_max":696,"o":"m 84 0 l 84 977 l 193 1025 l 193 500 l 568 1025 l 669 977 l 376 566 l 390 566 q 606 477 517 566 q 696 264 696 389 l 696 47 l 587 0 l 587 267 q 529 405 587 348 q 390 463 471 463 q 250 405 309 463 q 193 269 193 348 l 193 267 l 193 47 l 84 0 z "},"L":{"ha":780,"x_min":94,"x_max":686,"o":"m 94 977 l 203 1025 l 203 122 l 686 122 l 638 14 l 94 14 l 94 977 z "},"M":{"ha":780,"x_min":75,"x_max":705,"o":"m 75 0 l 75 840 q 129 970 75 916 q 260 1025 183 1025 q 391 972 339 1025 q 521 1025 445 1025 q 653 972 602 1025 q 705 840 705 918 l 705 47 l 597 0 l 597 837 q 575 895 597 871 q 522 918 553 918 q 468 895 490 918 q 445 838 445 870 l 445 837 l 444 47 l 336 0 l 336 837 q 314 895 336 871 q 261 918 292 918 q 207 895 230 918 q 184 837 184 871 l 183 47 l 75 0 z "},"N":{"ha":780,"x_min":84,"x_max":696,"o":"m 84 0 l 84 723 q 174 936 84 848 q 390 1025 263 1025 q 606 936 517 1025 q 696 723 696 848 l 696 47 l 587 0 l 587 725 q 529 863 587 806 q 390 921 471 921 q 250 863 309 921 q 193 727 193 806 q 193 725 193 726 l 193 47 l 84 0 z "},"O":{"ha":780,"x_min":84,"x_max":696,"o":"m 696 723 q 696 302 696 723 q 606 89 696 177 q 390 0 517 0 q 174 88 262 0 q 84 302 84 177 l 84 723 q 174 936 84 848 q 390 1025 263 1025 q 606 936 517 1025 q 696 723 696 848 m 193 725 l 193 300 q 250 161 193 219 q 390 104 308 104 q 529 161 471 104 q 587 300 587 218 l 587 725 q 529 863 587 806 q 390 921 471 921 q 250 864 308 921 q 193 725 193 806 z "},"P":{"ha":780,"x_min":85,"x_max":694,"o":"m 194 903 l 194 508 l 395 508 q 533 566 475 508 q 591 705 591 623 q 533 844 591 786 q 395 903 475 903 l 194 903 m 85 0 l 85 977 l 194 1011 l 393 1011 q 606 922 518 1011 q 694 705 694 831 q 606 489 694 578 q 393 399 517 399 l 194 399 l 194 47 l 85 0 z "},"Q":{"ha":780,"x_min":62,"x_max":718,"o":"m 170 725 l 170 300 q 228 161 170 219 q 368 104 286 104 q 410 108 390 104 l 319 203 l 429 247 l 509 163 q 565 300 564 220 l 565 725 q 507 863 564 806 q 368 921 448 921 q 228 864 286 921 q 170 725 170 806 m 673 723 l 673 302 q 584 88 673 177 l 583 87 l 718 -54 l 608 -98 l 490 24 q 368 0 434 0 q 151 88 240 0 q 62 302 62 177 l 62 723 q 151 936 62 848 q 368 1025 241 1025 q 584 936 494 1025 q 673 723 673 848 z "},"R":{"ha":780,"x_min":81,"x_max":699,"o":"m 81 0 l 81 977 l 190 1011 l 389 1011 q 602 922 514 1011 q 690 705 690 831 q 602 489 690 578 q 513 425 562 448 l 699 47 l 589 0 l 403 399 q 389 399 396 399 l 190 399 l 190 47 l 81 0 m 190 903 l 190 508 l 391 508 q 529 566 471 508 q 587 705 587 623 q 529 844 587 786 q 391 903 471 903 l 190 903 z "},"S":{"ha":780,"x_min":85,"x_max":695,"o":"m 389 616 q 606 519 522 601 q 695 307 695 433 l 695 304 q 607 88 695 176 q 391 0 518 0 q 174 88 262 0 q 85 302 85 179 l 85 311 l 193 358 l 193 300 q 252 161 193 218 q 391 104 310 104 q 530 161 473 104 q 588 300 588 220 q 532 438 588 385 q 393 504 469 498 q 191 587 264 514 q 115 769 115 663 q 190 950 115 876 q 370 1025 264 1025 q 551 950 477 1025 q 627 770 627 874 l 627 763 l 518 714 l 518 768 q 475 872 517 831 q 370 916 431 916 q 268 873 310 916 q 224 769 224 829 q 268 665 224 709 q 389 616 309 625 z "},"T":{"ha":780,"x_min":31,"x_max":749,"o":"m 336 0 l 336 903 l 31 903 l 78 1011 l 749 1011 l 702 903 l 444 903 l 444 47 l 336 0 z "},"U":{"ha":780,"x_min":84,"x_max":696,"o":"m 84 302 l 84 977 l 193 1025 l 193 300 q 251 161 193 218 q 390 104 309 104 q 530 161 471 104 q 587 298 587 218 q 587 300 587 299 l 587 977 l 696 1025 l 696 302 q 606 89 696 177 q 390 0 517 0 q 174 89 263 0 q 84 302 84 177 z "},"V":{"ha":780,"x_min":32,"x_max":748,"o":"m 334 0 l 32 977 l 131 1025 l 390 186 l 650 1025 l 748 977 l 456 47 l 334 0 z "},"W":{"ha":780,"x_min":75,"x_max":705,"o":"m 75 185 l 75 977 l 183 1025 l 182 188 q 205 130 182 154 q 258 106 227 106 q 312 130 290 106 q 335 187 335 155 q 335 188 335 187 l 336 977 l 444 1025 l 444 188 q 466 130 444 154 q 519 106 488 106 q 573 130 550 106 q 596 188 596 154 l 597 977 l 705 1025 l 705 184 q 651 54 705 109 q 520 0 597 0 q 389 53 441 0 q 259 0 335 0 q 127 53 178 0 q 75 185 75 106 z "},"X":{"ha":780,"x_min":56,"x_max":724,"o":"m 56 977 l 153 1025 l 390 618 l 627 1025 l 724 977 l 452 511 l 724 47 l 625 0 l 390 404 l 155 0 l 56 47 l 328 511 l 56 977 z "},"Y":{"ha":780,"x_min":84,"x_max":696,"o":"m 336 0 l 336 311 q 174 395 243 326 q 84 608 84 484 l 84 977 l 193 1025 l 193 606 q 251 468 193 525 q 390 410 309 410 q 530 468 471 410 q 587 604 587 525 l 587 606 l 587 977 l 696 1025 l 696 608 q 606 395 696 484 q 444 311 536 326 l 444 47 l 336 0 z "},"Z":{"ha":780,"x_min":71,"x_max":709,"o":"m 515 903 l 98 903 l 146 1011 l 690 1011 l 244 122 l 709 122 l 661 14 l 71 14 l 515 903 z "},"[":{"ha":780,"x_min":298,"x_max":666,"o":"m 298 1154 l 298 1215 l 407 1262 l 666 1262 l 618 1154 l 407 1154 l 407 -129 l 666 -129 l 618 -237 l 298 -237 l 298 1154 z "},"\\":{"ha":780,"x_min":34,"x_max":746,"o":"m 132 1262 l 746 -191 l 648 -237 l 34 1216 l 132 1262 z "},"]":{"ha":780,"x_min":114,"x_max":481,"o":"m 481 -129 l 481 -190 l 373 -237 l 114 -237 l 161 -129 l 373 -129 l 373 1154 l 114 1154 l 161 1262 l 481 1262 l 481 -129 z "},"^":{"ha":780,"x_min":119,"x_max":661,"o":"m 385 1025 l 661 829 l 614 733 l 386 897 l 166 732 l 119 831 l 385 1025 z "},"_":{"ha":780,"x_min":94,"x_max":686,"o":"m 142 109 l 686 109 l 638 0 l 94 0 l 142 109 z "},"`":{"ha":780,"x_min":254,"x_max":526,"o":"m 526 793 l 483 683 l 254 914 l 297 1025 l 526 793 z "},"a":{"ha":780,"x_min":132,"x_max":646,"o":"m 243 199 q 261 153 243 177 q 365 110 294 110 q 441 130 408 110 l 482 28 q 365 0 429 0 q 184 75 263 0 q 132 199 132 129 q 132 205 132 202 q 261 385 132 332 l 537 498 q 494 606 537 562 q 387 650 452 650 q 286 607 330 650 q 243 503 244 566 l 243 493 l 134 445 l 134 505 q 216 686 134 600 q 391 760 285 760 q 571 685 496 760 q 646 505 646 610 l 646 47 l 537 0 l 537 379 l 314 288 q 243 199 243 255 z "},"b":{"ha":780,"x_min":134,"x_max":646,"o":"m 243 257 q 288 153 243 195 q 393 110 334 110 q 494 153 450 110 q 537 257 536 194 l 537 503 q 494 607 536 566 q 385 650 450 650 q 286 607 328 650 q 243 507 243 565 l 243 503 l 243 257 m 134 977 l 243 1025 l 243 714 q 389 760 307 760 q 570 685 495 760 q 646 505 646 610 l 646 255 q 570 75 646 149 q 389 0 495 0 q 209 75 283 0 q 134 255 134 149 l 134 977 z "},"c":{"ha":780,"x_min":134,"x_max":646,"o":"m 243 257 q 288 153 243 195 q 393 110 334 110 q 494 153 450 110 q 537 257 536 194 l 537 267 l 646 315 l 646 255 q 564 73 646 160 q 389 0 495 0 q 209 75 283 0 q 134 255 134 149 l 134 505 q 209 685 134 610 q 389 760 283 760 q 570 685 496 760 q 646 505 646 610 l 646 498 l 537 449 l 537 503 q 494 607 536 566 q 391 650 450 650 q 286 607 330 650 q 243 505 243 564 q 243 503 243 503 l 243 257 z "},"d":{"ha":780,"x_min":134,"x_max":646,"o":"m 243 257 q 288 153 243 195 q 393 110 334 110 q 494 153 450 110 q 537 257 536 194 l 537 503 q 494 607 536 566 q 385 650 450 650 q 286 607 328 650 q 243 507 243 565 l 243 503 l 243 257 m 646 1025 l 646 255 q 570 75 646 149 q 389 0 495 0 q 209 75 283 0 q 134 255 134 149 l 134 505 q 209 685 134 610 q 389 760 283 760 q 537 713 473 760 l 537 977 l 646 1025 z "},"e":{"ha":780,"x_min":134,"x_max":646,"o":"m 393 110 q 494 153 450 110 q 537 257 536 194 l 537 267 l 646 315 l 646 255 q 564 73 646 160 q 389 0 495 0 q 209 75 283 0 q 134 255 134 149 l 134 505 q 209 685 134 610 q 389 760 283 760 q 570 685 491 760 q 646 505 646 614 l 646 441 l 243 262 q 286 154 243 197 q 393 110 328 110 m 385 650 q 286 607 328 650 q 243 505 243 564 q 243 503 243 503 l 243 380 l 536 511 q 494 607 533 568 q 385 650 450 650 z "},"f":{"ha":780,"x_min":52,"x_max":646,"o":"m 134 0 l 134 458 l 52 458 l 99 567 l 134 567 l 134 770 q 209 950 134 876 q 389 1025 283 1025 q 570 950 497 1025 q 646 770 646 873 l 646 767 l 537 720 l 537 768 q 494 872 536 831 q 389 916 450 916 q 286 872 329 916 q 243 770 243 829 q 243 768 243 768 l 243 567 l 563 567 l 515 458 l 243 458 l 243 47 l 134 0 z "},"g":{"ha":780,"x_min":134,"x_max":646,"o":"m 537 -14 l 537 46 q 389 0 473 0 q 209 75 283 0 q 134 255 134 149 l 134 505 q 209 685 134 610 q 389 760 283 760 q 570 685 495 760 q 646 505 646 610 l 646 -16 q 570 -197 646 -122 q 389 -271 495 -271 q 209 -197 283 -271 q 144 -90 161 -149 l 252 -66 q 288 -119 263 -96 q 393 -161 335 -161 q 494 -119 450 -161 q 537 -14 536 -77 m 243 257 q 288 153 243 195 q 393 110 334 110 q 494 153 450 110 q 537 257 536 194 l 537 503 q 494 607 536 566 q 385 650 450 650 q 286 607 328 650 q 243 507 243 565 l 243 503 l 243 257 z "},"h":{"ha":780,"x_min":134,"x_max":646,"o":"m 134 0 l 134 977 l 243 1025 l 243 714 q 389 760 307 760 q 570 685 495 760 q 646 505 646 610 l 646 47 l 537 0 l 537 503 q 494 607 536 566 q 391 650 450 650 q 286 607 328 650 q 243 507 243 565 l 243 503 l 243 47 l 134 0 z "},"i":{"ha":780,"x_min":99,"x_max":646,"o":"m 537 262 l 646 309 l 646 255 q 571 75 646 149 q 391 0 496 0 q 210 75 285 0 q 134 255 134 149 l 134 712 l 243 760 l 243 257 q 286 153 244 194 q 395 110 330 110 q 494 156 452 110 q 537 262 537 202 m 125 872 q 112 885 125 872 q 99 935 99 898 q 125 999 99 972 q 187 1025 151 1025 q 250 999 224 1025 q 275 935 275 972 q 250 872 275 898 q 187 846 224 846 q 125 872 151 846 z "},"j":{"ha":780,"x_min":134,"x_max":678,"o":"m 395 -161 q 494 -119 452 -161 q 537 -16 537 -76 q 537 -14 537 -16 l 537 712 q 646 760 537 712 l 646 -16 q 571 -197 646 -122 q 391 -271 496 -271 q 209 -197 282 -271 q 134 -16 134 -121 l 134 262 l 243 309 l 243 -14 q 286 -119 244 -77 q 395 -161 329 -161 m 502 935 q 528 998 502 972 q 590 1025 553 1025 q 652 998 626 1025 q 678 935 678 972 q 652 872 678 899 q 590 846 627 846 q 528 872 553 846 q 502 935 502 898 z "},"k":{"ha":780,"x_min":134,"x_max":646,"o":"m 134 0 l 134 977 l 243 1025 l 243 469 l 543 760 l 646 712 l 438 507 q 570 439 519 492 q 646 259 646 365 l 646 47 l 537 0 l 537 257 q 494 361 536 319 q 389 404 452 404 q 286 361 330 404 q 243 261 243 320 l 243 257 l 243 47 l 134 0 z "},"l":{"ha":780,"x_min":134,"x_max":646,"o":"m 537 262 l 646 309 l 646 255 q 571 75 646 149 q 391 0 496 0 q 210 75 285 0 q 134 255 134 149 l 134 977 l 243 1025 l 243 257 q 286 153 244 194 q 395 110 330 110 q 494 156 452 110 q 537 262 537 202 z "},"m":{"ha":780,"x_min":75,"x_max":705,"o":"m 75 0 l 75 575 q 129 705 75 651 q 260 760 183 760 q 391 707 339 760 q 521 760 445 760 q 653 707 602 760 q 705 574 705 653 l 705 47 l 597 0 l 597 572 q 575 629 597 606 q 522 653 553 653 q 468 629 490 653 q 445 572 445 605 l 445 572 l 444 47 l 336 0 l 336 572 q 314 629 336 606 q 261 653 292 653 q 207 629 230 653 q 184 572 184 606 l 183 47 l 75 0 z "},"n":{"ha":780,"x_min":134,"x_max":646,"o":"m 134 0 l 134 505 q 209 685 134 610 q 389 760 283 760 q 570 685 495 760 q 646 505 646 610 l 646 47 l 537 0 l 537 503 q 494 607 536 566 q 391 650 450 650 q 286 606 330 650 q 243 505 243 564 q 243 503 243 503 l 243 47 l 134 0 z "},"o":{"ha":780,"x_min":134,"x_max":646,"o":"m 243 257 q 288 153 243 195 q 393 110 334 110 q 494 153 450 110 q 537 257 536 194 l 537 503 q 494 607 536 566 q 385 650 450 650 q 286 607 328 650 q 243 507 243 565 l 243 503 l 243 257 m 134 505 q 209 685 134 610 q 389 760 283 760 q 570 685 495 760 q 646 505 646 610 l 646 255 q 570 75 646 149 q 389 0 495 0 q 209 75 283 0 q 134 255 134 149 l 134 505 z "},"p":{"ha":780,"x_min":134,"x_max":646,"o":"m 243 257 q 288 153 243 195 q 393 110 334 110 q 494 153 450 110 q 537 257 536 194 l 537 503 q 494 607 536 566 q 385 650 450 650 q 286 607 328 650 q 243 507 243 565 l 243 503 l 243 257 m 134 -265 l 134 505 q 210 685 134 610 q 391 760 285 760 q 571 685 496 760 q 646 505 646 610 l 646 255 q 571 75 646 149 q 391 0 496 0 q 243 46 307 0 l 243 -218 l 134 -265 z "},"q":{"ha":780,"x_min":134,"x_max":802,"o":"m 537 -265 l 537 45 q 391 0 473 0 q 210 75 285 0 q 134 255 134 149 l 134 505 q 210 685 134 610 q 391 760 285 760 q 571 685 496 760 q 646 505 646 610 l 646 -102 l 761 -52 l 802 -149 l 537 -265 m 243 257 q 288 153 243 195 q 393 110 334 110 q 494 153 450 110 q 537 257 536 194 l 537 503 q 494 607 536 566 q 385 650 450 650 q 286 607 328 650 q 243 507 243 565 l 243 503 l 243 257 z "},"r":{"ha":780,"x_min":134,"x_max":646,"o":"m 134 0 l 134 505 q 209 685 134 610 q 389 760 283 760 q 570 685 497 760 q 646 505 646 608 l 646 502 l 537 454 l 537 503 q 494 607 536 566 q 391 650 450 650 q 286 607 330 650 q 243 505 243 564 q 243 503 243 503 l 243 47 l 134 0 z "},"s":{"ha":780,"x_min":138,"x_max":642,"o":"m 395 110 q 494 151 455 110 q 534 244 534 193 q 494 330 534 290 q 386 374 454 371 q 252 425 302 378 q 195 555 204 471 q 194 568 194 562 q 254 699 197 642 q 394 760 311 760 q 534 699 481 760 q 589 591 570 659 l 491 548 q 458 619 480 593 q 393 647 433 647 q 328 619 356 647 q 302 561 302 593 q 302 557 302 559 q 327 501 302 525 q 392 474 349 479 q 573 401 510 460 q 642 239 642 335 l 642 237 q 575 75 641 146 q 395 0 506 0 q 220 73 288 0 q 138 255 143 154 l 138 262 l 246 309 l 247 257 q 290 153 248 194 q 395 110 333 110 z "},"t":{"ha":780,"x_min":50,"x_max":646,"o":"m 537 262 q 646 309 537 262 l 646 255 q 571 75 646 149 q 391 0 496 0 q 210 75 285 0 q 134 255 134 149 l 134 637 l 50 637 l 98 746 l 134 746 l 134 977 l 243 1025 l 243 746 l 587 746 l 540 637 l 243 637 l 243 257 q 286 153 244 193 q 389 110 330 110 q 494 153 450 110 q 537 262 537 195 z "},"u":{"ha":780,"x_min":134,"x_max":646,"o":"m 395 110 q 494 153 452 110 q 537 255 537 195 q 537 257 537 256 l 537 712 q 646 760 537 712 l 646 255 q 571 75 646 149 q 391 0 496 0 q 210 75 285 0 q 134 255 134 149 l 134 712 l 243 760 l 243 257 q 286 153 244 194 q 395 110 330 110 z "},"v":{"ha":780,"x_min":51,"x_max":729,"o":"m 334 0 l 51 712 l 150 760 l 390 155 l 631 761 l 729 713 l 456 47 l 334 0 z "},"w":{"ha":780,"x_min":75,"x_max":705,"o":"m 75 185 l 75 712 l 183 760 l 182 188 q 205 130 182 154 q 258 106 227 106 q 312 130 290 106 q 335 187 335 155 q 335 188 335 187 l 336 712 l 444 760 l 444 188 q 466 130 444 154 q 519 106 488 106 q 573 130 550 106 q 596 188 596 154 l 597 712 l 705 760 l 705 184 q 651 54 705 109 q 520 0 597 0 q 389 53 441 0 q 259 0 335 0 q 127 53 178 0 q 75 185 75 106 z "},"x":{"ha":780,"x_min":82,"x_max":698,"o":"m 82 712 l 178 760 l 390 463 l 601 760 l 697 712 l 458 381 l 698 47 l 599 0 l 390 296 l 181 0 l 83 47 l 323 380 l 82 712 z "},"y":{"ha":780,"x_min":134,"x_max":646,"o":"m 537 -14 l 537 45 q 391 0 473 0 q 210 75 285 0 q 134 255 134 149 l 134 712 l 243 760 l 243 257 q 286 153 244 194 q 395 110 330 110 q 494 153 452 110 q 537 253 536 195 l 537 257 l 537 712 l 646 760 l 646 -16 q 570 -197 646 -122 q 389 -271 495 -271 q 209 -197 283 -271 q 144 -90 161 -149 l 252 -66 q 288 -119 263 -96 q 393 -161 335 -161 q 494 -119 450 -161 q 537 -14 536 -77 z "},"z":{"ha":780,"x_min":113,"x_max":667,"o":"m 304 122 l 665 122 l 618 14 l 113 14 l 478 637 l 134 637 l 182 746 l 667 746 l 304 122 z "},"{":{"ha":780,"x_min":46,"x_max":657,"o":"m 297 758 l 297 960 q 387 1174 297 1085 q 603 1262 476 1262 l 656 1262 l 611 1158 l 603 1158 q 464 1101 522 1158 q 406 962 406 1044 l 406 762 l 406 760 q 316 546 406 635 q 276 512 297 527 q 316 479 298 498 q 406 266 406 390 l 406 264 l 406 63 q 464 -76 406 -19 q 603 -133 522 -132 l 657 -132 l 612 -237 q 603 -237 607 -237 q 387 -149 449 -211 q 297 65 297 -59 l 297 268 q 239 404 297 350 q 100 458 184 454 q 73 458 86 458 q 46 458 60 458 l 92 562 l 100 562 q 239 618 180 562 q 297 758 297 675 z "},"|":{"ha":780,"x_min":336,"x_max":444,"o":"m 336 1215 l 444 1262 l 444 -190 l 336 -237 l 336 1215 z "},"}":{"ha":780,"x_min":123,"x_max":734,"o":"m 483 268 l 483 65 q 393 -149 483 -60 q 177 -237 304 -237 l 123 -237 l 169 -133 l 177 -133 q 316 -76 258 -133 q 374 63 374 -19 l 374 264 l 374 266 q 464 479 374 390 q 504 513 483 498 q 464 546 482 528 q 374 760 374 635 l 374 761 l 374 962 q 316 1101 374 1044 q 177 1158 258 1158 l 123 1158 l 168 1262 q 177 1262 173 1263 q 393 1174 331 1236 q 483 960 483 1084 l 483 758 q 541 622 483 675 q 680 568 595 572 q 707 568 694 568 q 734 568 720 568 l 688 464 l 680 464 q 541 407 600 464 q 483 268 483 350 z "},"~":{"ha":780,"x_min":85,"x_max":694,"o":"m 85 398 q 140 555 85 492 q 268 614 192 614 q 404 574 336 614 q 500 517 495 518 q 518 514 509 514 q 563 537 545 515 q 575 568 568 544 l 694 623 q 641 465 689 528 q 511 404 595 404 q 372 467 464 404 q 274 510 309 510 q 218 487 241 510 q 199 442 205 473 l 85 393 q 85 398 85 397 z "}," ":{"ha":780,"x_min":0,"x_max":0,"o":""},"¡":{"ha":780,"x_min":302,"x_max":478,"o":"m 444 47 l 336 0 l 336 740 l 444 787 l 444 47 m 452 999 q 465 986 452 999 q 478 935 478 972 q 452 872 478 898 q 390 846 427 846 q 328 872 353 846 q 302 935 302 898 q 328 999 302 972 q 390 1025 353 1025 q 452 999 427 1025 z "},"¢":{"ha":780,"x_min":134,"x_max":646,"o":"m 646 315 l 646 255 q 564 73 646 160 q 444 5 514 20 l 444 -190 l 336 -237 l 336 5 q 209 75 264 20 q 134 255 134 149 l 134 505 q 209 685 134 610 q 336 754 264 740 l 336 955 l 444 1002 l 444 754 q 570 685 516 739 q 646 505 646 610 l 646 498 l 537 449 l 537 503 q 494 607 536 566 q 444 640 471 629 l 444 119 q 494 153 471 130 q 537 257 536 194 l 537 267 l 646 315 m 243 257 q 286 153 243 195 q 336 119 309 130 l 336 640 q 286 607 309 630 q 243 505 243 564 q 243 503 243 503 l 243 257 z "},"£":{"ha":780,"x_min":53,"x_max":727,"o":"m 244 122 l 727 122 l 680 14 l 136 14 l 136 381 l 53 381 l 100 490 l 136 490 l 136 770 q 210 950 136 876 q 391 1025 285 1025 q 572 950 498 1025 q 647 770 647 873 l 647 767 l 538 720 l 538 768 q 495 872 537 831 q 391 916 451 916 q 287 872 330 916 q 244 770 244 829 l 244 768 l 244 490 l 507 490 l 459 381 l 244 381 l 244 122 z "},"¤":{"ha":780,"x_min":50,"x_max":730,"o":"m 251 507 q 294 402 252 444 q 393 359 336 359 q 500 399 456 359 q 545 503 543 439 q 502 607 544 566 q 393 650 458 650 q 294 607 336 650 q 251 507 252 565 m 653 506 q 618 370 653 422 l 730 259 l 620 216 l 540 295 q 397 250 471 250 q 248 298 314 250 l 160 218 l 50 260 l 176 377 q 142 509 142 434 q 183 644 142 583 l 50 772 l 160 814 l 260 720 q 397 760 320 760 q 535 721 475 760 l 620 804 l 730 761 l 611 645 q 653 506 653 581 z "},"¥":{"ha":780,"x_min":32,"x_max":748,"o":"m 113 241 l 160 349 l 324 349 l 273 458 l 113 458 l 160 566 l 223 566 l 32 977 l 131 1025 l 355 566 l 423 566 l 650 1025 l 748 977 l 549 566 l 684 566 l 636 458 l 496 458 l 456 376 l 448 359 l 448 349 l 684 349 l 636 241 l 448 241 l 448 47 l 340 0 l 340 241 l 113 241 z "},"¦":{"ha":780,"x_min":336,"x_max":444,"o":"m 444 454 l 444 -190 l 336 -237 l 336 407 l 444 454 m 336 570 l 336 1215 l 444 1262 l 444 617 l 336 570 z "},"§":{"ha":780,"x_min":141,"x_max":639,"o":"m 491 608 q 382 652 451 648 q 281 606 326 652 q 250 507 250 564 q 289 421 250 462 q 397 377 329 380 q 493 422 450 377 q 530 522 530 464 q 526 553 530 537 q 491 608 514 583 m 639 517 l 639 515 q 572 352 637 423 q 536 321 555 334 q 589 204 581 276 q 590 192 590 198 q 530 60 587 118 q 390 0 473 0 q 250 60 302 0 q 195 168 214 101 l 293 212 q 326 140 304 167 q 391 113 351 113 q 456 140 428 113 q 481 199 481 166 l 481 202 q 456 250 481 226 q 391 277 434 273 q 210 350 278 277 q 141 512 141 416 l 141 514 q 208 677 142 606 q 243 708 224 694 q 189 820 197 753 q 189 832 189 828 q 248 964 192 906 q 389 1024 306 1024 q 529 964 476 1024 q 584 856 564 923 l 486 812 q 452 884 475 857 q 388 911 427 911 q 323 884 351 911 q 297 825 297 858 l 297 822 q 321 766 297 781 q 389 751 344 751 q 570 679 502 751 q 639 517 639 612 z "},"¨":{"ha":780,"x_min":149,"x_max":631,"o":"m 481 872 q 468 885 481 872 q 455 935 455 898 q 481 999 455 972 q 543 1025 507 1025 q 606 999 580 1025 q 631 935 631 972 q 606 872 631 898 q 543 846 580 846 q 481 872 507 846 m 174 872 q 161 885 174 872 q 149 935 149 898 q 174 999 149 972 q 237 1025 200 1025 q 299 999 273 1025 q 325 935 325 972 q 299 872 325 898 q 237 846 273 846 q 174 872 200 846 z "},"©":{"ha":780,"x_min":17,"x_max":764,"o":"m 391 903 q 533 873 465 903 q 654 787 598 846 q 736 661 709 731 q 764 511 764 593 q 736 363 764 433 q 654 237 711 296 q 533 151 601 181 q 391 122 467 122 q 248 151 315 122 q 126 237 182 179 q 44 363 71 294 q 17 511 17 431 q 44 661 17 592 q 126 787 71 730 q 248 874 181 845 q 391 903 314 903 m 391 848 q 268 824 324 848 q 163 749 212 800 q 92 640 116 700 q 67 515 67 581 q 67 511 67 513 q 92 384 67 444 q 163 275 115 328 q 267 201 211 225 q 391 176 325 176 q 514 201 456 176 q 618 275 570 225 q 689 383 665 324 q 713 511 713 442 q 689 641 713 581 q 618 749 666 699 q 514 824 572 799 q 391 848 456 848 m 397 374 q 447 394 425 374 q 469 441 469 413 l 469 456 l 563 496 l 563 440 q 510 328 563 380 q 391 283 465 283 q 277 329 326 283 q 228 440 228 374 l 228 579 q 277 691 228 646 q 395 736 326 736 q 513 690 463 736 q 563 579 563 645 l 563 566 l 469 526 l 469 578 q 447 625 469 606 q 398 646 425 646 q 396 646 397 646 q 344 625 367 646 q 322 579 322 606 l 322 441 q 345 394 322 412 q 397 374 368 374 z "},"ª":{"ha":780,"x_min":95,"x_max":686,"o":"m 142 548 l 686 548 l 639 439 l 95 439 l 142 548 m 463 774 l 319 714 q 338 681 323 694 q 389 661 361 661 l 390 661 q 428 670 411 661 l 443 679 l 463 625 l 463 774 m 384 570 q 273 615 323 570 q 224 728 224 660 l 224 773 l 462 873 q 441 914 458 897 q 389 934 420 934 l 388 934 q 338 913 360 934 q 317 866 317 895 l 317 850 l 224 811 l 224 867 q 276 979 224 927 q 390 1025 321 1025 q 508 979 459 1025 q 556 867 556 933 l 556 602 l 463 562 l 463 585 q 384 570 430 570 z "},"«":{"ha":780,"x_min":88,"x_max":692,"o":"m 322 510 l 595 895 l 692 848 l 452 517 l 692 183 l 593 136 l 322 510 m 88 511 l 361 896 l 457 848 l 218 517 l 458 184 l 359 136 l 88 511 z "},"¬":{"ha":780,"x_min":94,"x_max":686,"o":"m 142 566 l 686 566 l 553 252 l 414 210 l 515 458 l 94 458 l 142 566 z "},"­":{"ha":780,"x_min":94,"x_max":686,"o":"m 142 566 l 686 566 l 638 458 l 94 458 l 142 566 z "},"®":{"ha":780,"x_min":17,"x_max":764,"o":"m 391 903 q 533 873 465 903 q 654 787 598 846 q 736 661 709 731 q 764 511 764 593 q 736 363 764 433 q 654 237 711 296 q 533 151 601 181 q 391 122 467 122 q 248 151 315 122 q 126 237 182 179 q 44 363 71 294 q 17 511 17 431 q 44 661 17 592 q 126 787 71 730 q 248 874 181 845 q 391 903 314 903 m 391 848 q 268 824 324 848 q 163 749 212 800 q 92 640 116 700 q 67 515 67 581 q 67 511 67 513 q 92 384 67 444 q 163 275 115 328 q 267 201 211 225 q 391 176 325 176 q 514 201 456 176 q 618 275 570 225 q 689 383 665 324 q 713 511 713 442 q 689 641 713 581 q 618 749 665 701 q 514 824 572 799 q 391 848 456 848 m 336 455 l 336 318 l 242 283 l 242 729 l 311 748 l 407 748 q 521 706 474 748 q 570 603 570 662 l 570 602 q 521 497 569 540 q 495 478 509 486 l 583 322 l 490 287 l 401 455 l 336 455 m 336 660 l 336 543 l 408 543 q 458 561 435 543 q 478 601 478 577 l 478 602 q 457 642 478 623 q 408 660 437 660 l 336 660 z "},"¯":{"ha":780,"x_min":94,"x_max":686,"o":"m 142 1025 l 686 1025 l 638 916 l 94 916 l 142 1025 z "},"°":{"ha":780,"x_min":162,"x_max":618,"o":"m 264 802 q 301 714 264 749 q 391 678 338 678 q 479 714 443 678 q 517 802 517 751 q 479 890 517 852 q 391 926 443 926 q 301 890 338 926 q 264 802 264 854 m 229 643 q 195 676 229 643 q 162 802 162 709 q 229 960 162 895 q 390 1025 296 1025 q 551 960 484 1025 q 618 802 618 895 q 551 643 618 709 q 390 578 484 578 q 229 643 296 578 z "},"±":{"ha":780,"x_min":94,"x_max":686,"o":"m 444 361 l 336 313 l 336 555 l 94 555 l 142 663 l 336 663 l 336 857 l 444 905 l 444 663 l 686 663 l 638 555 l 444 555 l 444 361 m 142 274 l 686 274 l 638 165 l 94 165 l 142 274 z "},"²":{"ha":780,"x_min":205,"x_max":574,"o":"m 355 652 l 574 652 l 530 564 l 205 564 l 244 650 q 387 806 296 748 l 443 842 q 460 875 460 852 l 460 879 q 439 920 459 903 q 387 939 418 939 q 336 920 356 939 q 315 881 315 902 l 317 867 l 317 862 l 221 826 l 220 878 q 270 983 220 939 q 387 1025 318 1025 q 505 983 456 1025 q 554 872 553 941 q 554 871 554 872 q 500 772 554 808 l 410 711 q 355 652 376 682 z "},"³":{"ha":780,"x_min":226,"x_max":554,"o":"m 503 614 q 389 573 456 573 q 276 614 323 573 q 227 716 227 658 l 227 735 l 321 770 l 321 715 q 340 676 321 693 q 388 658 360 658 l 389 658 q 437 675 419 658 q 456 716 455 694 q 440 755 456 741 q 389 777 414 777 l 375 777 q 343 770 360 777 l 340 769 l 301 804 l 387 937 l 226 937 l 269 1025 l 554 1025 l 443 854 q 502 821 475 844 q 550 718 550 780 l 550 718 q 503 614 550 655 z "},"´":{"ha":780,"x_min":254,"x_max":526,"o":"m 254 793 l 483 1025 l 526 914 l 297 683 l 254 793 z "},"µ":{"ha":780,"x_min":134,"x_max":646,"o":"m 395 110 q 494 153 452 110 q 537 255 537 195 q 537 257 537 256 l 537 712 l 646 760 l 646 255 q 571 75 646 149 q 391 0 496 0 q 243 46 307 0 l 243 -217 l 134 -264 l 134 712 l 243 760 l 243 257 q 286 153 244 194 q 395 110 330 110 z "},"¶":{"ha":780,"x_min":172,"x_max":608,"o":"m 608 1011 l 608 47 l 571 31 l 571 976 l 533 976 l 533 15 l 499 0 l 499 399 l 475 399 q 260 489 350 399 q 172 703 172 577 q 172 705 172 705 q 262 922 172 829 q 475 1011 349 1011 l 608 1011 z "},"·":{"ha":780,"x_min":302,"x_max":478,"o":"m 328 447 q 315 460 328 447 q 302 510 302 473 q 328 573 302 547 q 390 600 353 600 q 452 573 427 600 q 478 510 478 547 q 452 447 478 473 q 390 420 427 420 q 328 447 353 420 z "},"¸":{"ha":780,"x_min":281,"x_max":499,"o":"m 281 -214 l 400 -165 l 320 9 l 399 98 l 496 -119 l 499 -238 l 283 -333 l 281 -214 z "},"¹":{"ha":780,"x_min":244,"x_max":460,"o":"m 363 866 l 304 819 l 244 886 l 374 993 l 460 1025 l 460 571 l 363 535 l 363 866 z "},"º":{"ha":780,"x_min":95,"x_max":686,"o":"m 142 548 l 686 548 l 639 439 l 95 439 l 142 548 m 391 662 q 441 682 421 662 q 463 730 462 701 l 463 866 q 441 913 462 894 q 391 934 420 934 l 391 934 q 338 913 361 934 q 317 867 317 895 l 317 729 q 340 682 317 700 q 391 662 364 663 m 271 616 q 222 728 222 663 l 222 867 q 272 979 222 932 q 389 1025 321 1025 q 508 979 458 1025 q 557 867 557 933 l 557 728 q 505 616 557 669 q 388 571 459 571 q 271 616 319 571 z "},"»":{"ha":780,"x_min":88,"x_max":692,"o":"m 458 510 l 187 136 l 88 183 l 328 517 l 88 848 l 184 895 l 458 510 m 692 511 l 421 136 l 322 184 l 562 517 l 323 848 l 419 896 l 692 511 z "},"¼":{"ha":780,"x_min":22,"x_max":758,"o":"m 684 807 l 746 718 l 96 241 l 34 330 l 684 807 m 141 866 l 82 819 l 22 886 l 152 993 l 237 1025 l 237 571 l 141 535 l 141 866 m 610 0 l 610 115 l 396 115 l 432 191 l 617 444 l 701 476 l 701 203 l 758 203 l 717 115 l 701 115 l 701 37 l 610 0 m 546 197 l 610 197 l 610 288 l 546 197 z "},"½":{"ha":780,"x_min":22,"x_max":746,"o":"m 684 807 l 746 718 l 96 241 l 34 330 l 684 807 m 523 88 l 742 88 l 697 0 l 373 0 l 412 86 q 554 242 463 184 l 610 277 q 627 311 627 288 l 627 315 q 607 356 627 339 q 555 374 586 374 q 503 356 524 374 q 483 317 483 338 l 484 303 l 485 298 l 389 262 l 388 314 q 437 418 388 375 q 555 460 486 460 q 672 418 623 460 q 722 308 721 376 l 722 307 q 667 208 722 244 l 577 147 q 523 88 543 117 m 141 866 l 82 819 l 22 886 l 152 993 l 237 1025 l 237 571 l 141 535 l 141 866 z "},"¾":{"ha":780,"x_min":31,"x_max":758,"o":"m 684 807 l 746 718 l 96 241 l 34 330 l 684 807 m 308 614 q 195 573 261 573 q 81 614 128 573 q 33 716 33 658 l 33 735 l 126 770 l 126 715 q 145 676 126 693 q 193 658 165 658 l 195 658 q 243 675 224 658 q 261 716 260 694 q 245 755 262 741 q 194 777 220 777 l 180 777 q 149 770 165 777 l 145 769 l 106 804 l 193 937 l 31 937 l 74 1025 l 359 1025 l 248 854 q 307 821 280 844 q 355 718 355 780 l 355 718 q 308 614 355 655 m 610 0 l 610 115 l 396 115 l 432 191 l 617 444 l 701 476 l 701 203 l 758 203 l 717 115 l 701 115 l 701 37 l 610 0 m 546 197 l 610 197 l 610 288 l 546 197 z "},"¿":{"ha":780,"x_min":85,"x_max":695,"o":"m 192 300 q 250 161 192 220 q 389 104 307 104 q 528 161 469 104 q 587 294 587 218 q 587 300 587 297 l 587 307 l 695 354 l 695 302 q 606 89 695 179 q 389 0 517 0 q 173 88 262 0 q 85 304 85 176 l 85 306 q 185 517 85 431 q 349 616 193 528 q 396 671 389 637 q 396 707 399 679 l 505 755 q 503 659 505 749 q 352 500 501 581 q 249 435 281 461 q 192 300 192 389 m 511 999 q 524 986 511 999 q 536 935 536 972 q 511 872 536 898 q 448 846 485 846 q 386 872 412 846 q 360 935 360 898 q 386 999 360 972 q 448 1025 412 1025 q 511 999 485 1025 z "},"À":{"ha":780,"x_min":84,"x_max":696,"o":"m 436 1183 l 393 1072 l 199 1261 l 242 1371 l 436 1183 m 696 723 l 696 47 l 587 0 l 587 458 l 193 458 l 193 47 l 84 0 l 84 723 q 174 936 84 848 q 390 1025 263 1025 q 606 936 517 1025 q 696 723 696 848 m 193 566 l 587 566 l 587 725 q 529 863 587 806 q 390 921 471 921 q 250 863 309 921 q 193 727 193 806 l 193 725 l 193 566 z "},"Á":{"ha":780,"x_min":84,"x_max":696,"o":"m 347 1183 l 541 1371 l 584 1261 l 390 1072 l 347 1183 m 696 723 l 696 47 l 587 0 l 587 458 l 193 458 l 193 47 l 84 0 l 84 723 q 174 936 84 848 q 390 1025 263 1025 q 606 936 517 1025 q 696 723 696 848 m 193 566 l 587 566 l 587 725 q 529 863 587 806 q 390 921 471 921 q 250 863 309 921 q 193 727 193 806 l 193 725 l 193 566 z "},"Â":{"ha":780,"x_min":84,"x_max":696,"o":"m 391 1337 l 566 1177 l 517 1078 l 391 1212 l 259 1078 l 214 1175 l 391 1337 m 696 723 l 696 47 l 587 0 l 587 458 l 193 458 l 193 47 l 84 0 l 84 723 q 174 936 84 848 q 390 1025 263 1025 q 606 936 517 1025 q 696 723 696 848 m 193 566 l 587 566 l 587 725 q 529 863 587 806 q 390 921 471 921 q 250 863 309 921 q 193 727 193 806 l 193 725 l 193 566 z "},"Ã":{"ha":780,"x_min":84,"x_max":696,"o":"m 193 566 l 587 566 l 587 725 q 529 863 587 806 q 390 921 471 921 q 250 863 309 921 q 193 727 193 806 l 193 725 l 193 566 m 696 723 l 696 47 l 587 0 l 587 458 l 193 458 l 193 47 l 84 0 l 84 723 q 174 936 84 848 q 390 1025 263 1025 q 606 936 517 1025 q 696 723 696 848 m 462 1215 l 578 1338 l 627 1239 l 453 1079 l 317 1203 l 195 1079 l 150 1175 l 328 1338 l 462 1215 z "},"Ä":{"ha":780,"x_min":84,"x_max":696,"o":"m 483 1119 q 470 1132 483 1119 q 457 1182 457 1145 q 483 1245 457 1219 q 545 1272 509 1272 q 608 1245 582 1272 q 633 1182 633 1219 q 608 1119 633 1145 q 545 1093 582 1093 q 483 1119 509 1093 m 176 1119 q 163 1132 176 1119 q 151 1182 151 1145 q 176 1245 151 1219 q 239 1272 202 1272 q 301 1245 275 1272 q 327 1182 327 1219 q 301 1119 327 1145 q 239 1093 275 1093 q 176 1119 202 1093 m 696 723 l 696 47 l 587 0 l 587 458 l 193 458 l 193 47 l 84 0 l 84 723 q 174 936 84 848 q 390 1025 263 1025 q 606 936 517 1025 q 696 723 696 848 m 193 566 l 587 566 l 587 725 q 529 863 587 806 q 390 921 471 921 q 250 863 309 921 q 193 727 193 806 l 193 725 l 193 566 z "},"Å":{"ha":780,"x_min":84,"x_max":696,"o":"m 395 1166 q 435 1183 416 1166 q 453 1224 453 1200 q 453 1226 453 1225 q 435 1269 453 1253 q 392 1286 415 1286 q 391 1286 391 1286 q 347 1267 366 1286 q 329 1226 329 1250 q 329 1223 329 1225 q 349 1182 331 1198 q 395 1166 367 1166 m 236 1228 q 281 1336 236 1292 q 391 1380 327 1380 q 499 1335 453 1380 q 545 1228 545 1291 q 499 1120 545 1166 q 391 1076 454 1076 q 279 1121 326 1076 q 236 1228 236 1165 m 696 723 l 696 47 l 587 0 l 587 458 l 193 458 l 193 47 l 84 0 l 84 723 q 174 936 84 848 q 390 1025 263 1025 q 606 936 517 1025 q 696 723 696 848 m 193 566 l 587 566 l 587 725 q 529 863 587 806 q 390 921 471 921 q 250 863 309 921 q 193 727 193 806 l 193 725 l 193 566 z "},"Æ":{"ha":780,"x_min":75,"x_max":765,"o":"m 184 458 l 183 47 l 75 0 l 75 840 q 129 970 75 916 q 260 1025 183 1025 q 378 983 330 1025 l 444 1012 l 677 1011 l 629 903 l 444 903 l 444 566 l 677 566 l 629 458 l 444 458 l 444 122 l 765 122 l 718 14 l 336 14 l 336 458 l 184 458 m 184 566 l 336 566 l 336 838 q 314 895 336 872 q 261 918 292 918 q 207 895 230 918 q 184 837 184 871 l 184 566 z "},"Ç":{"ha":780,"x_min":84,"x_max":696,"o":"m 696 358 l 696 302 q 606 88 696 176 q 437 3 534 17 l 492 -121 l 495 -240 l 279 -335 l 277 -216 l 396 -167 l 316 7 l 317 8 q 174 88 236 26 q 84 302 84 177 l 84 723 q 174 936 84 848 q 390 1025 263 1025 q 606 936 518 1025 q 696 723 696 846 l 696 717 l 587 667 l 587 725 q 529 863 587 806 q 390 921 471 921 q 250 864 308 921 q 193 725 193 806 l 193 300 q 250 161 193 219 q 390 104 308 104 q 529 161 470 104 q 587 300 587 218 l 587 308 l 696 358 z "},"È":{"ha":780,"x_min":138,"x_max":730,"o":"m 436 1183 l 393 1072 l 199 1261 l 242 1371 l 436 1183 m 247 458 l 247 122 l 730 122 l 682 14 l 138 14 l 138 964 l 247 1012 l 642 1011 l 594 903 l 247 903 l 247 566 l 642 566 l 594 458 l 247 458 z "},"É":{"ha":780,"x_min":138,"x_max":730,"o":"m 347 1183 l 541 1371 l 584 1261 l 390 1072 l 347 1183 m 247 458 l 247 122 l 730 122 l 682 14 l 138 14 l 138 964 l 247 1012 l 642 1011 l 594 903 l 247 903 l 247 566 l 642 566 l 594 458 l 247 458 z "},"Ê":{"ha":780,"x_min":138,"x_max":730,"o":"m 391 1337 l 566 1177 l 517 1078 l 391 1212 l 259 1078 l 214 1175 l 391 1337 m 247 458 l 247 122 l 730 122 l 682 14 l 138 14 l 138 964 l 247 1012 l 642 1011 l 594 903 l 247 903 l 247 566 l 642 566 l 594 458 l 247 458 z "},"Ë":{"ha":780,"x_min":138,"x_max":730,"o":"m 483 1119 q 470 1132 483 1119 q 457 1182 457 1145 q 483 1245 457 1219 q 545 1272 509 1272 q 608 1245 582 1272 q 633 1182 633 1219 q 608 1119 633 1145 q 545 1093 582 1093 q 483 1119 509 1093 m 176 1119 q 163 1132 176 1119 q 151 1182 151 1145 q 176 1245 151 1219 q 239 1272 202 1272 q 301 1245 275 1272 q 327 1182 327 1219 q 301 1119 327 1145 q 239 1093 275 1093 q 176 1119 202 1093 m 247 458 l 247 122 l 730 122 l 682 14 l 138 14 l 138 964 l 247 1012 l 642 1011 l 594 903 l 247 903 l 247 566 l 642 566 l 594 458 l 247 458 z "},"Ì":{"ha":780,"x_min":94,"x_max":686,"o":"m 436 1183 l 393 1072 l 199 1261 l 242 1371 l 436 1183 m 142 1011 l 686 1011 l 638 903 l 444 903 l 444 122 l 686 122 l 638 14 l 94 14 l 142 122 l 336 122 l 336 903 l 94 903 l 142 1011 z "},"Í":{"ha":780,"x_min":94,"x_max":686,"o":"m 347 1183 l 541 1371 l 584 1261 l 390 1072 l 347 1183 m 142 1011 l 686 1011 l 638 903 l 444 903 l 444 122 l 686 122 l 638 14 l 94 14 l 142 122 l 336 122 l 336 903 l 94 903 l 142 1011 z "},"Î":{"ha":780,"x_min":94,"x_max":686,"o":"m 391 1337 l 566 1177 l 517 1078 l 391 1212 l 259 1078 l 214 1175 l 391 1337 m 142 1011 l 686 1011 l 638 903 l 444 903 l 444 122 l 686 122 l 638 14 l 94 14 l 142 122 l 336 122 l 336 903 l 94 903 l 142 1011 z "},"Ï":{"ha":780,"x_min":94,"x_max":686,"o":"m 483 1119 q 470 1132 483 1119 q 457 1182 457 1145 q 483 1245 457 1219 q 545 1272 509 1272 q 608 1245 582 1272 q 633 1182 633 1219 q 608 1119 633 1145 q 545 1093 582 1093 q 483 1119 509 1093 m 176 1119 q 163 1132 176 1119 q 151 1182 151 1145 q 176 1245 151 1219 q 239 1272 202 1272 q 301 1245 275 1272 q 327 1182 327 1219 q 301 1119 327 1145 q 239 1093 275 1093 q 176 1119 202 1093 m 142 1011 l 686 1011 l 638 903 l 444 903 l 444 122 l 686 122 l 638 14 l 94 14 l 142 122 l 336 122 l 336 903 l 94 903 l 142 1011 z "},"Ð":{"ha":780,"x_min":19,"x_max":696,"o":"m 390 1012 l 391 1012 q 607 923 517 1012 q 696 710 696 835 l 696 315 q 607 102 696 191 q 391 14 517 14 l 390 14 l 83 14 l 83 458 l 19 458 l 66 566 l 83 566 l 83 964 l 192 1012 l 390 1012 m 391 117 q 530 175 471 117 q 588 313 588 232 l 588 712 q 530 850 588 793 q 391 908 471 908 l 390 908 l 192 907 l 192 566 l 463 566 l 416 458 l 192 458 l 192 117 l 390 117 l 391 117 z "},"Ñ":{"ha":780,"x_min":84,"x_max":696,"o":"m 462 1215 l 578 1338 l 627 1239 l 453 1079 l 317 1203 l 195 1079 l 150 1175 l 328 1338 l 462 1215 m 696 723 l 696 47 l 587 0 l 587 725 q 529 863 587 806 q 390 921 471 921 q 250 863 309 921 q 193 727 193 806 q 193 725 193 726 l 193 47 l 84 0 l 84 723 q 174 936 84 848 q 390 1025 263 1025 q 606 936 517 1025 q 696 723 696 848 z "},"Ò":{"ha":780,"x_min":84,"x_max":696,"o":"m 436 1183 l 393 1072 l 199 1261 l 242 1371 l 436 1183 m 696 723 q 696 302 696 723 q 606 89 696 177 q 390 0 517 0 q 174 88 262 0 q 84 302 84 177 l 84 723 q 174 936 84 848 q 390 1025 263 1025 q 606 936 517 1025 q 696 723 696 848 m 193 725 l 193 300 q 250 161 193 219 q 390 104 308 104 q 529 161 471 104 q 587 300 587 218 l 587 725 q 529 863 587 806 q 390 921 471 921 q 250 864 308 921 q 193 725 193 806 z "},"Ó":{"ha":780,"x_min":84,"x_max":696,"o":"m 347 1183 l 541 1371 l 584 1261 l 390 1072 l 347 1183 m 696 723 l 696 302 q 606 89 696 177 q 390 0 517 0 q 174 88 262 0 q 84 302 84 177 l 84 723 q 174 936 84 848 q 390 1025 263 1025 q 606 936 517 1025 q 696 723 696 848 m 193 725 l 193 300 q 250 161 193 219 q 390 104 308 104 q 529 161 471 104 q 587 300 587 218 l 587 725 q 529 863 587 806 q 390 921 471 921 q 250 864 308 921 q 193 725 193 806 z "},"Ô":{"ha":780,"x_min":84,"x_max":696,"o":"m 391 1337 l 566 1177 l 517 1078 l 391 1212 l 259 1078 l 214 1175 l 391 1337 m 696 723 q 696 302 696 723 q 606 89 696 177 q 390 0 517 0 q 174 88 262 0 q 84 302 84 177 l 84 723 q 174 936 84 848 q 390 1025 263 1025 q 606 936 517 1025 q 696 723 696 848 m 193 725 l 193 300 q 250 161 193 219 q 390 104 308 104 q 529 161 471 104 q 587 300 587 218 l 587 725 q 529 863 587 806 q 390 921 471 921 q 250 864 308 921 q 193 725 193 806 z "},"Õ":{"ha":780,"x_min":84,"x_max":696,"o":"m 462 1215 l 578 1338 l 627 1239 l 453 1079 l 317 1203 l 195 1079 l 150 1175 l 328 1338 l 462 1215 m 696 723 q 696 302 696 723 q 606 89 696 177 q 390 0 517 0 q 174 88 262 0 q 84 302 84 177 l 84 723 q 174 936 84 848 q 390 1025 263 1025 q 606 936 517 1025 q 696 723 696 848 m 193 725 l 193 300 q 250 161 193 219 q 390 104 308 104 q 529 161 471 104 q 587 300 587 218 l 587 725 q 529 863 587 806 q 390 921 471 921 q 250 864 308 921 q 193 725 193 806 z "},"Ö":{"ha":780,"x_min":84,"x_max":696,"o":"m 483 1119 q 470 1132 483 1119 q 457 1182 457 1145 q 483 1245 457 1219 q 545 1272 509 1272 q 608 1245 582 1272 q 633 1182 633 1219 q 608 1119 633 1145 q 545 1093 582 1093 q 483 1119 509 1093 m 176 1119 q 163 1132 176 1119 q 151 1182 151 1145 q 176 1245 151 1219 q 239 1272 202 1272 q 301 1245 275 1272 q 327 1182 327 1219 q 301 1119 327 1145 q 239 1093 275 1093 q 176 1119 202 1093 m 696 723 q 696 302 696 723 q 606 89 696 177 q 390 0 517 0 q 174 88 262 0 q 84 302 84 177 l 84 723 q 174 936 84 848 q 390 1025 263 1025 q 606 936 517 1025 q 696 723 696 848 m 193 725 l 193 300 q 250 161 193 219 q 390 104 308 104 q 529 161 471 104 q 587 300 587 218 l 587 725 q 529 863 587 806 q 390 921 471 921 q 250 864 308 921 q 193 725 193 806 z "},"×":{"ha":780,"x_min":142,"x_max":637,"o":"m 253 298 l 142 341 l 313 512 l 142 683 l 253 726 l 390 589 l 527 726 l 637 683 l 467 512 l 637 341 l 527 298 l 390 435 l 253 298 z "},"Ø":{"ha":780,"x_min":40,"x_max":741,"o":"m 193 725 l 193 300 q 195 265 193 282 l 524 869 q 390 921 467 921 q 250 864 308 921 q 193 725 193 806 m 696 723 l 696 302 q 606 89 696 177 q 390 0 517 0 q 207 59 286 0 l 138 -67 l 40 -21 l 129 143 q 84 302 84 214 l 84 723 q 174 936 84 848 q 390 1025 263 1025 q 575 964 495 1025 l 643 1088 l 741 1042 l 652 879 q 696 723 696 810 m 585 755 l 258 154 q 390 104 313 104 q 529 161 471 104 q 587 300 587 218 l 587 725 q 585 755 587 741 z "},"Ù":{"ha":780,"x_min":84,"x_max":696,"o":"m 436 1183 l 393 1072 l 199 1261 l 242 1371 l 436 1183 m 84 302 l 84 977 l 193 1025 l 193 300 q 251 161 193 218 q 390 104 309 104 q 530 161 471 104 q 587 298 587 218 q 587 300 587 299 l 587 977 l 696 1025 l 696 302 q 606 89 696 177 q 390 0 517 0 q 174 89 263 0 q 84 302 84 177 z "},"Ú":{"ha":780,"x_min":84,"x_max":696,"o":"m 347 1183 l 541 1371 l 584 1261 l 390 1072 l 347 1183 m 84 302 l 84 977 l 193 1025 l 193 300 q 251 161 193 218 q 390 104 309 104 q 530 161 471 104 q 587 298 587 218 q 587 300 587 299 l 587 977 l 696 1025 l 696 302 q 606 89 696 177 q 390 0 517 0 q 174 89 263 0 q 84 302 84 177 z "},"Û":{"ha":780,"x_min":84,"x_max":696,"o":"m 391 1337 l 566 1177 l 517 1078 l 391 1212 l 259 1078 l 214 1175 l 391 1337 m 84 302 l 84 977 l 193 1025 l 193 300 q 251 161 193 218 q 390 104 309 104 q 530 161 471 104 q 587 298 587 218 q 587 300 587 299 l 587 977 l 696 1025 l 696 302 q 606 89 696 177 q 390 0 517 0 q 174 89 263 0 q 84 302 84 177 z "},"Ü":{"ha":780,"x_min":84,"x_max":696,"o":"m 483 1119 q 470 1132 483 1119 q 457 1182 457 1145 q 483 1245 457 1219 q 545 1272 509 1272 q 608 1245 582 1272 q 633 1182 633 1219 q 608 1119 633 1145 q 545 1093 582 1093 q 483 1119 509 1093 m 176 1119 q 163 1132 176 1119 q 151 1182 151 1145 q 176 1245 151 1219 q 239 1272 202 1272 q 301 1245 275 1272 q 327 1182 327 1219 q 301 1119 327 1145 q 239 1093 275 1093 q 176 1119 202 1093 m 84 302 l 84 977 l 193 1025 l 193 300 q 251 161 193 218 q 390 104 309 104 q 530 161 471 104 q 587 298 587 218 q 587 300 587 299 l 587 977 l 696 1025 l 696 302 q 606 89 696 177 q 390 0 517 0 q 174 89 263 0 q 84 302 84 177 z "},"Ý":{"ha":780,"x_min":84,"x_max":696,"o":"m 347 1183 l 541 1371 l 584 1261 l 390 1072 l 347 1183 m 84 608 l 84 977 l 193 1025 l 193 606 q 251 468 193 525 q 390 410 309 410 q 530 468 471 410 q 587 604 587 525 l 587 606 l 587 977 l 696 1025 l 696 608 q 606 395 696 484 q 444 311 536 326 l 444 47 l 336 0 l 336 311 q 174 395 243 326 q 84 608 84 484 z "},"Þ":{"ha":780,"x_min":106,"x_max":673,"o":"m 106 977 l 215 1025 l 215 818 l 372 818 q 585 728 496 818 q 673 515 673 639 l 673 513 q 585 296 673 384 q 372 206 496 206 l 215 206 l 215 47 l 106 0 l 106 977 m 215 709 l 215 315 l 374 315 q 512 372 454 315 q 570 513 570 430 q 512 651 570 593 q 374 709 454 709 l 215 709 z "},"ß":{"ha":780,"x_min":85,"x_max":694,"o":"m 194 773 l 194 47 l 85 0 l 85 777 q 160 951 87 879 q 349 1025 234 1025 l 351 1025 q 544 950 469 1025 q 621 787 615 880 q 622 767 622 777 q 547 590 621 661 l 543 586 q 606 536 576 566 q 694 319 694 447 q 606 103 694 193 q 393 14 518 14 l 254 14 l 301 122 l 395 122 q 533 180 475 122 q 591 319 591 239 q 533 459 591 401 q 395 517 475 517 l 319 517 l 366 625 q 469 661 435 626 q 511 764 511 705 q 467 868 509 825 q 349 915 421 915 q 237 873 277 915 q 194 773 195 830 z "},"à":{"ha":780,"x_min":132,"x_max":646,"o":"m 433 904 l 389 793 l 195 982 l 239 1093 l 433 904 m 243 199 q 261 153 243 177 q 365 110 294 110 q 441 130 408 110 l 482 28 q 365 0 429 0 q 184 75 263 0 q 132 199 132 129 q 132 205 132 202 q 261 385 132 332 l 537 498 q 494 606 537 562 q 387 650 452 650 q 286 607 330 650 q 243 503 244 566 l 243 493 l 134 445 l 134 505 q 216 686 134 600 q 391 760 285 760 q 571 685 496 760 q 646 505 646 610 l 646 47 l 537 0 l 537 379 l 314 288 q 243 199 243 255 z "},"á":{"ha":780,"x_min":132,"x_max":646,"o":"m 347 904 l 541 1093 l 584 982 l 390 793 l 347 904 m 243 199 q 261 153 243 177 q 365 110 294 110 q 441 130 408 110 l 482 28 q 365 0 429 0 q 184 75 263 0 q 132 199 132 129 q 132 205 132 202 q 261 385 132 332 l 537 498 q 494 606 537 562 q 387 650 452 650 q 286 607 330 650 q 243 503 244 566 l 243 493 l 134 445 l 134 505 q 216 686 134 600 q 391 760 285 760 q 571 685 496 760 q 646 505 646 610 l 646 47 l 537 0 l 537 379 l 314 288 q 243 199 243 255 z "},"â":{"ha":780,"x_min":132,"x_max":646,"o":"m 389 1060 l 564 900 l 515 801 l 389 935 l 257 801 l 212 897 l 389 1060 m 243 199 q 261 153 243 177 q 365 110 294 110 q 441 130 408 110 l 482 28 q 365 0 429 0 q 184 75 263 0 q 132 199 132 129 q 132 205 132 202 q 261 385 132 332 l 537 498 q 494 606 537 562 q 387 650 452 650 q 286 607 330 650 q 243 503 244 566 l 243 493 l 134 445 l 134 505 q 216 686 134 600 q 391 760 285 760 q 571 685 496 760 q 646 505 646 610 l 646 47 l 537 0 l 537 379 l 314 288 q 243 199 243 255 z "},"ã":{"ha":780,"x_min":132,"x_max":646,"o":"m 471 931 l 587 1055 l 636 956 l 462 795 l 326 920 l 204 795 l 159 892 l 336 1055 l 471 931 m 243 199 q 261 153 243 177 q 365 110 294 110 q 441 130 408 110 l 482 28 q 365 0 429 0 q 184 75 263 0 q 132 199 132 129 q 132 205 132 202 q 261 385 132 332 l 537 498 q 494 606 537 562 q 387 650 452 650 q 286 607 330 650 q 243 503 244 566 l 243 493 l 134 445 l 134 505 q 216 686 134 600 q 391 760 285 760 q 571 685 496 760 q 646 505 646 610 l 646 47 l 537 0 l 537 379 l 314 288 q 243 199 243 255 z "},"ä":{"ha":780,"x_min":132,"x_max":646,"o":"m 481 872 q 468 885 481 872 q 455 935 455 898 q 481 999 455 972 q 543 1025 507 1025 q 606 999 580 1025 q 631 935 631 972 q 606 872 631 898 q 543 846 580 846 q 481 872 507 846 m 174 872 q 161 885 174 872 q 149 935 149 898 q 174 999 149 972 q 237 1025 200 1025 q 299 999 273 1025 q 325 935 325 972 q 299 872 325 898 q 237 846 273 846 q 174 872 200 846 m 243 199 q 261 153 243 177 q 365 110 294 110 q 441 130 408 110 l 482 28 q 365 0 429 0 q 184 75 263 0 q 132 199 132 129 q 132 205 132 202 q 261 385 132 332 l 537 498 q 494 606 537 562 q 387 650 452 650 q 286 607 330 650 q 243 503 244 566 l 243 493 l 134 445 l 134 505 q 216 686 134 600 q 391 760 285 760 q 571 685 496 760 q 646 505 646 610 l 646 47 l 537 0 l 537 379 l 314 288 q 243 199 243 255 z "},"å":{"ha":780,"x_min":132,"x_max":646,"o":"m 397 903 q 437 921 418 903 q 455 962 455 938 q 455 964 455 963 q 437 1006 455 990 q 394 1024 417 1024 q 393 1024 393 1024 q 349 1005 368 1024 q 331 964 331 987 q 331 960 331 962 q 351 920 333 936 q 397 903 369 904 m 238 966 q 283 1074 238 1029 q 393 1118 329 1118 q 501 1073 455 1118 q 547 966 547 1028 q 501 858 547 903 q 393 814 456 814 q 281 859 328 814 q 238 966 238 903 m 243 199 q 261 153 243 177 q 365 110 294 110 q 441 130 408 110 l 482 28 q 365 0 429 0 q 184 75 263 0 q 132 199 132 129 q 132 205 132 202 q 261 385 132 332 l 537 498 q 494 606 537 562 q 387 650 452 650 q 286 607 330 650 q 243 503 244 566 l 243 493 l 134 445 l 134 505 q 216 686 134 600 q 391 760 285 760 q 571 685 496 760 q 646 505 646 610 l 646 47 l 537 0 l 537 379 l 314 288 q 243 199 243 255 z "},"æ":{"ha":780,"x_min":64,"x_max":716,"o":"m 607 513 l 606 572 q 583 629 606 607 q 529 653 560 653 q 476 629 498 653 q 454 581 457 609 q 454 572 454 577 l 454 572 l 454 438 l 607 513 m 345 572 q 323 629 345 606 q 271 653 301 653 q 216 629 239 653 q 193 572 195 608 l 193 557 l 84 510 l 84 575 q 138 705 84 648 q 269 760 189 760 q 400 707 349 760 q 530 760 451 760 q 661 705 610 760 q 715 575 715 648 l 716 442 l 454 318 l 454 182 q 476 130 456 152 q 529 106 498 106 q 583 130 560 106 q 606 188 604 151 l 607 202 l 715 250 l 715 184 q 661 54 715 112 q 530 0 610 0 q 422 33 467 0 l 345 0 l 345 178 q 345 187 345 186 l 345 188 l 345 235 l 345 330 l 246 288 q 176 199 176 255 q 193 153 176 177 q 279 111 222 115 l 313 1 q 297 0 305 0 q 117 75 195 0 q 64 199 64 129 l 64 205 q 193 385 64 332 l 345 448 l 345 572 l 345 572 z "},"ç":{"ha":780,"x_min":134,"x_max":646,"o":"m 243 257 q 288 153 243 195 q 393 110 334 110 q 494 153 450 110 q 537 257 536 194 l 537 267 l 646 315 l 646 255 q 564 73 646 160 q 442 5 513 19 l 492 -106 l 495 -226 l 279 -321 l 277 -202 l 396 -153 l 322 8 q 209 75 258 25 q 134 255 134 149 l 134 505 q 209 685 134 610 q 389 760 283 760 q 570 685 496 760 q 646 505 646 610 l 646 498 l 537 449 l 537 503 q 494 607 536 566 q 391 650 450 650 q 286 607 330 650 q 243 505 243 564 l 243 503 l 243 257 z "},"è":{"ha":780,"x_min":134,"x_max":646,"o":"m 433 904 l 389 793 l 195 982 l 239 1093 l 433 904 m 393 110 q 494 153 450 110 q 537 257 536 194 l 537 267 l 646 315 l 646 255 q 564 73 646 160 q 389 0 495 0 q 209 75 283 0 q 134 255 134 149 l 134 505 q 209 685 134 610 q 389 760 283 760 q 570 685 491 760 q 646 505 646 614 l 646 441 l 243 262 q 286 154 243 197 q 393 110 328 110 m 385 650 q 286 607 328 650 q 243 505 243 564 q 243 503 243 503 l 243 380 l 536 511 q 494 607 533 568 q 385 650 450 650 z "},"é":{"ha":780,"x_min":134,"x_max":646,"o":"m 347 904 l 541 1093 l 584 982 l 390 793 l 347 904 m 393 110 q 494 153 450 110 q 537 257 536 194 l 537 267 l 646 315 l 646 255 q 564 73 646 160 q 389 0 495 0 q 209 75 283 0 q 134 255 134 149 l 134 505 q 209 685 134 610 q 389 760 283 760 q 570 685 491 760 q 646 505 646 614 l 646 441 l 243 262 q 286 154 243 197 q 393 110 328 110 m 385 650 q 286 607 328 650 q 243 505 243 564 q 243 503 243 503 l 243 380 l 536 511 q 494 607 533 568 q 385 650 450 650 z "},"ê":{"ha":780,"x_min":134,"x_max":646,"o":"m 389 1060 l 564 900 l 515 801 l 389 935 l 257 801 l 212 897 l 389 1060 m 393 110 q 494 153 450 110 q 537 257 536 194 l 537 267 l 646 315 l 646 255 q 564 73 646 160 q 389 0 495 0 q 209 75 283 0 q 134 255 134 149 l 134 505 q 209 685 134 610 q 389 760 283 760 q 570 685 491 760 q 646 505 646 614 l 646 441 l 243 262 q 286 154 243 197 q 393 110 328 110 m 385 650 q 286 607 328 650 q 243 505 243 564 q 243 503 243 503 l 243 380 l 536 511 q 494 607 533 568 q 385 650 450 650 z "},"ë":{"ha":780,"x_min":134,"x_max":646,"o":"m 481 872 q 468 885 481 872 q 455 935 455 898 q 481 999 455 972 q 543 1025 507 1025 q 606 999 580 1025 q 631 935 631 972 q 606 872 631 898 q 543 846 580 846 q 481 872 507 846 m 174 872 q 161 885 174 872 q 149 935 149 898 q 174 999 149 972 q 237 1025 200 1025 q 299 999 273 1025 q 325 935 325 972 q 299 872 325 898 q 237 846 273 846 q 174 872 200 846 m 393 110 q 494 153 450 110 q 537 257 536 194 l 537 267 l 646 315 l 646 255 q 564 73 646 160 q 389 0 495 0 q 209 75 283 0 q 134 255 134 149 l 134 505 q 209 685 134 610 q 389 760 283 760 q 570 685 491 760 q 646 505 646 614 l 646 441 l 243 262 q 286 154 243 197 q 393 110 328 110 m 385 650 q 286 607 328 650 q 243 505 243 564 q 243 503 243 503 l 243 380 l 536 511 q 494 607 533 568 q 385 650 450 650 z "},"ì":{"ha":780,"x_min":0,"x_max":646,"o":"m 237 904 l 194 793 l 0 982 l 43 1093 l 237 904 m 537 262 l 646 309 l 646 255 q 571 75 646 149 q 391 0 496 0 q 210 75 285 0 q 134 255 134 149 l 134 712 l 243 760 l 243 257 q 286 153 244 194 q 395 110 330 110 q 494 156 452 110 q 537 262 537 202 z "},"í":{"ha":780,"x_min":134,"x_max":646,"o":"m 142 904 l 336 1093 l 379 982 l 185 793 l 142 904 m 537 262 l 646 309 l 646 255 q 571 75 646 149 q 391 0 496 0 q 210 75 285 0 q 134 255 134 149 l 134 712 l 243 760 l 243 257 q 286 153 244 194 q 395 110 330 110 q 494 156 452 110 q 537 262 537 202 z "},"î":{"ha":780,"x_min":12,"x_max":646,"o":"m 189 1059 l 363 899 l 315 800 l 189 933 l 57 800 l 12 896 l 189 1059 m 537 262 l 646 309 l 646 255 q 571 75 646 149 q 391 0 496 0 q 210 75 285 0 q 134 255 134 149 l 134 712 l 243 760 l 243 257 q 286 153 244 194 q 395 110 330 110 q 494 156 452 110 q 537 262 537 202 z "},"ï":{"ha":780,"x_min":-38,"x_max":646,"o":"m 294 872 q 281 885 294 872 q 269 935 269 898 q 294 999 269 972 q 357 1025 320 1025 q 419 999 393 1025 q 445 935 445 972 q 419 872 445 898 q 357 846 393 846 q 294 872 320 846 m -12 872 q -25 885 -12 872 q -38 935 -38 898 q -12 999 -38 972 q 50 1025 14 1025 q 113 999 87 1025 q 138 935 138 972 q 113 872 138 898 q 50 846 87 846 q -12 872 14 846 m 537 262 l 646 309 l 646 255 q 571 75 646 149 q 391 0 496 0 q 210 75 285 0 q 134 255 134 149 l 134 712 l 243 760 l 243 257 q 286 153 244 194 q 395 110 330 110 q 494 156 452 110 q 537 262 537 202 z "},"ð":{"ha":780,"x_min":134,"x_max":717,"o":"m 243 503 l 243 257 l 243 253 q 286 153 243 195 q 385 110 328 110 q 494 153 450 110 q 537 257 536 194 l 537 503 q 494 607 536 566 q 393 650 450 650 q 288 607 334 650 q 243 503 243 565 m 442 1026 q 570 956 515 1011 l 574 953 l 717 1006 l 709 887 l 633 859 q 646 776 646 820 l 646 255 q 570 75 646 149 q 389 0 495 0 q 209 75 283 0 q 134 255 134 149 l 134 505 q 209 685 134 610 q 389 760 283 760 q 537 713 473 760 l 537 774 q 530 821 536 799 l 404 774 l 412 893 l 452 908 q 410 920 432 918 l 442 1026 z "},"ñ":{"ha":780,"x_min":134,"x_max":646,"o":"m 471 931 l 587 1055 l 636 956 l 462 795 l 326 920 l 204 795 l 159 892 l 336 1055 l 471 931 m 391 650 q 286 606 330 650 q 243 505 243 564 q 243 503 243 503 l 243 47 l 134 0 l 134 505 q 209 685 134 610 q 389 760 283 760 q 570 685 495 760 q 646 505 646 610 l 646 47 l 537 0 l 537 503 q 494 607 536 566 q 391 650 450 650 z "},"ò":{"ha":780,"x_min":134,"x_max":646,"o":"m 433 904 l 389 793 l 195 982 l 239 1093 l 433 904 m 243 257 q 288 153 243 195 q 393 110 334 110 q 494 153 450 110 q 537 257 536 194 l 537 503 q 494 607 536 566 q 385 650 450 650 q 286 607 328 650 q 243 507 243 565 l 243 503 l 243 257 m 134 505 q 209 685 134 610 q 389 760 283 760 q 570 685 495 760 q 646 505 646 610 l 646 255 q 570 75 646 149 q 389 0 495 0 q 209 75 283 0 q 134 255 134 149 l 134 505 z "},"ó":{"ha":780,"x_min":134,"x_max":646,"o":"m 347 904 l 541 1093 l 584 982 l 390 793 l 347 904 m 391 650 q 286 607 330 650 q 243 505 243 564 q 243 503 243 503 l 243 257 l 243 255 q 243 253 243 254 q 288 153 243 195 q 393 110 334 110 q 494 153 450 110 q 537 257 536 194 l 537 503 q 494 607 536 566 q 391 650 450 650 m 134 505 q 209 685 134 610 q 389 760 283 760 q 570 685 495 760 q 646 505 646 610 l 646 255 q 570 75 646 149 q 389 0 495 0 q 209 75 283 0 q 134 255 134 149 l 134 505 z "},"ô":{"ha":780,"x_min":134,"x_max":646,"o":"m 389 1060 l 564 900 l 515 801 l 389 935 l 257 801 l 212 897 l 389 1060 m 243 257 q 288 153 243 195 q 393 110 334 110 q 494 153 450 110 q 537 257 536 194 l 537 503 q 494 607 536 566 q 385 650 450 650 q 286 607 328 650 q 243 507 243 565 l 243 503 l 243 257 m 134 505 q 209 685 134 610 q 389 760 283 760 q 570 685 495 760 q 646 505 646 610 l 646 255 q 570 75 646 149 q 389 0 495 0 q 209 75 283 0 q 134 255 134 149 l 134 505 z "},"õ":{"ha":780,"x_min":134,"x_max":646,"o":"m 471 931 l 587 1055 l 636 956 l 462 795 l 326 920 l 204 795 l 159 892 l 336 1055 l 471 931 m 243 257 q 288 153 243 195 q 393 110 334 110 q 494 153 450 110 q 537 257 536 194 l 537 503 q 494 607 536 566 q 385 650 450 650 q 286 607 328 650 q 243 507 243 565 l 243 503 l 243 257 m 134 505 q 209 685 134 610 q 389 760 283 760 q 570 685 495 760 q 646 505 646 610 l 646 255 q 570 75 646 149 q 389 0 495 0 q 209 75 283 0 q 134 255 134 149 l 134 505 z "},"ö":{"ha":780,"x_min":134,"x_max":646,"o":"m 481 872 q 468 885 481 872 q 455 935 455 898 q 481 999 455 972 q 543 1025 507 1025 q 606 999 580 1025 q 631 935 631 972 q 606 872 631 898 q 543 846 580 846 q 481 872 507 846 m 174 872 q 161 885 174 872 q 149 935 149 898 q 174 999 149 972 q 237 1025 200 1025 q 299 999 273 1025 q 325 935 325 972 q 299 872 325 898 q 237 846 273 846 q 174 872 200 846 m 243 257 q 288 153 243 195 q 393 110 334 110 q 494 153 450 110 q 537 257 536 194 l 537 503 q 494 607 536 566 q 385 650 450 650 q 286 607 328 650 q 243 507 243 565 l 243 503 l 243 257 m 134 505 q 209 685 134 610 q 389 760 283 760 q 570 685 495 760 q 646 505 646 610 l 646 255 q 570 75 646 149 q 389 0 495 0 q 209 75 283 0 q 134 255 134 149 l 134 505 z "},"÷":{"ha":780,"x_min":94,"x_max":686,"o":"m 142 566 l 686 566 l 638 458 l 94 458 l 142 566 m 328 181 q 315 194 328 181 q 302 244 302 207 q 328 308 302 281 q 390 334 353 334 q 452 308 427 334 q 478 244 478 281 q 452 181 478 207 q 390 155 427 155 q 328 181 353 155 m 328 708 q 315 721 328 708 q 302 771 302 734 q 328 834 302 808 q 390 861 353 861 q 452 834 427 861 q 478 771 478 808 q 452 708 478 734 q 390 682 427 682 q 328 708 353 682 z "},"ø":{"ha":780,"x_min":40,"x_max":739,"o":"m 134 505 q 209 685 134 610 q 389 760 283 760 q 552 702 482 760 l 641 827 l 739 781 l 621 614 q 646 505 646 565 l 646 255 q 570 75 646 149 q 389 0 495 0 q 227 58 296 0 l 138 -67 l 40 -21 l 158 146 q 134 255 134 195 l 134 505 m 243 265 l 488 612 q 385 650 446 650 q 286 607 328 650 q 243 507 243 565 l 243 503 l 243 265 m 537 496 l 292 149 q 393 110 336 110 q 494 153 450 110 q 537 257 536 194 l 537 496 z "},"ù":{"ha":780,"x_min":134,"x_max":646,"o":"m 433 904 l 389 793 l 195 982 l 239 1093 l 433 904 m 395 110 q 494 153 452 110 q 537 255 537 195 q 537 257 537 256 l 537 712 q 646 760 537 712 l 646 255 q 571 75 646 149 q 391 0 496 0 q 210 75 285 0 q 134 255 134 149 l 134 712 l 243 760 l 243 257 q 286 153 244 194 q 395 110 330 110 z "},"ú":{"ha":780,"x_min":134,"x_max":646,"o":"m 347 904 l 541 1093 l 584 982 l 390 793 l 347 904 m 395 110 q 494 153 452 110 q 537 255 537 195 q 537 257 537 256 l 537 712 q 646 760 537 712 l 646 255 q 571 75 646 149 q 391 0 496 0 q 210 75 285 0 q 134 255 134 149 l 134 712 l 243 760 l 243 257 q 286 153 244 194 q 395 110 330 110 z "},"û":{"ha":780,"x_min":134,"x_max":646,"o":"m 389 1060 l 564 900 l 515 801 l 389 935 l 257 801 l 212 897 l 389 1060 m 395 110 q 494 153 452 110 q 537 255 537 195 q 537 257 537 256 l 537 712 q 646 760 537 712 l 646 255 q 571 75 646 149 q 391 0 496 0 q 210 75 285 0 q 134 255 134 149 l 134 712 l 243 760 l 243 257 q 286 153 244 194 q 395 110 330 110 z "},"ü":{"ha":780,"x_min":134,"x_max":646,"o":"m 481 872 q 468 885 481 872 q 455 935 455 898 q 481 999 455 972 q 543 1025 507 1025 q 606 999 580 1025 q 631 935 631 972 q 606 872 631 898 q 543 846 580 846 q 481 872 507 846 m 174 872 q 161 885 174 872 q 149 935 149 898 q 174 999 149 972 q 237 1025 200 1025 q 299 999 273 1025 q 325 935 325 972 q 299 872 325 898 q 237 846 273 846 q 174 872 200 846 m 395 110 q 494 153 452 110 q 537 255 537 195 q 537 257 537 256 l 537 712 q 646 760 537 712 l 646 255 q 571 75 646 149 q 391 0 496 0 q 210 75 285 0 q 134 255 134 149 l 134 712 l 243 760 l 243 257 q 286 153 244 194 q 395 110 330 110 z "},"ý":{"ha":780,"x_min":134,"x_max":646,"o":"m 347 904 l 541 1093 l 584 982 l 390 793 l 347 904 m 537 -14 l 537 45 q 391 0 473 0 q 210 75 285 0 q 134 255 134 149 l 134 712 l 243 760 l 243 257 q 286 153 244 194 q 395 110 330 110 q 494 153 452 110 q 537 253 536 195 l 537 257 l 537 712 l 646 760 l 646 -16 q 570 -197 646 -122 q 389 -271 495 -271 q 209 -197 283 -271 q 144 -90 161 -149 l 252 -66 q 288 -119 263 -96 q 393 -161 335 -161 q 494 -119 450 -161 q 537 -14 536 -77 z "},"þ":{"ha":780,"x_min":134,"x_max":646,"o":"m 243 507 q 243 257 243 507 q 288 153 243 195 q 393 110 334 110 q 494 153 450 110 q 537 257 536 194 l 537 503 q 494 607 536 566 q 385 650 450 650 q 286 607 328 650 q 243 507 243 565 m 134 -265 l 134 977 l 243 1025 l 243 713 q 391 760 307 760 q 571 685 496 760 q 646 505 646 610 l 646 255 q 571 75 646 149 q 391 0 496 0 q 243 46 307 0 l 243 -218 l 134 -265 z "},"ÿ":{"ha":780,"x_min":134,"x_max":646,"o":"m 481 872 q 468 885 481 872 q 455 935 455 898 q 481 999 455 972 q 543 1025 507 1025 q 606 999 580 1025 q 631 935 631 972 q 606 872 631 898 q 543 846 580 846 q 481 872 507 846 m 174 872 q 161 885 174 872 q 149 935 149 898 q 174 999 149 972 q 237 1025 200 1025 q 299 999 273 1025 q 325 935 325 972 q 299 872 325 898 q 237 846 273 846 q 174 872 200 846 m 537 -14 l 537 45 q 391 0 473 0 q 210 75 285 0 q 134 255 134 149 l 134 712 l 243 760 l 243 257 q 286 153 244 194 q 395 110 330 110 q 494 153 452 110 q 537 253 536 195 l 537 257 l 537 712 l 646 760 l 646 -16 q 570 -197 646 -122 q 389 -271 495 -271 q 209 -197 283 -271 q 144 -90 161 -149 l 252 -66 q 288 -119 263 -96 q 393 -161 335 -161 q 494 -119 450 -161 q 537 -14 536 -77 z "},"Ā":{"ha":780,"x_min":84,"x_max":696,"o":"m 198 1227 l 629 1227 l 582 1119 l 151 1119 l 198 1227 m 696 723 l 696 47 l 587 0 l 587 458 l 193 458 l 193 47 l 84 0 l 84 723 q 174 936 84 848 q 390 1025 263 1025 q 606 936 517 1025 q 696 723 696 848 m 193 566 l 587 566 l 587 725 q 529 863 587 806 q 390 921 471 921 q 250 863 309 921 q 193 727 193 806 l 193 725 l 193 566 z "},"ā":{"ha":780,"x_min":132,"x_max":646,"o":"m 202 963 l 633 963 l 586 854 l 155 854 l 202 963 m 243 199 q 261 153 243 177 q 365 110 294 110 q 441 130 408 110 l 482 28 q 365 0 429 0 q 184 75 263 0 q 132 199 132 129 q 132 205 132 202 q 261 385 132 332 l 537 498 q 494 606 537 562 q 387 650 452 650 q 286 607 330 650 q 243 503 244 566 l 243 493 l 134 445 l 134 505 q 216 686 134 600 q 391 760 285 760 q 571 685 496 760 q 646 505 646 610 l 646 47 l 537 0 l 537 379 l 314 288 q 243 199 243 255 z "},"Ă":{"ha":780,"x_min":84,"x_max":696,"o":"m 281 1252 q 299 1232 282 1248 q 389 1196 336 1196 q 477 1232 441 1196 q 497 1256 489 1243 l 586 1207 q 549 1161 571 1183 q 388 1095 484 1095 q 227 1161 294 1095 q 191 1203 202 1185 l 281 1252 m 696 723 l 696 47 l 587 0 l 587 458 l 193 458 l 193 47 l 84 0 l 84 723 q 174 936 84 848 q 390 1025 263 1025 q 606 936 517 1025 q 696 723 696 848 m 193 566 l 587 566 l 587 725 q 529 863 587 806 q 390 921 471 921 q 250 863 309 921 q 193 727 193 806 l 193 725 l 193 566 z "},"ă":{"ha":780,"x_min":132,"x_max":646,"o":"m 286 1015 q 304 995 288 1011 q 394 959 342 959 q 483 995 447 959 q 503 1019 494 1006 l 591 970 q 555 924 576 946 q 393 859 489 859 q 232 924 297 859 q 197 966 208 948 l 286 1015 m 243 199 q 261 153 243 177 q 365 110 294 110 q 441 130 408 110 l 482 28 q 365 0 429 0 q 184 75 263 0 q 132 199 132 129 q 132 205 132 202 q 261 385 132 332 l 537 498 q 494 606 537 562 q 387 650 452 650 q 286 607 330 650 q 243 503 244 566 l 243 493 l 134 445 l 134 505 q 216 686 134 600 q 391 760 285 760 q 571 685 496 760 q 646 505 646 610 l 646 47 l 537 0 l 537 379 l 314 288 q 243 199 243 255 z "},"Ą":{"ha":780,"x_min":84,"x_max":761,"o":"m 193 566 l 587 566 l 587 725 q 529 863 587 806 q 391 921 471 921 q 251 863 310 921 q 193 727 193 806 l 193 725 l 193 566 m 761 -158 l 757 -277 l 541 -182 l 544 -62 l 587 33 l 587 458 l 193 458 l 193 47 l 84 0 l 84 723 q 174 936 84 847 q 390 1025 263 1025 q 606 936 516 1025 q 696 723 696 848 l 696 94 l 722 65 l 642 -109 l 761 -158 z "},"ą":{"ha":780,"x_min":132,"x_max":708,"o":"m 537 498 q 494 607 537 564 q 387 650 452 650 q 286 608 329 650 q 243 503 244 566 l 243 494 l 134 446 l 134 505 q 216 687 134 601 q 391 760 285 760 q 571 686 496 760 q 646 505 646 611 l 646 92 l 669 66 l 589 -107 l 708 -157 l 704 -275 l 488 -180 l 491 -61 l 537 40 l 537 380 l 314 289 q 243 200 243 256 q 261 154 243 178 q 365 111 294 111 q 441 131 408 111 l 482 28 q 365 1 429 1 q 184 75 263 1 q 132 200 132 130 q 132 205 132 203 q 261 385 132 332 l 537 498 z "},"Ć":{"ha":780,"x_min":84,"x_max":696,"o":"m 347 1183 l 541 1371 l 584 1261 l 390 1072 l 347 1183 m 696 358 l 696 302 q 606 89 696 177 q 390 0 517 0 q 174 88 262 0 q 84 302 84 177 l 84 723 q 174 936 84 848 q 390 1025 263 1025 q 606 936 518 1025 q 696 723 696 846 l 696 717 l 587 667 l 587 725 q 529 863 587 806 q 390 921 471 921 q 250 864 308 921 q 193 725 193 806 l 193 300 q 250 161 193 219 q 390 104 308 104 q 529 161 471 104 q 587 300 587 218 l 587 308 l 696 358 z "},"ć":{"ha":780,"x_min":134,"x_max":646,"o":"m 347 904 l 541 1093 l 584 982 l 390 793 l 347 904 m 243 257 q 288 153 243 195 q 393 110 334 110 q 494 153 450 110 q 537 257 536 194 l 537 267 l 646 315 l 646 255 q 564 73 646 160 q 389 0 495 0 q 209 75 283 0 q 134 255 134 149 l 134 505 q 209 685 134 610 q 389 760 283 760 q 570 685 496 760 q 646 505 646 610 l 646 498 l 537 449 l 537 503 q 494 607 536 566 q 391 650 450 650 q 286 607 330 650 q 243 505 243 564 q 243 503 243 503 l 243 257 z "},"Ĉ":{"ha":780,"x_min":84,"x_max":696,"o":"m 391 1337 l 566 1177 l 517 1078 l 391 1212 l 259 1078 l 214 1175 l 391 1337 m 696 358 l 696 302 q 606 89 696 177 q 390 0 517 0 q 174 88 262 0 q 84 302 84 177 l 84 723 q 174 936 84 848 q 390 1025 263 1025 q 606 936 518 1025 q 696 723 696 846 l 696 717 l 587 667 l 587 725 q 529 863 587 806 q 390 921 471 921 q 250 864 308 921 q 193 725 193 806 l 193 300 q 250 161 193 219 q 390 104 308 104 q 529 161 471 104 q 587 300 587 218 l 587 308 l 696 358 z "},"ĉ":{"ha":780,"x_min":134,"x_max":646,"o":"m 389 1060 l 564 900 l 515 801 l 389 935 l 257 801 l 212 897 l 389 1060 m 243 257 q 288 153 243 195 q 393 110 334 110 q 494 153 450 110 q 537 257 536 194 l 537 267 l 646 315 l 646 255 q 564 73 646 160 q 389 0 495 0 q 209 75 283 0 q 134 255 134 149 l 134 505 q 209 685 134 610 q 389 760 283 760 q 570 685 496 760 q 646 505 646 610 l 646 498 l 537 449 l 537 503 q 494 607 536 566 q 391 650 450 650 q 286 607 330 650 q 243 505 243 564 q 243 503 243 503 l 243 257 z "},"Ċ":{"ha":780,"x_min":84,"x_max":696,"o":"m 328 1119 q 315 1132 328 1119 q 302 1182 302 1145 q 328 1245 302 1219 q 390 1272 353 1272 q 452 1245 427 1272 q 478 1182 478 1219 q 452 1119 478 1145 q 390 1093 427 1093 q 328 1119 353 1093 m 696 358 l 696 302 q 606 89 696 177 q 390 0 517 0 q 174 88 262 0 q 84 302 84 177 l 84 723 q 174 936 84 848 q 390 1025 263 1025 q 606 936 518 1025 q 696 723 696 846 l 696 717 l 587 667 l 587 725 q 529 863 587 806 q 390 921 471 921 q 250 864 308 921 q 193 725 193 806 l 193 300 q 250 161 193 219 q 390 104 308 104 q 529 161 471 104 q 587 300 587 218 l 587 308 l 696 358 z "},"ċ":{"ha":780,"x_min":134,"x_max":646,"o":"m 328 872 q 315 885 328 872 q 302 935 302 898 q 328 999 302 972 q 390 1025 353 1025 q 452 999 427 1025 q 478 935 478 972 q 452 872 478 898 q 390 846 427 846 q 328 872 353 846 m 243 257 q 288 153 243 195 q 393 110 334 110 q 494 153 450 110 q 537 257 536 194 l 537 267 l 646 315 l 646 255 q 564 73 646 160 q 389 0 495 0 q 209 75 283 0 q 134 255 134 149 l 134 505 q 209 685 134 610 q 389 760 283 760 q 570 685 496 760 q 646 505 646 610 l 646 498 l 537 449 l 537 503 q 494 607 536 566 q 391 650 450 650 q 286 607 330 650 q 243 505 243 564 q 243 503 243 503 l 243 257 z "},"Č":{"ha":780,"x_min":84,"x_max":696,"o":"m 391 1078 l 214 1241 l 259 1337 l 391 1204 l 517 1337 l 566 1238 l 391 1078 m 696 358 l 696 302 q 606 89 696 177 q 390 0 517 0 q 174 88 262 0 q 84 302 84 177 l 84 723 q 174 936 84 848 q 390 1025 263 1025 q 606 936 518 1025 q 696 723 696 846 l 696 717 l 587 667 l 587 725 q 529 863 587 806 q 390 921 471 921 q 250 864 308 921 q 193 725 193 806 l 193 300 q 250 161 193 219 q 390 104 308 104 q 529 161 471 104 q 587 300 587 218 l 587 308 l 696 358 z "},"č":{"ha":780,"x_min":134,"x_max":646,"o":"m 389 799 l 212 962 l 257 1058 l 389 924 l 515 1058 l 564 959 l 389 799 m 243 257 q 288 153 243 195 q 393 110 334 110 q 494 153 450 110 q 537 257 536 194 l 537 267 l 646 315 l 646 255 q 564 73 646 160 q 389 0 495 0 q 209 75 283 0 q 134 255 134 149 l 134 505 q 209 685 134 610 q 389 760 283 760 q 570 685 496 760 q 646 505 646 610 l 646 498 l 537 449 l 537 503 q 494 607 536 566 q 391 650 450 650 q 286 607 330 650 q 243 505 243 564 q 243 503 243 503 l 243 257 z "},"Ď":{"ha":780,"x_min":83,"x_max":696,"o":"m 391 1078 l 214 1241 l 259 1337 l 391 1204 l 517 1337 l 566 1238 l 391 1078 m 192 907 l 192 117 l 390 117 l 391 117 q 530 175 471 117 q 588 313 588 232 l 588 712 q 530 850 588 793 q 391 908 471 908 l 390 908 l 192 907 m 390 14 l 83 14 l 83 964 l 192 1012 l 390 1012 l 391 1012 q 607 923 517 1012 q 696 710 696 835 l 696 315 q 607 102 696 191 q 391 14 517 14 l 390 14 z "},"ď":{"ha":780,"x_min":5,"x_max":774,"o":"m 537 902 l 731 1090 l 774 980 l 581 791 l 537 902 m 114 257 q 159 153 114 194 q 264 110 205 110 q 365 153 322 110 q 408 257 407 195 l 408 503 q 365 607 407 566 q 256 650 321 650 q 156 607 198 650 q 114 507 115 565 l 114 503 l 114 257 m 517 1025 l 517 255 q 441 75 517 149 q 260 0 366 0 q 80 75 155 0 q 5 255 5 149 l 5 505 q 80 685 5 610 q 260 760 155 760 q 408 713 343 760 l 408 977 l 517 1025 z "},"Đ":{"ha":780,"x_min":19,"x_max":696,"o":"m 390 1012 l 391 1012 q 607 923 517 1012 q 696 710 696 835 l 696 315 q 607 102 696 191 q 391 14 517 14 l 390 14 l 83 14 l 83 458 l 19 458 l 66 566 l 83 566 l 83 964 l 192 1012 l 390 1012 m 391 117 q 530 175 471 117 q 588 313 588 232 l 588 712 q 530 850 588 793 q 391 908 471 908 l 390 908 l 192 907 l 192 566 l 463 566 l 416 458 l 192 458 l 192 117 l 390 117 l 391 117 z "},"đ":{"ha":780,"x_min":134,"x_max":755,"o":"m 243 257 q 288 153 243 195 q 393 110 334 110 q 494 153 450 110 q 537 257 536 194 l 537 503 q 494 607 536 566 q 385 650 450 650 q 286 607 328 650 q 243 507 243 565 l 243 503 l 243 257 m 755 965 l 708 857 l 646 857 l 646 255 q 570 75 646 149 q 389 0 495 0 q 209 75 283 0 q 134 255 134 149 l 134 505 q 209 685 134 610 q 389 760 283 760 q 537 713 473 760 l 537 857 l 277 857 l 324 965 l 537 965 l 537 977 l 646 1025 l 646 965 l 755 965 z "},"Ē":{"ha":780,"x_min":138,"x_max":730,"o":"m 198 1227 l 629 1227 l 582 1119 l 151 1119 l 198 1227 m 247 458 l 247 122 l 730 122 l 682 14 l 138 14 l 138 964 l 247 1012 l 642 1011 l 594 903 l 247 903 l 247 566 l 642 566 l 594 458 l 247 458 z "},"ē":{"ha":780,"x_min":134,"x_max":646,"o":"m 202 963 l 633 963 l 586 854 l 155 854 l 202 963 m 393 110 q 494 153 450 110 q 537 257 536 194 l 537 267 l 646 315 l 646 255 q 564 73 646 160 q 389 0 495 0 q 209 75 283 0 q 134 255 134 149 l 134 505 q 209 685 134 610 q 389 760 283 760 q 570 685 491 760 q 646 505 646 614 l 646 441 l 243 262 q 286 154 243 197 q 393 110 328 110 m 385 650 q 286 607 328 650 q 243 505 243 564 q 243 503 243 503 l 243 380 l 536 511 q 494 607 533 568 q 385 650 450 650 z "},"Ĕ":{"ha":780,"x_min":138,"x_max":730,"o":"m 281 1252 q 299 1232 282 1248 q 389 1196 336 1196 q 477 1232 441 1196 q 497 1256 489 1243 l 586 1207 q 549 1161 571 1183 q 388 1095 484 1095 q 227 1161 294 1095 q 191 1203 202 1185 l 281 1252 m 247 458 l 247 122 l 730 122 l 682 14 l 138 14 l 138 964 l 247 1012 l 642 1011 l 594 903 l 247 903 l 247 566 l 642 566 l 594 458 l 247 458 z "},"ĕ":{"ha":780,"x_min":134,"x_max":646,"o":"m 286 1015 q 304 995 288 1011 q 394 959 342 959 q 483 995 447 959 q 503 1019 494 1006 l 591 970 q 555 924 576 946 q 393 859 489 859 q 232 924 297 859 q 197 966 208 948 l 286 1015 m 393 110 q 494 153 450 110 q 537 257 536 194 l 537 267 l 646 315 l 646 255 q 564 73 646 160 q 389 0 495 0 q 209 75 283 0 q 134 255 134 149 l 134 505 q 209 685 134 610 q 389 760 283 760 q 570 685 491 760 q 646 505 646 614 l 646 441 l 243 262 q 286 154 243 197 q 393 110 328 110 m 385 650 q 286 607 328 650 q 243 505 243 564 q 243 503 243 503 l 243 380 l 536 511 q 494 607 533 568 q 385 650 450 650 z "},"Ė":{"ha":780,"x_min":138,"x_max":730,"o":"m 328 1119 q 315 1132 328 1119 q 302 1182 302 1145 q 328 1245 302 1219 q 390 1272 353 1272 q 452 1245 427 1272 q 478 1182 478 1219 q 452 1119 478 1145 q 390 1093 427 1093 q 328 1119 353 1093 m 247 458 l 247 122 l 730 122 l 682 14 l 138 14 l 138 964 l 247 1012 l 642 1011 l 594 903 l 247 903 l 247 566 l 642 566 l 594 458 l 247 458 z "},"ė":{"ha":780,"x_min":134,"x_max":646,"o":"m 328 872 q 315 885 328 872 q 302 935 302 898 q 328 999 302 972 q 390 1025 353 1025 q 452 999 427 1025 q 478 935 478 972 q 452 872 478 898 q 390 846 427 846 q 328 872 353 846 m 393 110 q 494 153 450 110 q 537 257 536 194 l 537 267 l 646 315 l 646 255 q 564 73 646 160 q 389 0 495 0 q 209 75 283 0 q 134 255 134 149 l 134 505 q 209 685 134 610 q 389 760 283 760 q 570 685 491 760 q 646 505 646 614 l 646 441 l 243 262 q 286 154 243 197 q 393 110 328 110 m 385 650 q 286 607 328 650 q 243 505 243 564 q 243 503 243 503 l 243 380 l 536 511 q 494 607 533 568 q 385 650 450 650 z "},"Ę":{"ha":780,"x_min":138,"x_max":749,"o":"m 730 122 l 629 -107 l 749 -157 l 745 -275 l 530 -180 l 532 -60 l 567 14 l 138 14 l 138 964 l 247 1012 l 642 1011 l 594 903 l 247 903 l 247 566 l 642 566 l 594 458 l 247 458 l 247 122 l 730 122 z "},"ę":{"ha":780,"x_min":134,"x_max":662,"o":"m 385 650 q 286 607 328 650 q 243 505 243 564 l 243 503 l 243 380 l 536 511 q 494 607 533 568 q 385 650 450 650 m 393 110 q 494 153 451 110 q 537 257 536 195 l 537 267 l 646 315 l 646 255 q 590 105 646 177 l 623 68 l 543 -105 l 662 -155 l 659 -273 l 444 -178 l 446 -59 l 480 16 q 389 0 438 0 q 209 75 283 0 q 134 255 134 149 l 134 505 q 209 685 134 610 q 389 760 283 760 q 570 685 490 760 q 646 505 646 614 l 646 441 l 243 262 q 286 154 243 197 q 393 110 328 110 z "},"Ě":{"ha":780,"x_min":138,"x_max":730,"o":"m 391 1078 l 214 1241 l 259 1337 l 391 1204 l 517 1337 l 566 1238 l 391 1078 m 247 458 l 247 122 l 730 122 l 682 14 l 138 14 l 138 964 l 247 1012 l 642 1011 l 594 903 l 247 903 l 247 566 l 642 566 l 594 458 l 247 458 z "},"ě":{"ha":780,"x_min":134,"x_max":646,"o":"m 389 799 l 212 962 l 257 1058 l 389 924 l 515 1058 l 564 959 l 389 799 m 393 110 q 494 153 450 110 q 537 257 536 194 l 537 267 l 646 315 l 646 255 q 564 73 646 160 q 389 0 495 0 q 209 75 283 0 q 134 255 134 149 l 134 505 q 209 685 134 610 q 389 760 283 760 q 570 685 491 760 q 646 505 646 614 l 646 441 l 243 262 q 286 154 243 197 q 393 110 328 110 m 385 650 q 286 607 328 650 q 243 505 243 564 q 243 503 243 503 l 243 380 l 536 511 q 494 607 533 568 q 385 650 450 650 z "},"Ĝ":{"ha":780,"x_min":84,"x_max":696,"o":"m 391 1337 l 566 1177 l 517 1078 l 391 1212 l 259 1078 l 214 1175 l 391 1337 m 696 566 l 696 302 q 606 89 696 177 q 390 0 517 0 q 174 88 262 0 q 84 302 84 177 l 84 723 q 174 936 84 848 q 390 1025 263 1025 q 606 936 518 1025 q 696 723 696 846 l 696 717 l 587 667 l 587 725 q 529 863 587 806 q 390 921 471 921 q 250 864 308 921 q 193 725 193 806 l 193 300 q 250 161 193 219 q 390 104 308 104 q 529 161 468 104 q 587 300 587 217 l 587 458 l 386 458 l 433 566 l 696 566 z "},"ĝ":{"ha":780,"x_min":134,"x_max":646,"o":"m 389 1060 l 564 900 l 515 801 l 389 935 l 257 801 l 212 897 l 389 1060 m 537 -14 l 537 46 q 389 0 473 0 q 209 75 283 0 q 134 255 134 149 l 134 505 q 209 685 134 610 q 389 760 283 760 q 570 685 495 760 q 646 505 646 610 l 646 -16 q 570 -197 646 -122 q 389 -271 495 -271 q 209 -197 283 -271 q 144 -90 161 -149 l 252 -66 q 288 -119 263 -96 q 393 -161 335 -161 q 494 -119 450 -161 q 537 -14 536 -77 m 243 257 q 288 153 243 195 q 393 110 334 110 q 494 153 450 110 q 537 257 536 194 l 537 503 q 494 607 536 566 q 385 650 450 650 q 286 607 328 650 q 243 507 243 565 l 243 503 l 243 257 z "},"Ğ":{"ha":780,"x_min":84,"x_max":696,"o":"m 281 1252 q 299 1232 282 1248 q 389 1196 336 1196 q 477 1232 441 1196 q 497 1256 489 1243 l 586 1207 q 549 1161 571 1183 q 388 1095 484 1095 q 227 1161 294 1095 q 191 1203 202 1185 l 281 1252 m 696 566 l 696 302 q 606 89 696 177 q 390 0 517 0 q 174 88 262 0 q 84 302 84 177 l 84 723 q 174 936 84 848 q 390 1025 263 1025 q 606 936 518 1025 q 696 723 696 846 l 696 717 l 587 667 l 587 725 q 529 863 587 806 q 390 921 471 921 q 250 864 308 921 q 193 725 193 806 l 193 300 q 250 161 193 219 q 390 104 308 104 q 529 161 468 104 q 587 300 587 217 l 587 458 l 386 458 l 433 566 l 696 566 z "},"ğ":{"ha":780,"x_min":134,"x_max":646,"o":"m 286 1015 q 304 995 288 1011 q 394 959 342 959 q 483 995 447 959 q 503 1019 494 1006 l 591 970 q 555 924 576 946 q 393 859 489 859 q 232 924 297 859 q 197 966 208 948 l 286 1015 m 537 -14 l 537 46 q 389 0 473 0 q 209 75 283 0 q 134 255 134 149 l 134 505 q 209 685 134 610 q 389 760 283 760 q 570 685 495 760 q 646 505 646 610 l 646 -16 q 570 -197 646 -122 q 389 -271 495 -271 q 209 -197 283 -271 q 144 -90 161 -149 l 252 -66 q 288 -119 263 -96 q 393 -161 335 -161 q 494 -119 450 -161 q 537 -14 536 -77 m 243 257 q 288 153 243 195 q 393 110 334 110 q 494 153 450 110 q 537 257 536 194 l 537 503 q 494 607 536 566 q 385 650 450 650 q 286 607 328 650 q 243 507 243 565 l 243 503 l 243 257 z "},"Ġ":{"ha":780,"x_min":84,"x_max":696,"o":"m 328 1119 q 315 1132 328 1119 q 302 1182 302 1145 q 328 1245 302 1219 q 390 1272 353 1272 q 452 1245 427 1272 q 478 1182 478 1219 q 452 1119 478 1145 q 390 1093 427 1093 q 328 1119 353 1093 m 696 566 l 696 302 q 606 89 696 177 q 390 0 517 0 q 174 88 262 0 q 84 302 84 177 l 84 723 q 174 936 84 848 q 390 1025 263 1025 q 606 936 518 1025 q 696 723 696 846 l 696 717 l 587 667 l 587 725 q 529 863 587 806 q 390 921 471 921 q 250 864 308 921 q 193 725 193 806 l 193 300 q 250 161 193 219 q 390 104 308 104 q 529 161 468 104 q 587 300 587 217 l 587 458 l 386 458 l 433 566 l 696 566 z "},"ġ":{"ha":780,"x_min":134,"x_max":646,"o":"m 328 872 q 315 885 328 872 q 302 935 302 898 q 328 999 302 972 q 390 1025 353 1025 q 452 999 427 1025 q 478 935 478 972 q 452 872 478 898 q 390 846 427 846 q 328 872 353 846 m 537 -14 l 537 46 q 389 0 473 0 q 209 75 283 0 q 134 255 134 149 l 134 505 q 209 685 134 610 q 389 760 283 760 q 570 685 495 760 q 646 505 646 610 l 646 -16 q 570 -197 646 -122 q 389 -271 495 -271 q 209 -197 283 -271 q 144 -90 161 -149 l 252 -66 q 288 -119 263 -96 q 393 -161 335 -161 q 494 -119 450 -161 q 537 -14 536 -77 m 243 257 q 288 153 243 195 q 393 110 334 110 q 494 153 450 110 q 537 257 536 194 l 537 503 q 494 607 536 566 q 385 650 450 650 q 286 607 328 650 q 243 507 243 565 l 243 503 l 243 257 z "},"Ģ":{"ha":780,"x_min":84,"x_max":696,"o":"m 197 -217 l 391 -28 l 434 -139 l 240 -328 l 197 -217 m 696 566 l 696 302 q 606 89 696 177 q 390 0 517 0 q 174 88 262 0 q 84 302 84 177 l 84 723 q 174 936 84 848 q 390 1025 263 1025 q 606 936 518 1025 q 696 723 696 846 l 696 717 l 587 667 l 587 725 q 529 863 587 806 q 390 921 471 921 q 250 864 308 921 q 193 725 193 806 l 193 300 q 250 161 193 219 q 390 104 308 104 q 529 161 468 104 q 587 300 587 217 l 587 458 l 386 458 l 433 566 l 696 566 z "},"ģ":{"ha":780,"x_min":134,"x_max":646,"o":"m 347 904 l 541 1093 l 584 982 l 390 793 l 347 904 m 537 -14 l 537 46 q 389 0 473 0 q 209 75 283 0 q 134 255 134 149 l 134 505 q 209 685 134 610 q 389 760 283 760 q 570 685 495 760 q 646 505 646 610 l 646 -16 q 570 -197 646 -122 q 389 -271 495 -271 q 209 -197 283 -271 q 144 -90 161 -149 l 252 -66 q 288 -119 263 -96 q 393 -161 335 -161 q 494 -119 450 -161 q 537 -14 536 -77 m 243 257 q 288 153 243 195 q 393 110 334 110 q 494 153 450 110 q 537 257 536 194 l 537 503 q 494 607 536 566 q 385 650 450 650 q 286 607 328 650 q 243 507 243 565 l 243 503 l 243 257 z "},"Ĥ":{"ha":780,"x_min":84,"x_max":696,"o":"m 391 1337 l 566 1177 l 517 1078 l 391 1212 l 259 1078 l 214 1175 l 391 1337 m 84 977 l 193 1025 l 193 566 l 587 566 l 587 977 l 696 1025 l 696 47 l 587 0 l 587 458 l 193 458 l 193 47 l 84 0 l 84 977 z "},"ĥ":{"ha":780,"x_min":134,"x_max":646,"o":"m 456 1061 l 631 901 l 582 802 l 456 935 l 324 802 l 279 898 l 456 1061 m 391 650 q 286 607 328 650 q 243 507 243 565 l 243 503 l 243 47 l 134 0 l 134 977 l 243 1025 l 243 714 q 389 760 307 760 q 570 685 495 760 q 646 505 646 610 l 646 47 l 537 0 l 537 503 q 494 607 536 566 q 391 650 450 650 z "},"Ħ":{"ha":780,"x_min":1,"x_max":779,"o":"m 84 977 l 193 1025 l 193 963 l 587 963 l 587 977 l 696 1025 l 696 963 l 779 963 l 731 854 l 696 854 l 696 47 l 587 0 l 587 458 l 193 458 l 193 47 l 84 0 l 84 854 l 1 854 l 49 963 l 84 963 l 84 977 m 587 854 l 193 854 l 193 566 l 587 566 l 587 854 z "},"ħ":{"ha":780,"x_min":6,"x_max":646,"o":"m 391 650 q 286 607 328 650 q 243 507 243 565 l 243 503 l 243 47 l 134 0 l 134 857 l 6 857 l 54 965 l 134 965 l 134 977 l 243 1025 l 243 965 l 485 965 l 437 857 l 243 857 l 243 714 q 389 760 307 760 q 570 685 495 760 q 646 505 646 610 l 646 47 l 537 0 l 537 503 q 494 607 536 566 q 391 650 450 650 z "},"Ĩ":{"ha":780,"x_min":94,"x_max":686,"o":"m 462 1215 l 578 1338 l 627 1239 l 453 1079 l 317 1203 l 195 1079 l 150 1175 l 328 1338 l 462 1215 m 142 1011 l 686 1011 l 638 903 l 444 903 l 444 122 l 686 122 l 638 14 l 94 14 l 142 122 l 336 122 l 336 903 l 94 903 l 142 1011 z "},"ĩ":{"ha":780,"x_min":-28,"x_max":646,"o":"m 283 931 l 400 1055 l 449 956 l 275 795 l 139 920 l 17 795 l -28 892 l 149 1055 l 283 931 m 537 262 l 646 309 l 646 255 q 571 75 646 149 q 391 0 496 0 q 210 75 285 0 q 134 255 134 149 l 134 712 l 243 760 l 243 257 q 286 153 244 194 q 395 110 330 110 q 494 156 452 110 q 537 262 537 202 z "},"Ī":{"ha":780,"x_min":94,"x_max":686,"o":"m 198 1227 l 629 1227 l 582 1119 l 151 1119 l 198 1227 m 142 1011 l 686 1011 l 638 903 l 444 903 l 444 122 l 686 122 l 638 14 l 94 14 l 142 122 l 336 122 l 336 903 l 94 903 l 142 1011 z "},"ī":{"ha":780,"x_min":-43,"x_max":646,"o":"m 5 963 l 436 963 l 389 854 l -43 854 l 5 963 m 537 262 l 646 309 l 646 255 q 571 75 646 149 q 391 0 496 0 q 210 75 285 0 q 134 255 134 149 l 134 712 l 243 760 l 243 257 q 286 153 244 194 q 395 110 330 110 q 494 156 452 110 q 537 262 537 202 z "},"Ĭ":{"ha":780,"x_min":94,"x_max":686,"o":"m 281 1252 q 299 1232 282 1248 q 389 1196 336 1196 q 477 1232 441 1196 q 497 1256 489 1243 l 586 1207 q 549 1161 571 1183 q 388 1095 484 1095 q 227 1161 294 1095 q 191 1203 202 1185 l 281 1252 m 142 1011 l 686 1011 l 638 903 l 444 903 l 444 122 l 686 122 l 638 14 l 94 14 l 142 122 l 336 122 l 336 903 l 94 903 l 142 1011 z "},"ĭ":{"ha":780,"x_min":-1,"x_max":646,"o":"m 88 1019 q 106 999 90 1015 q 196 963 144 963 q 285 999 249 963 q 304 1023 296 1010 l 393 975 q 357 928 378 950 q 195 863 291 863 q 34 928 99 863 q -1 970 9 952 l 88 1019 m 537 262 l 646 309 l 646 255 q 571 75 646 149 q 391 0 496 0 q 210 75 285 0 q 134 255 134 149 l 134 712 l 243 760 l 243 257 q 286 153 244 194 q 395 110 330 110 q 494 156 452 110 q 537 262 537 202 z "},"Į":{"ha":780,"x_min":94,"x_max":686,"o":"m 142 1011 l 686 1011 l 638 903 l 444 903 l 444 122 l 686 122 l 638 14 l 477 14 l 484 7 l 404 -167 l 523 -216 l 520 -335 l 304 -240 l 307 -121 l 368 14 l 94 14 l 142 122 l 336 122 l 336 903 l 94 903 l 142 1011 z "},"į":{"ha":780,"x_min":99,"x_max":646,"o":"m 125 872 q 112 885 125 872 q 99 935 99 898 q 125 999 99 972 q 187 1025 151 1025 q 250 999 224 1025 q 275 935 275 972 q 250 872 275 898 q 187 846 224 846 q 125 872 151 846 m 537 262 l 646 309 l 646 255 q 571 75 646 149 q 477 14 529 33 l 484 7 l 404 -167 l 523 -216 l 520 -335 l 304 -240 l 307 -121 l 362 1 q 210 75 275 10 q 134 255 134 149 l 134 712 l 243 760 l 243 257 q 286 153 244 194 q 395 110 330 110 q 494 156 452 110 q 537 262 537 202 z "},"İ":{"ha":780,"x_min":94,"x_max":686,"o":"m 328 1119 q 315 1132 328 1119 q 302 1182 302 1145 q 328 1245 302 1219 q 390 1272 353 1272 q 452 1245 427 1272 q 478 1182 478 1219 q 452 1119 478 1145 q 390 1093 427 1093 q 328 1119 353 1093 m 142 1011 l 686 1011 l 638 903 l 444 903 l 444 122 l 686 122 l 638 14 l 94 14 l 142 122 l 336 122 l 336 903 l 94 903 l 142 1011 z "},"ı":{"ha":780,"x_min":134,"x_max":646,"o":"m 537 262 l 646 309 l 646 255 q 571 75 646 149 q 391 0 496 0 q 210 75 285 0 q 134 255 134 149 l 134 712 l 243 760 l 243 257 q 286 153 244 194 q 395 110 330 110 q 494 156 452 110 q 537 262 537 202 z "},"Ĳ":{"ha":780,"x_min":0,"x_max":747,"o":"m 637 903 l 393 903 l 441 1011 l 746 1011 l 747 188 l 747 187 q 692 53 747 109 q 562 0 641 0 q 431 54 481 0 q 376 184 376 112 l 376 250 l 485 202 l 486 188 q 509 130 488 151 q 563 106 532 106 q 616 130 593 106 q 638 188 638 154 l 637 903 m 47 1011 l 373 1011 l 326 903 l 241 903 l 241 122 l 373 122 l 326 14 l 0 14 l 47 122 l 132 122 l 132 903 l 0 903 l 47 1011 z "},"ĳ":{"ha":780,"x_min":99,"x_max":681,"o":"m 260 -79 q 289 -119 271 -101 q 397 -161 333 -161 q 497 -119 454 -161 q 540 -16 540 -76 l 540 -14 l 540 712 l 648 760 l 648 -16 q 574 -197 648 -122 q 393 -271 499 -271 q 212 -197 285 -271 q 163 -130 181 -165 q 260 -79 163 -130 m 505 935 q 530 998 505 972 q 593 1025 556 1025 q 655 998 629 1025 q 681 935 681 972 q 655 872 681 899 q 593 846 629 846 q 530 872 556 846 q 505 935 505 898 m 125 872 q 112 885 125 872 q 99 935 99 898 q 125 999 99 972 q 187 1025 151 1025 q 250 999 224 1025 q 275 935 275 972 q 250 872 275 898 q 187 846 224 846 q 125 872 151 846 m 189 53 q 134 187 134 109 l 134 188 l 134 712 l 243 760 l 243 188 q 265 130 243 154 q 318 106 288 106 q 372 130 349 106 q 395 188 393 151 l 396 202 l 505 250 l 505 184 q 450 54 505 112 q 319 0 399 0 q 189 53 240 0 z "},"Ĵ":{"ha":780,"x_min":84,"x_max":696,"o":"m 391 1337 l 566 1177 l 517 1078 l 391 1212 l 259 1078 l 214 1175 l 391 1337 m 587 903 l 184 903 l 231 1011 l 696 1011 l 696 302 q 606 89 696 177 q 390 0 517 0 q 174 88 262 0 q 84 302 84 178 l 84 308 l 193 357 l 193 300 q 251 161 193 219 q 390 104 309 104 q 530 161 472 104 q 587 300 587 218 l 587 903 z "},"ĵ":{"ha":780,"x_min":134,"x_max":763,"o":"m 589 1061 l 763 901 l 714 802 l 588 935 l 456 802 l 411 898 l 589 1061 m 395 -161 q 494 -119 452 -161 q 537 -16 537 -76 l 537 -14 l 537 712 l 646 760 l 646 -16 q 571 -197 646 -122 q 391 -271 496 -271 q 209 -197 282 -271 q 134 -16 134 -121 l 134 262 l 243 309 l 243 -14 q 286 -119 244 -77 q 395 -161 329 -161 z "},"Ķ":{"ha":780,"x_min":84,"x_max":696,"o":"m 84 0 l 84 977 l 193 1025 l 193 500 l 568 1025 l 669 977 l 376 566 l 390 566 q 606 477 517 566 q 696 264 696 389 l 696 47 l 587 0 l 587 267 q 529 405 587 348 q 390 463 471 463 q 250 405 309 463 q 193 269 193 348 l 193 267 l 193 47 l 84 0 m 197 -217 l 391 -28 l 434 -139 l 240 -328 l 197 -217 z "},"ķ":{"ha":780,"x_min":134,"x_max":646,"o":"m 197 -217 l 391 -28 l 434 -139 l 240 -328 l 197 -217 m 389 404 q 286 361 330 404 q 243 261 243 320 l 243 257 l 243 47 l 134 0 l 134 977 l 243 1025 l 243 469 l 543 760 l 646 712 l 438 507 q 570 439 519 492 q 646 259 646 365 l 646 47 l 537 0 l 537 257 q 494 361 536 319 q 389 404 452 404 z "},"ĸ":{"ha":780,"x_min":134,"x_max":646,"o":"m 389 404 q 286 361 330 404 q 243 261 243 320 l 243 257 l 243 47 l 134 0 l 134 712 l 243 760 l 243 469 l 543 760 l 646 712 l 438 507 q 570 439 519 492 q 646 259 646 365 l 646 47 l 537 0 l 537 257 q 494 361 536 319 q 389 404 452 404 z "},"Ĺ":{"ha":780,"x_min":94,"x_max":686,"o":"m 113 1183 l 307 1371 l 351 1261 l 157 1072 l 113 1183 m 94 977 l 203 1025 l 203 122 l 686 122 l 638 14 l 94 14 l 94 977 z "},"ĺ":{"ha":780,"x_min":134,"x_max":646,"o":"m 144 1183 l 338 1371 l 381 1261 l 187 1072 l 144 1183 m 537 262 l 646 309 l 646 255 q 571 75 646 149 q 391 0 496 0 q 210 75 285 0 q 134 255 134 149 l 134 977 l 243 1025 l 243 257 q 286 153 244 194 q 395 110 330 110 q 494 156 452 110 q 537 262 537 202 z "},"Ļ":{"ha":780,"x_min":94,"x_max":686,"o":"m 197 -217 l 391 -28 l 434 -139 l 240 -328 l 197 -217 m 94 977 l 203 1025 l 203 122 l 686 122 l 638 14 l 94 14 l 94 977 z "},"ļ":{"ha":780,"x_min":134,"x_max":646,"o":"m 197 -217 l 391 -28 l 434 -139 l 240 -328 l 197 -217 m 537 262 l 646 309 l 646 255 q 571 75 646 149 q 391 0 496 0 q 210 75 285 0 q 134 255 134 149 l 134 977 l 243 1025 l 243 257 q 286 153 244 194 q 395 110 330 110 q 494 156 452 110 q 537 262 537 202 z "},"Ľ":{"ha":780,"x_min":94,"x_max":686,"o":"m 347 904 l 541 1093 l 584 982 l 390 793 l 347 904 m 94 977 l 203 1025 l 203 122 l 686 122 l 638 14 l 94 14 l 94 977 z "},"ľ":{"ha":780,"x_min":134,"x_max":646,"o":"m 347 904 l 541 1093 l 584 982 l 390 793 l 347 904 m 537 262 l 646 309 l 646 255 q 571 75 646 149 q 391 0 496 0 q 210 75 285 0 q 134 255 134 149 l 134 977 l 243 1025 l 243 257 q 286 153 244 194 q 395 110 330 110 q 494 156 452 110 q 537 262 537 202 z "},"Ŀ":{"ha":780,"x_min":94,"x_max":686,"o":"m 328 872 q 315 885 328 872 q 302 935 302 898 q 328 999 302 972 q 390 1025 353 1025 q 452 999 427 1025 q 478 935 478 972 q 452 872 478 898 q 390 846 427 846 q 328 872 353 846 m 94 977 l 203 1025 l 203 122 l 686 122 l 638 14 l 94 14 l 94 977 z "},"ŀ":{"ha":780,"x_min":134,"x_max":646,"o":"m 328 872 q 315 885 328 872 q 302 935 302 898 q 328 999 302 972 q 390 1025 353 1025 q 452 999 427 1025 q 478 935 478 972 q 452 872 478 898 q 390 846 427 846 q 328 872 353 846 m 537 262 l 646 309 l 646 255 q 571 75 646 149 q 391 0 496 0 q 210 75 285 0 q 134 255 134 149 l 134 977 l 243 1025 l 243 257 q 286 153 244 194 q 395 110 330 110 q 494 156 452 110 q 537 262 537 202 z "},"Ł":{"ha":780,"x_min":-5,"x_max":686,"o":"m 94 977 l 203 1025 l 203 583 l 380 760 l 479 712 l 203 436 l 203 122 l 686 122 l 638 14 l 94 14 l 94 328 l -5 376 l 94 474 l 94 977 z "},"ł":{"ha":780,"x_min":37,"x_max":646,"o":"m 537 262 l 646 309 l 646 255 q 571 75 646 149 q 391 0 496 0 q 210 75 285 0 q 134 255 134 149 l 134 328 l 37 376 l 134 473 l 134 977 l 243 1025 l 243 582 l 421 760 l 520 712 l 243 435 l 243 257 q 286 153 244 194 q 395 110 330 110 q 494 156 452 110 q 537 262 537 202 z "},"Ń":{"ha":780,"x_min":84,"x_max":696,"o":"m 347 1183 l 541 1371 l 584 1261 l 390 1072 l 347 1183 m 696 723 l 696 47 l 587 0 l 587 725 q 529 863 587 806 q 390 921 471 921 q 250 863 309 921 q 193 727 193 806 q 193 725 193 726 l 193 47 l 84 0 l 84 723 q 174 936 84 848 q 390 1025 263 1025 q 606 936 517 1025 q 696 723 696 848 z "},"ń":{"ha":780,"x_min":134,"x_max":646,"o":"m 347 904 l 541 1093 l 584 982 l 390 793 l 347 904 m 391 650 q 286 606 330 650 q 243 505 243 564 q 243 503 243 503 l 243 47 l 134 0 l 134 505 q 209 685 134 610 q 389 760 283 760 q 570 685 495 760 q 646 505 646 610 l 646 47 l 537 0 l 537 503 q 494 607 536 566 q 391 650 450 650 z "},"Ņ":{"ha":780,"x_min":84,"x_max":696,"o":"m 197 -217 l 391 -28 l 434 -139 l 240 -328 l 197 -217 m 696 723 l 696 47 l 587 0 l 587 725 q 529 863 587 806 q 390 921 471 921 q 250 863 309 921 q 193 727 193 806 q 193 725 193 726 l 193 47 l 84 0 l 84 723 q 174 936 84 848 q 390 1025 263 1025 q 606 936 517 1025 q 696 723 696 848 z "},"ņ":{"ha":780,"x_min":134,"x_max":646,"o":"m 197 -217 l 391 -28 l 434 -139 l 240 -328 l 197 -217 m 391 650 q 286 606 330 650 q 243 505 243 564 q 243 503 243 503 l 243 47 l 134 0 l 134 505 q 209 685 134 610 q 389 760 283 760 q 570 685 495 760 q 646 505 646 610 l 646 47 l 537 0 l 537 503 q 494 607 536 566 q 391 650 450 650 z "},"Ň":{"ha":780,"x_min":84,"x_max":696,"o":"m 391 1078 l 214 1241 l 259 1337 l 391 1204 l 517 1337 l 566 1238 l 391 1078 m 696 723 l 696 47 l 587 0 l 587 725 q 529 863 587 806 q 390 921 471 921 q 250 863 309 921 q 193 727 193 806 q 193 725 193 726 l 193 47 l 84 0 l 84 723 q 174 936 84 848 q 390 1025 263 1025 q 606 936 517 1025 q 696 723 696 848 z "},"ň":{"ha":780,"x_min":134,"x_max":646,"o":"m 389 799 l 212 962 l 257 1058 l 389 924 l 515 1058 l 564 959 l 389 799 m 391 650 q 286 606 330 650 q 243 505 243 564 q 243 503 243 503 l 243 47 l 134 0 l 134 505 q 209 685 134 610 q 389 760 283 760 q 570 685 495 760 q 646 505 646 610 l 646 47 l 537 0 l 537 503 q 494 607 536 566 q 391 650 450 650 z "},"ŉ":{"ha":780,"x_min":1,"x_max":646,"o":"m 1 695 l 195 884 l 239 773 l 45 585 l 1 695 m 391 650 q 286 606 330 650 q 243 505 243 564 q 243 503 243 503 l 243 47 l 134 0 l 134 505 q 209 685 134 610 q 389 760 283 760 q 570 685 495 760 q 646 505 646 610 l 646 47 l 537 0 l 537 503 q 494 607 536 566 q 391 650 450 650 z "},"Ŋ":{"ha":780,"x_min":84,"x_max":696,"o":"m 352 -132 q 445 -161 391 -161 q 545 -119 502 -161 q 587 -22 585 -78 l 587 725 q 529 863 587 806 q 390 921 471 921 q 250 863 309 921 q 193 727 193 806 q 193 725 193 726 l 193 47 l 84 0 l 84 723 q 174 936 84 848 q 390 1025 263 1025 q 606 936 517 1025 q 696 723 696 847 l 696 -21 q 621 -197 694 -123 q 441 -271 547 -271 q 259 -197 332 -271 l 252 -189 l 352 -132 z "},"ŋ":{"ha":780,"x_min":134,"x_max":646,"o":"m 646 -93 q 591 -218 643 -165 q 460 -271 540 -271 q 330 -217 380 -271 l 324 -211 l 429 -157 q 462 -165 444 -165 q 515 -141 492 -165 q 537 -92 534 -121 l 537 503 q 494 607 536 566 q 391 650 450 650 q 286 606 330 650 q 243 505 243 564 q 243 503 243 503 l 243 47 l 134 0 l 134 505 q 209 685 134 610 q 389 760 283 760 q 570 685 495 760 q 646 505 646 610 l 646 -93 z "},"Ō":{"ha":780,"x_min":84,"x_max":696,"o":"m 198 1227 l 629 1227 l 582 1119 l 151 1119 l 198 1227 m 696 723 q 696 302 696 723 q 606 89 696 177 q 390 0 517 0 q 174 88 262 0 q 84 302 84 177 l 84 723 q 174 936 84 848 q 390 1025 263 1025 q 606 936 517 1025 q 696 723 696 848 m 193 725 l 193 300 q 250 161 193 219 q 390 104 308 104 q 529 161 471 104 q 587 300 587 218 l 587 725 q 529 863 587 806 q 390 921 471 921 q 250 864 308 921 q 193 725 193 806 z "},"ō":{"ha":780,"x_min":134,"x_max":646,"o":"m 202 963 l 633 963 l 586 854 l 155 854 l 202 963 m 243 257 q 288 153 243 195 q 393 110 334 110 q 494 153 450 110 q 537 257 536 194 l 537 503 q 494 607 536 566 q 385 650 450 650 q 286 607 328 650 q 243 507 243 565 l 243 503 l 243 257 m 134 505 q 209 685 134 610 q 389 760 283 760 q 570 685 495 760 q 646 505 646 610 l 646 255 q 570 75 646 149 q 389 0 495 0 q 209 75 283 0 q 134 255 134 149 l 134 505 z "},"Ŏ":{"ha":780,"x_min":84,"x_max":696,"o":"m 281 1252 q 299 1232 282 1248 q 389 1196 336 1196 q 477 1232 441 1196 q 497 1256 489 1243 l 586 1207 q 549 1161 571 1183 q 388 1095 484 1095 q 227 1161 294 1095 q 191 1203 202 1185 l 281 1252 m 696 723 q 696 302 696 723 q 606 89 696 177 q 390 0 517 0 q 174 88 262 0 q 84 302 84 177 l 84 723 q 174 936 84 848 q 390 1025 263 1025 q 606 936 517 1025 q 696 723 696 848 m 193 725 l 193 300 q 250 161 193 219 q 390 104 308 104 q 529 161 471 104 q 587 300 587 218 l 587 725 q 529 863 587 806 q 390 921 471 921 q 250 864 308 921 q 193 725 193 806 z "},"ŏ":{"ha":780,"x_min":134,"x_max":646,"o":"m 286 1015 q 304 995 288 1011 q 394 959 342 959 q 483 995 447 959 q 503 1019 494 1006 l 591 970 q 555 924 576 946 q 393 859 489 859 q 232 924 297 859 q 197 966 208 948 l 286 1015 m 243 257 q 288 153 243 195 q 393 110 334 110 q 494 153 450 110 q 537 257 536 194 l 537 503 q 494 607 536 566 q 385 650 450 650 q 286 607 328 650 q 243 507 243 565 l 243 503 l 243 257 m 134 505 q 209 685 134 610 q 389 760 283 760 q 570 685 495 760 q 646 505 646 610 l 646 255 q 570 75 646 149 q 389 0 495 0 q 209 75 283 0 q 134 255 134 149 l 134 505 z "},"Ő":{"ha":780,"x_min":84,"x_max":727,"o":"m 490 1185 l 684 1373 l 727 1263 l 533 1074 l 490 1185 m 229 1182 l 423 1371 l 467 1260 l 273 1072 l 229 1182 m 696 723 q 696 302 696 723 q 606 89 696 177 q 390 0 517 0 q 174 88 262 0 q 84 302 84 177 l 84 723 q 174 936 84 848 q 390 1025 263 1025 q 606 936 517 1025 q 696 723 696 848 m 193 725 l 193 300 q 250 161 193 219 q 390 104 308 104 q 529 161 471 104 q 587 300 587 218 l 587 725 q 529 863 587 806 q 390 921 471 921 q 250 864 308 921 q 193 725 193 806 z "},"ő":{"ha":780,"x_min":134,"x_max":712,"o":"m 475 907 l 669 1095 l 712 985 l 518 796 l 475 907 m 214 904 l 408 1093 l 452 982 l 258 793 l 214 904 m 243 257 q 288 153 243 195 q 393 110 334 110 q 494 153 450 110 q 537 257 536 194 l 537 503 q 494 607 536 566 q 385 650 450 650 q 286 607 328 650 q 243 507 243 565 l 243 503 l 243 257 m 134 505 q 209 685 134 610 q 389 760 283 760 q 570 685 495 760 q 646 505 646 610 l 646 255 q 570 75 646 149 q 389 0 495 0 q 209 75 283 0 q 134 255 134 149 l 134 505 z "},"Œ":{"ha":780,"x_min":75,"x_max":765,"o":"m 75 840 q 129 970 75 916 q 260 1025 183 1025 q 378 983 330 1025 l 444 1012 l 677 1011 l 629 903 l 444 903 l 444 566 l 677 566 l 629 458 l 444 458 l 444 122 l 765 122 l 718 14 l 336 14 l 336 15 q 260 0 302 0 q 129 53 180 0 q 75 187 75 109 l 75 188 l 75 840 m 336 188 l 336 838 q 314 895 336 872 q 261 918 292 918 q 207 895 230 918 q 184 837 184 871 l 183 188 q 205 130 183 154 q 258 106 228 106 q 313 130 289 106 q 336 188 334 151 z "},"œ":{"ha":780,"x_min":74,"x_max":706,"o":"m 128 707 q 259 760 180 760 q 389 707 340 760 q 520 760 441 760 q 651 705 600 760 q 705 575 705 648 l 706 442 l 444 317 l 444 188 q 466 130 444 154 q 519 106 488 106 q 573 130 550 106 q 596 188 594 151 l 597 202 l 705 250 l 705 184 q 651 54 705 112 q 520 0 600 0 q 389 53 441 0 l 389 54 q 259 0 337 0 q 128 53 180 0 q 74 187 74 109 l 74 188 l 74 572 l 74 572 q 128 707 74 651 m 597 513 l 596 572 q 573 629 595 607 q 519 653 550 653 q 466 629 488 653 q 444 572 444 606 l 444 437 l 597 513 m 335 572 q 312 629 333 608 q 258 653 288 653 q 205 629 227 653 q 182 572 182 606 l 182 188 q 205 130 182 154 q 258 106 227 106 q 312 130 288 106 q 335 187 333 151 q 335 188 335 188 l 335 235 l 335 572 q 335 572 335 572 z "},"Ŕ":{"ha":780,"x_min":81,"x_max":699,"o":"m 347 1183 l 541 1371 l 584 1261 l 390 1072 l 347 1183 m 190 399 l 190 47 l 81 0 l 81 977 l 190 1011 l 389 1011 q 602 922 514 1011 q 690 705 690 831 q 602 489 690 578 q 513 425 562 448 l 699 47 l 589 0 l 403 399 q 389 399 396 399 l 190 399 m 190 903 l 190 508 l 391 508 q 529 566 471 508 q 587 705 587 623 q 529 844 587 786 q 391 903 471 903 l 190 903 z "},"ŕ":{"ha":780,"x_min":134,"x_max":646,"o":"m 347 904 l 541 1093 l 584 982 l 390 793 l 347 904 m 391 650 q 286 607 330 650 q 243 505 243 564 q 243 503 243 503 l 243 47 l 134 0 l 134 505 q 209 685 134 610 q 389 760 283 760 q 570 685 497 760 q 646 505 646 608 l 646 502 l 537 454 l 537 503 q 494 607 536 566 q 391 650 450 650 z "},"Ŗ":{"ha":780,"x_min":81,"x_max":699,"o":"m 197 -217 l 391 -28 l 434 -139 l 240 -328 l 197 -217 m 190 399 l 190 47 l 81 0 l 81 977 l 190 1011 l 389 1011 q 602 922 514 1011 q 690 705 690 831 q 602 489 690 578 q 513 425 562 448 l 699 47 l 589 0 l 403 399 q 389 399 396 399 l 190 399 m 190 903 l 190 508 l 391 508 q 529 566 471 508 q 587 705 587 623 q 529 844 587 786 q 391 903 471 903 l 190 903 z "},"ŗ":{"ha":780,"x_min":134,"x_max":646,"o":"m 197 -217 l 391 -28 l 434 -139 l 240 -328 l 197 -217 m 391 650 q 286 607 330 650 q 243 505 243 564 q 243 503 243 503 l 243 47 l 134 0 l 134 505 q 209 685 134 610 q 389 760 283 760 q 570 685 497 760 q 646 505 646 608 l 646 502 l 537 454 l 537 503 q 494 607 536 566 q 391 650 450 650 z "},"Ř":{"ha":780,"x_min":81,"x_max":699,"o":"m 391 1078 l 214 1241 l 259 1337 l 391 1204 l 517 1337 l 566 1238 l 391 1078 m 190 399 l 190 47 l 81 0 l 81 977 l 190 1011 l 389 1011 q 602 922 514 1011 q 690 705 690 831 q 602 489 690 578 q 513 425 562 448 l 699 47 l 589 0 l 403 399 q 389 399 396 399 l 190 399 m 190 903 l 190 508 l 391 508 q 529 566 471 508 q 587 705 587 623 q 529 844 587 786 q 391 903 471 903 l 190 903 z "},"ř":{"ha":780,"x_min":134,"x_max":646,"o":"m 389 799 l 212 962 l 257 1058 l 389 924 l 515 1058 l 564 959 l 389 799 m 391 650 q 286 607 330 650 q 243 505 243 564 q 243 503 243 503 l 243 47 l 134 0 l 134 505 q 209 685 134 610 q 389 760 283 760 q 570 685 497 760 q 646 505 646 608 l 646 502 l 537 454 l 537 503 q 494 607 536 566 q 391 650 450 650 z "},"Ś":{"ha":780,"x_min":85,"x_max":695,"o":"m 347 1183 l 541 1371 l 584 1261 l 390 1072 l 347 1183 m 389 616 q 606 519 522 601 q 695 307 695 433 l 695 304 q 607 88 695 176 q 391 0 518 0 q 174 88 262 0 q 85 302 85 179 l 85 311 l 193 358 l 193 300 q 252 161 193 218 q 391 104 310 104 q 530 161 473 104 q 588 300 588 220 q 532 438 588 385 q 393 504 469 498 q 191 587 264 514 q 115 769 115 663 q 190 950 115 876 q 370 1025 264 1025 q 551 950 477 1025 q 627 770 627 874 l 627 763 l 518 714 l 518 768 q 475 872 517 831 q 370 916 431 916 q 268 873 310 916 q 224 769 224 829 q 268 665 224 709 q 389 616 309 625 z "},"ś":{"ha":780,"x_min":138,"x_max":642,"o":"m 347 904 l 541 1093 l 584 982 l 390 793 l 347 904 m 395 110 q 494 151 455 110 q 534 244 534 193 q 494 330 534 290 q 386 374 454 371 q 252 425 302 378 q 195 555 204 471 q 194 568 194 562 q 254 699 197 642 q 394 760 311 760 q 534 699 481 760 q 589 591 570 659 l 491 548 q 458 619 480 593 q 393 647 433 647 q 328 619 356 647 q 302 561 302 593 q 302 557 302 559 q 327 501 302 525 q 392 474 349 479 q 573 401 510 460 q 642 239 642 335 l 642 237 q 575 75 641 146 q 395 0 506 0 q 220 73 288 0 q 138 255 143 154 l 138 262 l 246 309 l 247 257 q 290 153 248 194 q 395 110 333 110 z "},"Ŝ":{"ha":780,"x_min":85,"x_max":695,"o":"m 391 1337 l 566 1177 l 517 1078 l 391 1212 l 259 1078 l 214 1175 l 391 1337 m 389 616 q 606 519 522 601 q 695 307 695 433 l 695 304 q 607 88 695 176 q 391 0 518 0 q 174 88 262 0 q 85 302 85 179 l 85 311 l 193 358 l 193 300 q 252 161 193 218 q 391 104 310 104 q 530 161 473 104 q 588 300 588 220 q 532 438 588 385 q 393 504 469 498 q 191 587 264 514 q 115 769 115 663 q 190 950 115 876 q 370 1025 264 1025 q 551 950 477 1025 q 627 770 627 874 l 627 763 l 518 714 l 518 768 q 475 872 517 831 q 370 916 431 916 q 268 873 310 916 q 224 769 224 829 q 268 665 224 709 q 389 616 309 625 z "},"ŝ":{"ha":780,"x_min":138,"x_max":642,"o":"m 389 1060 l 564 900 l 515 801 l 389 935 l 257 801 l 212 897 l 389 1060 m 395 110 q 494 151 455 110 q 534 244 534 193 q 494 330 534 290 q 386 374 454 371 q 252 425 302 378 q 195 555 204 471 q 194 568 194 562 q 254 699 197 642 q 394 760 311 760 q 534 699 481 760 q 589 591 570 659 l 491 548 q 458 619 480 593 q 393 647 433 647 q 328 619 356 647 q 302 561 302 593 q 302 557 302 559 q 327 501 302 525 q 392 474 349 479 q 573 401 510 460 q 642 239 642 335 l 642 237 q 575 75 641 146 q 395 0 506 0 q 220 73 288 0 q 138 255 143 154 l 138 262 l 246 309 l 247 257 q 290 153 248 194 q 395 110 333 110 z "},"Ş":{"ha":780,"x_min":85,"x_max":695,"o":"m 389 616 q 606 519 522 601 q 695 307 695 433 l 695 304 q 607 88 695 176 q 436 3 534 16 l 488 -113 l 491 -232 l 275 -327 l 273 -208 l 392 -159 l 315 8 q 174 88 235 27 q 85 302 85 178 l 85 311 l 193 358 l 193 300 q 252 161 193 218 q 391 104 311 104 q 530 161 473 104 q 588 300 588 220 q 532 438 588 385 q 393 504 469 498 q 191 587 265 514 q 115 769 115 663 q 190 950 115 876 q 370 1025 265 1025 q 551 950 477 1025 q 627 770 627 874 l 627 763 l 518 714 l 518 768 q 475 872 517 831 q 370 916 431 916 q 268 873 310 916 q 224 769 224 829 q 268 665 224 709 q 389 616 309 625 z "},"ş":{"ha":780,"x_min":138,"x_max":642,"o":"m 277 -202 l 396 -153 l 321 10 q 220 73 263 27 q 138 255 143 155 l 138 262 l 246 309 l 247 257 q 290 153 248 194 q 395 110 333 110 q 494 151 455 110 q 534 244 534 193 q 494 330 534 290 q 386 374 454 371 q 252 425 302 378 q 195 555 204 471 q 194 568 194 562 q 254 699 197 642 q 394 760 311 760 q 534 699 481 760 q 589 591 570 659 l 491 548 q 458 619 480 593 q 393 647 433 647 q 328 619 356 647 q 302 561 302 593 l 302 557 q 327 501 302 525 q 392 474 349 479 q 573 401 510 460 q 642 239 642 335 l 642 237 q 575 75 641 145 q 443 4 522 17 l 492 -106 l 495 -226 l 279 -321 l 277 -202 z "},"Š":{"ha":780,"x_min":85,"x_max":695,"o":"m 391 1078 l 214 1241 l 259 1337 l 391 1204 l 517 1337 l 566 1238 l 391 1078 m 389 616 q 606 519 522 601 q 695 307 695 433 l 695 304 q 607 88 695 176 q 391 0 518 0 q 174 88 262 0 q 85 302 85 179 l 85 311 l 193 358 l 193 300 q 252 161 193 218 q 391 104 310 104 q 530 161 473 104 q 588 300 588 220 q 532 438 588 385 q 393 504 469 498 q 191 587 264 514 q 115 769 115 663 q 190 950 115 876 q 370 1025 264 1025 q 551 950 477 1025 q 627 770 627 874 l 627 763 l 518 714 l 518 768 q 475 872 517 831 q 370 916 431 916 q 268 873 310 916 q 224 769 224 829 q 268 665 224 709 q 389 616 309 625 z "},"š":{"ha":780,"x_min":138,"x_max":642,"o":"m 389 799 l 212 962 l 257 1058 l 389 924 l 515 1058 l 564 959 l 389 799 m 395 110 q 494 151 455 110 q 534 244 534 193 q 494 330 534 290 q 386 374 454 371 q 252 425 302 378 q 195 555 204 471 q 194 568 194 562 q 254 699 197 642 q 394 760 311 760 q 534 699 481 760 q 589 591 570 659 l 491 548 q 458 619 480 593 q 393 647 433 647 q 328 619 356 647 q 302 561 302 593 q 302 557 302 559 q 327 501 302 525 q 392 474 349 479 q 573 401 510 460 q 642 239 642 335 l 642 237 q 575 75 641 146 q 395 0 506 0 q 220 73 288 0 q 138 255 143 154 l 138 262 l 246 309 l 247 257 q 290 153 248 194 q 395 110 333 110 z "},"Ţ":{"ha":780,"x_min":31,"x_max":749,"o":"m 78 1011 l 749 1011 l 702 903 l 444 903 l 444 47 l 425 39 l 496 -119 l 499 -238 l 283 -333 l 281 -214 l 400 -165 l 320 9 l 336 26 l 336 903 l 31 903 l 78 1011 z "},"ţ":{"ha":780,"x_min":50,"x_max":646,"o":"m 537 262 l 646 309 l 646 255 q 571 75 646 149 q 441 5 515 18 l 496 -119 l 499 -238 l 283 -333 l 281 -214 l 400 -165 l 320 9 q 210 75 258 26 q 134 255 134 150 l 134 637 l 50 637 l 98 746 l 134 746 l 134 977 l 243 1025 l 243 746 l 587 746 l 540 637 l 243 637 l 243 257 q 286 153 244 193 q 389 110 330 110 q 494 153 449 110 q 537 262 537 196 z "},"Ť":{"ha":780,"x_min":31,"x_max":749,"o":"m 391 1078 l 214 1241 l 259 1337 l 391 1204 l 517 1337 l 566 1238 l 391 1078 m 78 1011 l 749 1011 l 702 903 l 444 903 l 444 47 l 336 0 l 336 903 l 31 903 l 78 1011 z "},"ť":{"ha":780,"x_min":50,"x_max":646,"o":"m 347 904 l 541 1093 l 584 982 l 390 793 l 347 904 m 537 262 q 646 309 537 262 l 646 255 q 571 75 646 149 q 391 0 496 0 q 210 75 285 0 q 134 255 134 149 l 134 637 l 50 637 l 98 746 l 134 746 l 134 977 l 243 1025 l 243 746 l 587 746 l 540 637 l 243 637 l 243 257 q 286 153 244 193 q 389 110 330 110 q 494 153 450 110 q 537 262 537 195 z "},"Ŧ":{"ha":780,"x_min":31,"x_max":749,"o":"m 78 1011 l 749 1011 l 702 903 l 444 903 l 444 747 l 627 747 l 580 638 l 444 638 l 444 47 l 336 0 l 336 638 l 149 638 l 196 747 l 336 747 l 336 903 l 31 903 l 78 1011 z "},"ŧ":{"ha":780,"x_min":50,"x_max":646,"o":"m 537 262 l 646 309 l 646 255 q 571 75 646 149 q 391 0 496 0 q 210 75 285 0 q 134 255 134 149 l 134 421 l 51 421 l 98 530 l 134 530 l 134 637 l 50 637 l 98 746 l 134 746 l 134 977 l 243 1025 l 243 746 l 587 746 l 540 637 l 243 637 l 243 530 l 505 530 l 457 421 l 243 421 l 243 257 q 286 153 244 193 q 389 110 330 110 q 494 153 449 110 q 537 262 537 196 z "},"Ũ":{"ha":780,"x_min":84,"x_max":696,"o":"m 462 1215 l 578 1338 l 627 1239 l 453 1079 l 317 1203 l 195 1079 l 150 1175 l 328 1338 l 462 1215 m 84 302 l 84 977 l 193 1025 l 193 300 q 251 161 193 218 q 390 104 309 104 q 530 161 471 104 q 587 298 587 218 q 587 300 587 299 l 587 977 l 696 1025 l 696 302 q 606 89 696 177 q 390 0 517 0 q 174 89 263 0 q 84 302 84 177 z "},"ũ":{"ha":780,"x_min":134,"x_max":646,"o":"m 471 931 l 587 1055 l 636 956 l 462 795 l 326 920 l 204 795 l 159 892 l 336 1055 l 471 931 m 395 110 q 494 153 452 110 q 537 255 537 195 q 537 257 537 256 l 537 712 q 646 760 537 712 l 646 255 q 571 75 646 149 q 391 0 496 0 q 210 75 285 0 q 134 255 134 149 l 134 712 l 243 760 l 243 257 q 286 153 244 194 q 395 110 330 110 z "},"Ū":{"ha":780,"x_min":84,"x_max":696,"o":"m 198 1227 l 629 1227 l 582 1119 l 151 1119 l 198 1227 m 84 302 l 84 977 l 193 1025 l 193 300 q 251 161 193 218 q 390 104 309 104 q 530 161 471 104 q 587 298 587 218 q 587 300 587 299 l 587 977 l 696 1025 l 696 302 q 606 89 696 177 q 390 0 517 0 q 174 89 263 0 q 84 302 84 177 z "},"ū":{"ha":780,"x_min":134,"x_max":646,"o":"m 202 963 l 633 963 l 586 854 l 155 854 l 202 963 m 395 110 q 494 153 452 110 q 537 255 537 195 q 537 257 537 256 l 537 712 q 646 760 537 712 l 646 255 q 571 75 646 149 q 391 0 496 0 q 210 75 285 0 q 134 255 134 149 l 134 712 l 243 760 l 243 257 q 286 153 244 194 q 395 110 330 110 z "},"Ŭ":{"ha":780,"x_min":84,"x_max":696,"o":"m 281 1252 q 299 1232 282 1248 q 389 1196 336 1196 q 477 1232 441 1196 q 497 1256 489 1243 l 586 1207 q 549 1161 571 1183 q 388 1095 484 1095 q 227 1161 294 1095 q 191 1203 202 1185 l 281 1252 m 84 302 l 84 977 l 193 1025 l 193 300 q 251 161 193 218 q 390 104 309 104 q 530 161 471 104 q 587 298 587 218 q 587 300 587 299 l 587 977 l 696 1025 l 696 302 q 606 89 696 177 q 390 0 517 0 q 174 89 263 0 q 84 302 84 177 z "},"ŭ":{"ha":780,"x_min":134,"x_max":646,"o":"m 286 1015 q 304 995 288 1011 q 394 959 342 959 q 483 995 447 959 q 503 1019 494 1006 l 591 970 q 555 924 576 946 q 393 859 489 859 q 232 924 297 859 q 197 966 208 948 l 286 1015 m 395 110 q 494 153 452 110 q 537 255 537 195 q 537 257 537 256 l 537 712 q 646 760 537 712 l 646 255 q 571 75 646 149 q 391 0 496 0 q 210 75 285 0 q 134 255 134 149 l 134 712 l 243 760 l 243 257 q 286 153 244 194 q 395 110 330 110 z "},"Ů":{"ha":780,"x_min":84,"x_max":696,"o":"m 395 1166 q 435 1183 416 1166 q 453 1224 453 1200 q 453 1226 453 1225 q 435 1269 453 1253 q 392 1286 415 1286 q 391 1286 391 1286 q 347 1267 366 1286 q 329 1226 329 1250 q 329 1223 329 1225 q 349 1182 331 1198 q 395 1166 367 1166 m 236 1228 q 281 1336 236 1292 q 391 1380 327 1380 q 499 1335 453 1380 q 545 1228 545 1291 q 499 1120 545 1166 q 391 1076 454 1076 q 279 1121 326 1076 q 236 1228 236 1165 m 84 302 l 84 977 l 193 1025 l 193 300 q 251 161 193 218 q 390 104 309 104 q 530 161 471 104 q 587 298 587 218 q 587 300 587 299 l 587 977 l 696 1025 l 696 302 q 606 89 696 177 q 390 0 517 0 q 174 89 263 0 q 84 302 84 177 z "},"ů":{"ha":780,"x_min":134,"x_max":646,"o":"m 395 903 q 435 921 416 903 q 453 962 453 938 q 453 964 453 963 q 435 1006 453 990 q 392 1024 415 1024 q 391 1024 391 1024 q 347 1005 366 1024 q 329 964 329 987 q 329 960 329 962 q 349 920 331 936 q 395 903 367 904 m 236 966 q 281 1074 236 1029 q 391 1118 327 1118 q 499 1073 453 1118 q 545 966 545 1028 q 499 858 545 903 q 391 814 454 814 q 279 859 326 814 q 236 966 236 903 m 395 110 q 494 153 452 110 q 537 255 537 195 q 537 257 537 256 l 537 712 q 646 760 537 712 l 646 255 q 571 75 646 149 q 391 0 496 0 q 210 75 285 0 q 134 255 134 149 l 134 712 l 243 760 l 243 257 q 286 153 244 194 q 395 110 330 110 z "},"Ű":{"ha":780,"x_min":84,"x_max":727,"o":"m 490 1185 l 684 1373 l 727 1263 l 533 1074 l 490 1185 m 229 1182 l 423 1371 l 467 1260 l 273 1072 l 229 1182 m 84 302 l 84 977 l 193 1025 l 193 300 q 251 161 193 218 q 390 104 309 104 q 530 161 471 104 q 587 298 587 218 q 587 300 587 299 l 587 977 l 696 1025 l 696 302 q 606 89 696 177 q 390 0 517 0 q 174 89 263 0 q 84 302 84 177 z "},"ű":{"ha":780,"x_min":134,"x_max":712,"o":"m 475 907 l 669 1095 l 712 985 l 518 796 l 475 907 m 214 904 l 408 1093 l 452 982 l 258 793 l 214 904 m 395 110 q 494 153 452 110 q 537 255 537 195 q 537 257 537 256 l 537 712 q 646 760 537 712 l 646 255 q 571 75 646 149 q 391 0 496 0 q 210 75 285 0 q 134 255 134 149 l 134 712 l 243 760 l 243 257 q 286 153 244 194 q 395 110 330 110 z "},"Ų":{"ha":780,"x_min":84,"x_max":696,"o":"m 84 302 l 84 977 l 193 1025 l 193 300 q 251 161 193 218 q 390 104 309 104 q 530 161 471 104 q 587 298 587 218 l 587 300 l 587 977 l 696 1025 l 696 302 q 606 88 696 176 q 545 41 577 60 l 566 16 l 486 -157 l 605 -207 l 602 -326 l 387 -231 l 389 -111 l 441 4 q 390 0 416 0 q 174 89 263 0 q 84 302 84 177 z "},"ų":{"ha":780,"x_min":134,"x_max":646,"o":"m 593 -198 l 590 -317 l 374 -222 l 377 -102 l 424 2 q 391 0 408 0 q 210 75 285 0 q 134 255 134 149 l 134 712 l 243 760 l 243 257 q 286 153 244 194 q 395 110 330 110 q 494 153 452 110 q 537 255 537 195 l 537 257 l 537 712 l 646 760 l 646 255 q 571 75 646 149 q 536 45 554 58 l 553 25 l 473 -149 l 593 -198 z "},"Ŵ":{"ha":780,"x_min":75,"x_max":705,"o":"m 391 1337 l 566 1177 l 517 1078 l 391 1212 l 259 1078 l 214 1175 l 391 1337 m 75 185 l 75 977 l 183 1025 l 182 188 q 205 130 182 154 q 258 106 227 106 q 312 130 290 106 q 335 187 335 155 l 335 188 l 336 977 l 444 1025 l 444 188 q 466 130 444 154 q 519 106 488 106 q 573 130 550 106 q 596 188 596 154 l 597 977 l 705 1025 l 705 184 q 651 54 705 109 q 520 0 597 0 q 389 53 441 0 q 259 0 335 0 q 127 53 178 0 q 75 185 75 106 z "},"ŵ":{"ha":780,"x_min":75,"x_max":705,"o":"m 389 1060 l 564 900 l 515 801 l 389 935 l 257 801 l 212 897 l 389 1060 m 75 185 l 75 712 l 183 760 l 182 188 q 205 130 182 154 q 258 106 227 106 q 312 130 290 106 q 335 187 335 155 l 335 188 l 336 712 l 444 760 l 444 188 q 466 130 444 154 q 519 106 488 106 q 573 130 550 106 q 596 188 596 154 l 597 712 l 705 760 l 705 184 q 651 54 705 109 q 520 0 597 0 q 389 53 441 0 q 259 0 335 0 q 127 53 178 0 q 75 185 75 106 z "},"Ŷ":{"ha":780,"x_min":84,"x_max":696,"o":"m 391 1337 l 566 1177 l 517 1078 l 391 1212 l 259 1078 l 214 1175 l 391 1337 m 84 608 l 84 977 l 193 1025 l 193 606 q 251 468 193 525 q 390 410 309 410 q 530 468 471 410 q 587 604 587 525 l 587 606 l 587 977 l 696 1025 l 696 608 q 606 395 696 484 q 444 311 536 326 l 444 47 l 336 0 l 336 311 q 174 395 243 326 q 84 608 84 484 z "},"ŷ":{"ha":780,"x_min":134,"x_max":646,"o":"m 389 1060 l 564 900 l 515 801 l 389 935 l 257 801 l 212 897 l 389 1060 m 537 -14 l 537 45 q 391 0 473 0 q 210 75 285 0 q 134 255 134 149 l 134 712 l 243 760 l 243 257 q 286 153 244 194 q 395 110 330 110 q 494 153 452 110 q 537 253 536 195 l 537 257 l 537 712 l 646 760 l 646 -16 q 570 -197 646 -122 q 389 -271 495 -271 q 209 -197 283 -271 q 144 -90 161 -149 l 252 -66 q 288 -119 263 -96 q 393 -161 335 -161 q 494 -119 450 -161 q 537 -14 536 -77 z "},"Ÿ":{"ha":780,"x_min":84,"x_max":696,"o":"m 483 1119 q 470 1132 483 1119 q 457 1182 457 1145 q 483 1245 457 1219 q 545 1272 509 1272 q 608 1245 582 1272 q 633 1182 633 1219 q 608 1119 633 1145 q 545 1093 582 1093 q 483 1119 509 1093 m 176 1119 q 163 1132 176 1119 q 151 1182 151 1145 q 176 1245 151 1219 q 239 1272 202 1272 q 301 1245 275 1272 q 327 1182 327 1219 q 301 1119 327 1145 q 239 1093 275 1093 q 176 1119 202 1093 m 84 608 l 84 977 l 193 1025 l 193 606 q 251 468 193 525 q 390 410 309 410 q 530 468 471 410 q 587 604 587 525 l 587 606 l 587 977 l 696 1025 l 696 608 q 606 395 696 484 q 444 311 536 326 l 444 47 l 336 0 l 336 311 q 174 395 243 326 q 84 608 84 484 z "},"Ź":{"ha":780,"x_min":71,"x_max":709,"o":"m 347 1183 l 541 1371 l 584 1261 l 390 1072 l 347 1183 m 515 903 l 98 903 l 146 1011 l 690 1011 l 244 122 l 709 122 l 661 14 l 71 14 l 515 903 z "},"ź":{"ha":780,"x_min":113,"x_max":667,"o":"m 347 904 l 541 1093 l 584 982 l 390 793 l 347 904 m 304 122 l 665 122 l 618 14 l 113 14 l 478 637 l 134 637 l 182 746 l 667 746 l 304 122 z "},"Ż":{"ha":780,"x_min":71,"x_max":709,"o":"m 328 1119 q 315 1132 328 1119 q 302 1182 302 1145 q 328 1245 302 1219 q 390 1272 353 1272 q 452 1245 427 1272 q 478 1182 478 1219 q 452 1119 478 1145 q 390 1093 427 1093 q 328 1119 353 1093 m 515 903 l 98 903 l 146 1011 l 690 1011 l 244 122 l 709 122 l 661 14 l 71 14 l 515 903 z "},"ż":{"ha":780,"x_min":113,"x_max":667,"o":"m 328 872 q 315 885 328 872 q 302 935 302 898 q 328 999 302 972 q 390 1025 353 1025 q 452 999 427 1025 q 478 935 478 972 q 452 872 478 898 q 390 846 427 846 q 328 872 353 846 m 304 122 l 665 122 l 618 14 l 113 14 l 478 637 l 134 637 l 182 746 l 667 746 l 304 122 z "},"Ž":{"ha":780,"x_min":71,"x_max":709,"o":"m 391 1078 l 214 1241 l 259 1337 l 391 1204 l 517 1337 l 566 1238 l 391 1078 m 515 903 l 98 903 l 146 1011 l 690 1011 l 244 122 l 709 122 l 661 14 l 71 14 l 515 903 z "},"ž":{"ha":780,"x_min":113,"x_max":667,"o":"m 389 799 l 212 962 l 257 1058 l 389 924 l 515 1058 l 564 959 l 389 799 m 304 122 l 665 122 l 618 14 l 113 14 l 478 637 l 134 637 l 182 746 l 667 746 l 304 122 z "},"ſ":{"ha":780,"x_min":0,"x_max":646,"o":"m 243 47 l 134 0 l 134 458 l 0 458 l 47 567 l 134 567 l 134 770 q 209 950 134 876 q 389 1025 283 1025 q 570 950 497 1025 q 646 770 646 873 l 646 767 l 537 720 l 537 768 q 494 872 536 831 q 389 916 450 916 q 286 872 329 916 q 243 770 243 829 q 243 768 243 768 l 243 47 z "},"ƒ":{"ha":780,"x_min":4,"x_max":646,"o":"m 16 -160 q 91 -120 58 -153 q 134 -16 133 -79 l 134 458 l 52 458 l 99 567 l 134 567 l 134 770 q 209 950 134 876 q 389 1025 283 1025 q 570 950 497 1025 q 646 770 646 873 l 646 767 l 537 720 l 537 768 q 494 872 536 831 q 389 916 450 916 q 286 872 329 916 q 243 770 243 829 q 243 768 243 768 l 243 567 l 563 567 l 515 458 l 243 458 l 243 -18 q 168 -198 243 -123 q 4 -272 98 -267 q 16 -160 4 -272 z "},"Ǆ":{"ha":780,"x_min":68,"x_max":766,"o":"m 592 1078 l 414 1241 l 460 1337 l 591 1204 l 718 1337 l 766 1238 l 592 1078 m 589 903 l 418 903 l 466 1011 l 732 1011 l 555 122 l 751 122 l 703 14 l 408 14 l 589 903 m 177 1011 l 236 1011 q 367 957 315 1011 q 421 827 421 901 l 420 263 l 420 198 q 366 68 420 125 q 235 14 315 14 l 176 14 l 68 14 l 68 1011 l 177 1011 m 176 122 l 235 122 q 288 144 267 122 q 311 201 309 165 l 312 216 l 312 823 q 289 881 312 858 q 235 903 268 903 l 177 903 l 176 122 z "},"ǅ":{"ha":780,"x_min":68,"x_max":764,"o":"m 590 800 l 412 962 l 458 1059 l 589 925 l 715 1059 l 764 960 l 590 800 m 600 637 l 429 637 l 477 746 l 743 746 l 555 122 l 751 122 l 703 14 l 408 14 l 600 637 m 177 1011 l 236 1011 q 367 957 315 1011 q 421 827 421 901 l 420 263 l 420 198 q 366 68 420 125 q 235 14 315 14 l 176 14 l 68 14 l 68 1011 l 177 1011 m 176 122 l 235 122 q 288 144 267 122 q 311 201 309 165 l 312 216 l 312 823 q 289 881 312 858 q 235 903 268 903 l 177 903 l 176 122 z "},"ǆ":{"ha":780,"x_min":41,"x_max":764,"o":"m 590 800 l 412 962 l 458 1059 l 589 925 l 715 1059 l 764 960 l 590 800 m 41 572 l 41 572 q 95 707 41 651 q 226 760 146 760 q 302 745 269 760 l 302 977 l 411 1025 l 411 184 q 357 54 411 112 q 226 0 306 0 q 95 53 146 0 q 41 187 41 109 l 41 188 l 41 572 m 608 637 l 437 637 l 485 746 l 751 746 l 564 122 l 759 122 l 711 14 l 416 14 l 608 637 m 302 557 l 302 572 q 279 629 300 608 q 224 653 256 653 q 172 629 194 653 q 149 572 149 606 l 149 188 q 172 130 149 154 q 224 106 194 106 q 279 130 256 106 q 302 188 300 151 l 302 202 l 302 557 z "},"Ǉ":{"ha":780,"x_min":47,"x_max":732,"o":"m 47 977 l 156 1025 l 156 122 l 351 122 l 304 14 l 47 14 l 47 977 m 623 903 l 379 903 l 427 1011 l 732 1011 l 732 188 l 732 187 q 678 53 732 109 q 547 0 627 0 q 416 54 467 0 q 362 184 362 112 l 362 250 l 471 202 l 471 188 q 494 130 473 151 q 549 106 517 106 q 602 130 579 106 q 624 188 624 154 l 623 903 z "},"ǈ":{"ha":780,"x_min":94,"x_max":681,"o":"m 94 977 l 203 1025 l 203 122 l 484 122 l 437 14 l 94 14 l 94 977 m 260 -79 q 289 -119 271 -101 q 397 -161 333 -161 q 497 -119 454 -161 q 540 -16 540 -76 l 540 -14 l 540 712 l 648 760 l 648 -16 q 574 -197 648 -122 q 393 -271 499 -271 q 212 -197 285 -271 q 163 -130 181 -165 l 260 -79 m 505 935 q 530 998 505 972 q 593 1025 556 1025 q 655 998 629 1025 q 681 935 681 972 q 655 872 681 899 q 593 846 629 846 q 530 872 556 846 q 505 935 505 898 z "},"ǉ":{"ha":780,"x_min":134,"x_max":681,"o":"m 260 -79 q 289 -119 271 -101 q 397 -161 333 -161 q 497 -119 454 -161 q 540 -16 540 -76 l 540 -14 l 540 712 l 648 760 l 648 -16 q 574 -197 648 -122 q 393 -271 499 -271 q 212 -197 285 -271 q 163 -130 181 -165 q 260 -79 163 -130 m 505 935 q 530 998 505 972 q 593 1025 556 1025 q 655 998 629 1025 q 681 935 681 972 q 655 872 681 899 q 593 846 629 846 q 530 872 556 846 q 505 935 505 898 m 189 53 q 134 187 134 109 l 134 188 l 134 977 l 243 1025 l 243 188 q 265 130 243 153 q 318 106 288 106 q 372 130 349 106 q 395 188 393 151 l 396 202 l 505 250 l 505 184 q 450 54 505 112 q 319 0 399 0 q 189 53 240 0 z "},"Ǌ":{"ha":780,"x_min":25,"x_max":747,"o":"m 341 972 q 395 838 395 916 l 395 837 l 395 47 l 286 0 l 287 837 q 264 895 287 871 q 212 918 242 918 q 157 895 182 918 q 134 837 134 872 l 134 47 l 25 0 l 25 840 q 79 970 25 913 q 210 1025 130 1025 q 341 972 290 1025 m 637 903 l 393 903 l 441 1011 l 746 1011 l 747 188 l 747 187 q 695 54 747 106 q 579 0 641 0 q 465 51 510 0 q 414 184 414 109 l 414 250 l 523 202 l 524 188 q 545 125 526 151 q 587 106 559 106 q 637 153 626 106 q 638 188 638 153 l 637 903 z "},"ǋ":{"ha":780,"x_min":102,"x_max":708,"o":"m 287 -79 q 316 -119 298 -101 q 425 -161 360 -161 q 524 -119 481 -161 q 567 -16 567 -76 l 567 -14 l 567 712 l 675 760 l 675 -16 q 601 -197 675 -122 q 420 -271 526 -271 q 239 -197 312 -271 q 191 -130 208 -165 q 287 -79 191 -130 m 532 935 q 557 998 532 972 q 620 1025 583 1025 q 682 998 656 1025 q 708 935 708 972 q 682 872 708 899 q 620 846 656 846 q 557 872 583 846 q 532 935 532 898 m 418 972 q 472 838 472 916 l 472 837 l 471 47 l 363 0 l 363 837 q 341 895 363 871 q 288 918 319 918 q 234 895 258 918 q 211 837 211 872 l 210 47 l 102 0 l 102 840 q 156 970 102 913 q 287 1025 207 1025 q 418 972 366 1025 z "},"ǌ":{"ha":780,"x_min":102,"x_max":708,"o":"m 287 -79 q 316 -119 298 -101 q 425 -161 360 -161 q 524 -119 481 -161 q 567 -16 567 -76 l 567 -14 l 567 712 l 675 760 l 675 -16 q 601 -197 675 -122 q 420 -271 526 -271 q 239 -197 312 -271 q 191 -130 208 -165 q 287 -79 191 -130 m 532 935 q 557 998 532 972 q 620 1025 583 1025 q 682 998 656 1025 q 708 935 708 972 q 682 872 708 899 q 620 846 656 846 q 557 872 583 846 q 532 935 532 898 m 418 707 q 472 572 472 651 l 472 572 l 471 47 l 363 0 l 363 572 q 341 629 363 606 q 288 653 319 653 q 234 629 257 653 q 211 572 211 606 l 210 47 l 102 0 l 102 575 q 156 705 102 647 q 287 760 207 760 q 418 707 366 760 z "},"Ǥ":{"ha":780,"x_min":84,"x_max":779,"o":"m 587 298 l 435 298 l 483 407 l 587 407 l 587 458 l 386 458 l 433 566 l 696 566 l 696 407 l 779 407 l 731 298 l 696 298 q 606 88 694 176 q 390 0 517 0 q 174 88 262 0 q 84 302 84 177 l 84 723 q 174 936 84 848 q 390 1025 263 1025 q 606 936 518 1025 q 696 723 696 846 l 696 717 l 587 667 l 587 725 q 529 863 587 806 q 390 921 471 921 q 250 864 308 921 q 193 725 193 806 l 193 300 q 250 161 193 219 q 390 104 308 104 q 529 161 469 104 q 587 298 587 216 z "},"ǥ":{"ha":780,"x_min":134,"x_max":777,"o":"m 243 257 q 288 153 243 195 q 393 110 334 110 q 494 153 450 110 q 537 257 536 194 l 537 503 q 494 607 536 566 q 385 650 450 650 q 286 607 328 650 q 243 507 243 565 l 243 503 l 243 257 m 537 -14 l 537 46 q 389 0 473 0 q 209 75 283 0 q 134 255 134 149 l 134 505 q 209 685 134 610 q 389 760 283 760 q 570 685 495 760 q 646 505 646 610 l 646 -16 q 646 -30 646 -23 l 777 -30 l 730 -138 l 615 -138 q 570 -197 597 -170 q 389 -271 496 -271 q 209 -197 283 -271 q 144 -90 161 -149 l 252 -66 q 288 -119 263 -96 q 393 -161 335 -161 q 470 -138 435 -161 l 350 -138 l 397 -30 l 536 -30 q 537 -14 537 -22 z "},"Ǳ":{"ha":780,"x_min":68,"x_max":751,"o":"m 589 903 l 418 903 l 466 1011 l 732 1011 l 555 122 l 751 122 l 703 14 l 408 14 l 589 903 m 177 1011 l 236 1011 q 367 957 315 1011 q 421 827 421 901 l 420 263 l 420 198 q 366 68 420 125 q 235 14 315 14 l 176 14 l 68 14 l 68 1011 l 177 1011 m 176 122 l 235 122 q 288 144 267 122 q 311 201 309 165 l 312 216 l 312 823 q 289 881 312 858 q 235 903 268 903 l 177 903 l 176 122 z "},"ǲ":{"ha":780,"x_min":68,"x_max":751,"o":"m 600 637 l 429 637 l 477 746 l 743 746 l 555 122 l 751 122 l 703 14 l 408 14 l 600 637 m 177 1011 l 236 1011 q 367 957 315 1011 q 421 827 421 901 l 420 263 l 420 198 q 366 68 420 125 q 235 14 315 14 l 176 14 l 68 14 l 68 1011 l 177 1011 m 176 122 l 235 122 q 288 144 267 122 q 311 201 309 165 l 312 216 l 312 823 q 289 881 312 858 q 235 903 268 903 l 177 903 l 176 122 z "},"ǳ":{"ha":780,"x_min":41,"x_max":759,"o":"m 41 572 l 41 572 q 95 707 41 651 q 226 760 146 760 q 302 745 269 760 l 302 977 l 411 1025 l 411 184 q 357 54 411 112 q 226 0 306 0 q 95 53 146 0 q 41 187 41 109 l 41 188 l 41 572 m 608 637 l 437 637 l 485 746 l 751 746 l 564 122 l 759 122 l 711 14 l 416 14 l 608 637 m 302 557 l 302 572 q 279 629 300 608 q 224 653 256 653 q 172 629 194 653 q 149 572 149 606 l 149 188 q 172 130 149 154 q 224 106 194 106 q 279 130 256 106 q 302 188 300 151 l 302 202 l 302 557 z "},"Ǻ":{"ha":780,"x_min":84,"x_max":696,"o":"m 347 1314 l 541 1502 l 585 1392 l 391 1203 l 347 1314 m 395 967 q 435 985 416 967 q 453 1025 453 1002 q 453 1027 453 1027 q 435 1070 453 1054 q 392 1088 415 1088 q 391 1088 391 1088 q 347 1069 366 1088 q 329 1027 329 1051 q 329 1024 329 1026 q 349 983 331 1000 q 395 967 367 968 m 236 1029 q 281 1137 236 1093 q 391 1181 327 1181 q 499 1137 453 1181 q 545 1029 545 1092 q 499 922 545 967 q 391 878 454 878 q 279 922 323 878 q 236 1029 236 966 m 696 559 l 696 47 l 587 0 l 587 294 l 193 294 l 193 47 l 84 0 l 84 559 q 174 772 84 684 q 390 861 263 861 q 606 772 517 861 q 696 559 696 684 m 193 402 l 587 402 l 587 561 q 529 699 587 642 q 390 757 471 757 q 250 699 309 757 q 193 563 193 642 l 193 561 l 193 402 z "},"ǻ":{"ha":780,"x_min":132,"x_max":646,"o":"m 347 1215 l 541 1403 l 585 1293 l 391 1104 l 347 1215 m 395 868 q 435 886 416 868 q 453 926 453 903 q 453 928 453 928 q 435 971 453 955 q 392 989 415 989 q 391 989 391 989 q 347 970 366 989 q 329 928 329 952 q 329 925 329 927 q 349 884 331 901 q 395 868 367 869 m 236 930 q 281 1038 236 994 q 391 1082 327 1082 q 499 1038 453 1082 q 545 930 545 993 q 499 823 545 868 q 391 779 454 779 q 279 823 323 779 q 236 930 236 867 m 243 199 q 261 153 243 177 q 365 110 294 110 q 441 130 408 110 l 482 28 q 365 0 429 0 q 184 75 263 0 q 132 199 132 129 q 132 205 132 202 q 261 385 132 332 l 537 498 q 494 606 537 562 q 387 650 452 650 q 286 607 330 650 q 243 503 244 566 l 243 493 l 134 445 l 134 505 q 216 686 134 600 q 391 760 285 760 q 571 685 496 760 q 646 505 646 610 l 646 47 l 537 0 l 537 379 l 314 288 q 243 199 243 255 z "},"Ǽ":{"ha":780,"x_min":75,"x_max":765,"o":"m 347 1183 l 541 1371 l 584 1261 l 390 1072 l 347 1183 m 184 458 l 183 47 l 75 0 l 75 840 q 129 970 75 916 q 260 1025 183 1025 q 378 983 330 1025 l 444 1012 l 677 1011 l 629 903 l 444 903 l 444 566 l 677 566 l 629 458 l 444 458 l 444 122 l 765 122 l 718 14 l 336 14 l 336 458 l 184 458 m 184 566 l 336 566 l 336 838 q 314 895 336 872 q 261 918 292 918 q 207 895 230 918 q 184 837 184 871 l 184 566 z "},"ǽ":{"ha":780,"x_min":64,"x_max":716,"o":"m 347 904 l 541 1093 l 584 982 l 390 793 l 347 904 m 607 513 l 606 572 q 583 629 606 607 q 529 653 560 653 q 476 629 498 653 q 454 581 457 609 q 454 572 454 577 l 454 572 l 454 438 l 607 513 m 345 572 q 323 629 345 606 q 271 653 301 653 q 216 629 239 653 q 193 572 195 608 l 193 557 l 84 510 l 84 575 q 138 705 84 648 q 269 760 189 760 q 400 707 349 760 q 530 760 451 760 q 661 705 610 760 q 715 575 715 648 l 716 442 l 454 318 l 454 182 q 476 130 456 152 q 529 106 498 106 q 583 130 560 106 q 606 188 604 151 l 607 202 l 715 250 l 715 184 q 661 54 715 112 q 530 0 610 0 q 422 33 467 0 l 345 0 l 345 178 q 345 187 345 186 l 345 188 l 345 235 l 345 330 l 246 288 q 176 199 176 255 q 193 153 176 177 q 279 111 222 115 l 313 1 q 297 0 305 0 q 117 75 195 0 q 64 199 64 129 l 64 205 q 193 385 64 332 l 345 448 l 345 572 l 345 572 z "},"Ǿ":{"ha":780,"x_min":40,"x_max":741,"o":"m 347 1183 l 541 1371 l 584 1261 l 390 1072 l 347 1183 m 193 725 l 193 300 q 195 265 193 282 l 524 869 q 390 921 467 921 q 250 864 308 921 q 193 725 193 806 m 696 723 l 696 302 q 606 89 696 177 q 390 0 517 0 q 207 59 286 0 l 138 -67 l 40 -21 l 129 143 q 84 302 84 214 l 84 723 q 174 936 84 848 q 390 1025 263 1025 q 575 964 495 1025 l 643 1088 l 741 1042 l 652 879 q 696 723 696 810 m 585 755 l 258 154 q 390 104 313 104 q 529 161 471 104 q 587 300 587 218 l 587 725 q 585 755 587 741 z "},"ǿ":{"ha":780,"x_min":40,"x_max":739,"o":"m 347 904 l 541 1093 l 584 982 l 390 793 l 347 904 m 134 505 q 209 685 134 610 q 389 760 283 760 q 552 702 482 760 l 641 827 l 739 781 l 621 614 q 646 505 646 565 l 646 255 q 570 75 646 149 q 389 0 495 0 q 227 58 296 0 l 138 -67 l 40 -21 l 158 146 q 134 255 134 195 l 134 505 m 243 265 l 488 612 q 385 650 446 650 q 286 607 328 650 q 243 507 243 565 l 243 503 l 243 265 m 537 496 l 292 149 q 393 110 336 110 q 494 153 450 110 q 537 257 536 194 l 537 496 z "},"Ȁ":{"ha":780,"x_min":60,"x_max":696,"o":"m 298 1185 l 254 1074 l 60 1263 l 104 1373 l 298 1185 m 558 1182 l 515 1072 l 321 1260 l 364 1371 l 558 1182 m 696 723 l 696 47 l 587 0 l 587 458 l 193 458 l 193 47 l 84 0 l 84 723 q 174 936 84 848 q 390 1025 263 1025 q 606 936 517 1025 q 696 723 696 848 m 193 566 l 587 566 l 587 725 q 529 863 587 806 q 390 921 471 921 q 250 863 309 921 q 193 727 193 806 l 193 725 l 193 566 z "},"ȁ":{"ha":780,"x_min":68,"x_max":646,"o":"m 305 916 l 262 806 l 68 994 l 111 1105 l 305 916 m 566 913 l 522 803 l 328 991 l 372 1102 l 566 913 m 243 199 q 261 153 243 177 q 365 110 294 110 q 441 130 408 110 l 482 28 q 365 0 429 0 q 184 75 263 0 q 132 199 132 129 q 132 205 132 202 q 261 385 132 332 l 537 498 q 494 606 537 562 q 387 650 452 650 q 286 607 330 650 q 243 503 244 566 l 243 493 l 134 445 l 134 505 q 216 686 134 600 q 391 760 285 760 q 571 685 496 760 q 646 505 646 610 l 646 47 l 537 0 l 537 379 l 314 288 q 243 199 243 255 z "},"Ȃ":{"ha":780,"x_min":84,"x_max":696,"o":"m 281 1099 q 191 1148 281 1099 q 227 1190 202 1166 q 388 1256 294 1256 q 549 1190 484 1256 q 586 1144 571 1168 l 497 1095 q 477 1120 489 1108 q 389 1156 441 1156 q 299 1120 336 1156 q 281 1099 282 1103 m 696 723 l 696 47 l 587 0 l 587 458 l 193 458 l 193 47 l 84 0 l 84 723 q 174 936 84 848 q 390 1025 263 1025 q 606 936 517 1025 q 696 723 696 848 m 193 566 l 587 566 l 587 725 q 529 863 587 806 q 390 921 471 921 q 250 863 309 921 q 193 727 193 806 l 193 725 l 193 566 z "},"ȃ":{"ha":780,"x_min":132,"x_max":646,"o":"m 286 863 q 197 911 286 863 q 232 954 208 930 q 393 1019 297 1019 q 555 954 489 1019 q 591 907 576 932 l 503 859 q 483 883 494 871 q 394 919 447 919 q 304 883 342 919 q 286 863 288 867 m 243 199 q 261 153 243 177 q 365 110 294 110 q 441 130 408 110 l 482 28 q 365 0 429 0 q 184 75 263 0 q 132 199 132 129 q 132 205 132 202 q 261 385 132 332 l 537 498 q 494 606 537 562 q 387 650 452 650 q 286 607 330 650 q 243 503 244 566 l 243 493 l 134 445 l 134 505 q 216 686 134 600 q 391 760 285 760 q 571 685 496 760 q 646 505 646 610 l 646 47 l 537 0 l 537 379 l 314 288 q 243 199 243 255 z "},"Ȅ":{"ha":780,"x_min":60,"x_max":730,"o":"m 298 1185 l 254 1074 l 60 1263 l 104 1373 l 298 1185 m 558 1182 l 515 1072 l 321 1260 l 364 1371 l 558 1182 m 247 458 l 247 122 l 730 122 l 682 14 l 138 14 l 138 964 l 247 1012 l 642 1011 l 594 903 l 247 903 l 247 566 l 642 566 l 594 458 l 247 458 z "},"ȅ":{"ha":780,"x_min":68,"x_max":646,"o":"m 305 916 l 262 806 l 68 994 l 111 1105 l 305 916 m 566 913 l 522 803 l 328 991 l 372 1102 l 566 913 m 393 110 q 494 153 450 110 q 537 257 536 194 l 537 267 l 646 315 l 646 255 q 564 73 646 160 q 389 0 495 0 q 209 75 283 0 q 134 255 134 149 l 134 505 q 209 685 134 610 q 389 760 283 760 q 570 685 491 760 q 646 505 646 614 l 646 441 l 243 262 q 286 154 243 197 q 393 110 328 110 m 385 650 q 286 607 328 650 q 243 505 243 564 q 243 503 243 503 l 243 380 l 536 511 q 494 607 533 568 q 385 650 450 650 z "},"Ȇ":{"ha":780,"x_min":138,"x_max":730,"o":"m 281 1099 q 191 1148 281 1099 q 227 1190 202 1166 q 388 1256 294 1256 q 549 1190 484 1256 q 586 1144 571 1168 l 497 1095 q 477 1120 489 1108 q 389 1156 441 1156 q 299 1120 336 1156 q 281 1099 282 1103 m 247 458 l 247 122 l 730 122 l 682 14 l 138 14 l 138 964 l 247 1012 l 642 1011 l 594 903 l 247 903 l 247 566 l 642 566 l 594 458 l 247 458 z "},"ȇ":{"ha":780,"x_min":134,"x_max":646,"o":"m 286 863 q 197 911 286 863 q 232 954 208 930 q 393 1019 297 1019 q 555 954 489 1019 q 591 907 576 932 l 503 859 q 483 883 494 871 q 394 919 447 919 q 304 883 342 919 q 286 863 288 867 m 393 110 q 494 153 450 110 q 537 257 536 194 l 537 267 l 646 315 l 646 255 q 564 73 646 160 q 389 0 495 0 q 209 75 283 0 q 134 255 134 149 l 134 505 q 209 685 134 610 q 389 760 283 760 q 570 685 491 760 q 646 505 646 614 l 646 441 l 243 262 q 286 154 243 197 q 393 110 328 110 m 385 650 q 286 607 328 650 q 243 505 243 564 q 243 503 243 503 l 243 380 l 536 511 q 494 607 533 568 q 385 650 450 650 z "},"Ȉ":{"ha":780,"x_min":60,"x_max":686,"o":"m 298 1185 l 254 1074 l 60 1263 l 104 1373 l 298 1185 m 558 1182 l 515 1072 l 321 1260 l 364 1371 l 558 1182 m 142 1011 l 686 1011 l 638 903 l 444 903 l 444 122 l 686 122 l 638 14 l 94 14 l 142 122 l 336 122 l 336 903 l 94 903 l 142 1011 z "},"ȉ":{"ha":780,"x_min":-66,"x_max":646,"o":"m 172 916 l 128 806 l -66 994 l -22 1105 l 172 916 m 432 913 l 389 803 l 195 991 l 238 1102 l 432 913 m 537 262 l 646 309 l 646 255 q 571 75 646 149 q 391 0 496 0 q 210 75 285 0 q 134 255 134 149 l 134 712 l 243 760 l 243 257 q 286 153 244 194 q 395 110 330 110 q 494 156 452 110 q 537 262 537 202 z "},"Ȋ":{"ha":780,"x_min":94,"x_max":686,"o":"m 281 1099 q 191 1148 281 1099 q 227 1190 202 1166 q 388 1256 294 1256 q 549 1190 484 1256 q 586 1144 571 1168 l 497 1095 q 477 1120 489 1108 q 389 1156 441 1156 q 299 1120 336 1156 q 281 1099 282 1103 m 142 1011 l 686 1011 l 638 903 l 444 903 l 444 122 l 686 122 l 638 14 l 94 14 l 142 122 l 336 122 l 336 903 l 94 903 l 142 1011 z "},"ȋ":{"ha":780,"x_min":-8,"x_max":646,"o":"m 81 869 q -8 918 81 869 q 27 960 3 936 q 189 1025 92 1025 q 350 960 284 1025 q 387 913 372 938 l 298 865 q 278 889 290 878 q 189 925 242 925 q 100 889 137 925 q 81 869 83 873 m 537 262 l 646 309 l 646 255 q 571 75 646 149 q 391 0 496 0 q 210 75 285 0 q 134 255 134 149 l 134 712 l 243 760 l 243 257 q 286 153 244 194 q 395 110 330 110 q 494 156 452 110 q 537 262 537 202 z "},"Ȍ":{"ha":780,"x_min":60,"x_max":696,"o":"m 298 1185 l 254 1074 l 60 1263 l 104 1373 l 298 1185 m 558 1182 l 515 1072 l 321 1260 l 364 1371 l 558 1182 m 696 723 q 696 302 696 723 q 606 89 696 177 q 390 0 517 0 q 174 88 262 0 q 84 302 84 177 l 84 723 q 174 936 84 848 q 390 1025 263 1025 q 606 936 517 1025 q 696 723 696 848 m 193 725 l 193 300 q 250 161 193 219 q 390 104 308 104 q 529 161 471 104 q 587 300 587 218 l 587 725 q 529 863 587 806 q 390 921 471 921 q 250 864 308 921 q 193 725 193 806 z "},"ȍ":{"ha":780,"x_min":68,"x_max":646,"o":"m 305 916 l 262 806 l 68 994 l 111 1105 l 305 916 m 566 913 l 522 803 l 328 991 l 372 1102 l 566 913 m 243 257 q 288 153 243 195 q 393 110 334 110 q 494 153 450 110 q 537 257 536 194 l 537 503 q 494 607 536 566 q 385 650 450 650 q 286 607 328 650 q 243 507 243 565 l 243 503 l 243 257 m 134 505 q 209 685 134 610 q 389 760 283 760 q 570 685 495 760 q 646 505 646 610 l 646 255 q 570 75 646 149 q 389 0 495 0 q 209 75 283 0 q 134 255 134 149 l 134 505 z "},"Ȏ":{"ha":780,"x_min":84,"x_max":696,"o":"m 281 1099 q 191 1148 281 1099 q 227 1190 202 1166 q 388 1256 294 1256 q 549 1190 484 1256 q 586 1144 571 1168 l 497 1095 q 477 1120 489 1108 q 389 1156 441 1156 q 299 1120 336 1156 q 281 1099 282 1103 m 696 723 q 696 302 696 723 q 606 89 696 177 q 390 0 517 0 q 174 88 262 0 q 84 302 84 177 l 84 723 q 174 936 84 848 q 390 1025 263 1025 q 606 936 517 1025 q 696 723 696 848 m 193 725 l 193 300 q 250 161 193 219 q 390 104 308 104 q 529 161 471 104 q 587 300 587 218 l 587 725 q 529 863 587 806 q 390 921 471 921 q 250 864 308 921 q 193 725 193 806 z "},"ȏ":{"ha":780,"x_min":134,"x_max":646,"o":"m 286 863 q 197 911 286 863 q 232 954 208 930 q 393 1019 297 1019 q 555 954 489 1019 q 591 907 576 932 l 503 859 q 483 883 494 871 q 394 919 447 919 q 304 883 342 919 q 286 863 288 867 m 243 257 q 288 153 243 195 q 393 110 334 110 q 494 153 450 110 q 537 257 536 194 l 537 503 q 494 607 536 566 q 385 650 450 650 q 286 607 328 650 q 243 507 243 565 l 243 503 l 243 257 m 134 505 q 209 685 134 610 q 389 760 283 760 q 570 685 495 760 q 646 505 646 610 l 646 255 q 570 75 646 149 q 389 0 495 0 q 209 75 283 0 q 134 255 134 149 l 134 505 z "},"Ȑ":{"ha":780,"x_min":60,"x_max":699,"o":"m 298 1185 l 254 1074 l 60 1263 l 104 1373 l 298 1185 m 558 1182 l 515 1072 l 321 1260 l 364 1371 l 558 1182 m 190 399 l 190 47 l 81 0 l 81 977 l 190 1011 l 389 1011 q 602 922 514 1011 q 690 705 690 831 q 602 489 690 578 q 513 425 562 448 l 699 47 l 589 0 l 403 399 q 389 399 396 399 l 190 399 m 190 903 l 190 508 l 391 508 q 529 566 471 508 q 587 705 587 623 q 529 844 587 786 q 391 903 471 903 l 190 903 z "},"ȑ":{"ha":780,"x_min":68,"x_max":646,"o":"m 305 916 l 262 806 l 68 994 l 111 1105 l 305 916 m 566 913 l 522 803 l 328 991 l 372 1102 l 566 913 m 391 650 q 286 607 330 650 q 243 505 243 564 q 243 503 243 503 l 243 47 l 134 0 l 134 505 q 209 685 134 610 q 389 760 283 760 q 570 685 497 760 q 646 505 646 608 l 646 502 l 537 454 l 537 503 q 494 607 536 566 q 391 650 450 650 z "},"Ȓ":{"ha":780,"x_min":81,"x_max":699,"o":"m 281 1099 q 191 1148 281 1099 q 227 1190 202 1166 q 388 1256 294 1256 q 549 1190 484 1256 q 586 1144 571 1168 l 497 1095 q 477 1120 489 1108 q 389 1156 441 1156 q 299 1120 336 1156 q 281 1099 282 1103 m 190 399 l 190 47 l 81 0 l 81 977 l 190 1011 l 389 1011 q 602 922 514 1011 q 690 705 690 831 q 602 489 690 578 q 513 425 562 448 l 699 47 l 589 0 l 403 399 q 389 399 396 399 l 190 399 m 190 903 l 190 508 l 391 508 q 529 566 471 508 q 587 705 587 623 q 529 844 587 786 q 391 903 471 903 l 190 903 z "},"ȓ":{"ha":780,"x_min":134,"x_max":646,"o":"m 286 863 q 197 911 286 863 q 232 954 208 930 q 393 1019 297 1019 q 555 954 489 1019 q 591 907 576 932 l 503 859 q 483 883 494 871 q 394 919 447 919 q 304 883 342 919 q 286 863 288 867 m 391 650 q 286 607 330 650 q 243 505 243 564 q 243 503 243 503 l 243 47 l 134 0 l 134 505 q 209 685 134 610 q 389 760 283 760 q 570 685 497 760 q 646 505 646 608 l 646 502 l 537 454 l 537 503 q 494 607 536 566 q 391 650 450 650 z "},"Ȕ":{"ha":780,"x_min":60,"x_max":696,"o":"m 298 1185 l 254 1074 l 60 1263 l 104 1373 l 298 1185 m 558 1182 l 515 1072 l 321 1260 l 364 1371 l 558 1182 m 84 302 l 84 977 l 193 1025 l 193 300 q 251 161 193 218 q 390 104 309 104 q 530 161 471 104 q 587 298 587 218 q 587 300 587 299 l 587 977 l 696 1025 l 696 302 q 606 89 696 177 q 390 0 517 0 q 174 89 263 0 q 84 302 84 177 z "},"ȕ":{"ha":780,"x_min":68,"x_max":646,"o":"m 305 916 l 262 806 l 68 994 l 111 1105 l 305 916 m 566 913 l 522 803 l 328 991 l 372 1102 l 566 913 m 395 110 q 494 153 452 110 q 537 255 537 195 q 537 257 537 256 l 537 712 q 646 760 537 712 l 646 255 q 571 75 646 149 q 391 0 496 0 q 210 75 285 0 q 134 255 134 149 l 134 712 l 243 760 l 243 257 q 286 153 244 194 q 395 110 330 110 z "},"Ȗ":{"ha":780,"x_min":84,"x_max":696,"o":"m 281 1099 q 191 1148 281 1099 q 227 1190 202 1166 q 388 1256 294 1256 q 549 1190 484 1256 q 586 1144 571 1168 l 497 1095 q 477 1120 489 1108 q 389 1156 441 1156 q 299 1120 336 1156 q 281 1099 282 1103 m 84 302 l 84 977 l 193 1025 l 193 300 q 251 161 193 218 q 390 104 309 104 q 530 161 471 104 q 587 298 587 218 q 587 300 587 299 l 587 977 l 696 1025 l 696 302 q 606 89 696 177 q 390 0 517 0 q 174 89 263 0 q 84 302 84 177 z "},"ȗ":{"ha":780,"x_min":134,"x_max":646,"o":"m 286 863 q 197 911 286 863 q 232 954 208 930 q 393 1019 297 1019 q 555 954 489 1019 q 591 907 576 932 l 503 859 q 483 883 494 871 q 394 919 447 919 q 304 883 342 919 q 286 863 288 867 m 395 110 q 494 153 452 110 q 537 255 537 195 q 537 257 537 256 l 537 712 q 646 760 537 712 l 646 255 q 571 75 646 149 q 391 0 496 0 q 210 75 285 0 q 134 255 134 149 l 134 712 l 243 760 l 243 257 q 286 153 244 194 q 395 110 330 110 z "},"Ș":{"ha":780,"x_min":85,"x_max":695,"o":"m 197 -217 l 391 -28 l 434 -139 l 240 -328 l 197 -217 m 389 616 q 606 519 522 601 q 695 307 695 433 l 695 304 q 607 88 695 176 q 391 0 518 0 q 174 88 262 0 q 85 302 85 179 l 85 311 l 193 358 l 193 300 q 252 161 193 218 q 391 104 310 104 q 530 161 473 104 q 588 300 588 220 q 532 438 588 385 q 393 504 469 498 q 191 587 264 514 q 115 769 115 663 q 190 950 115 876 q 370 1025 264 1025 q 551 950 477 1025 q 627 770 627 874 l 627 763 l 518 714 l 518 768 q 475 872 517 831 q 370 916 431 916 q 268 873 310 916 q 224 769 224 829 q 268 665 224 709 q 389 616 309 625 z "},"ș":{"ha":780,"x_min":138,"x_max":642,"o":"m 197 -217 l 391 -28 l 434 -139 l 240 -328 l 197 -217 m 395 110 q 494 151 455 110 q 534 244 534 193 q 494 330 534 290 q 386 374 454 371 q 252 425 302 378 q 195 555 204 471 q 194 568 194 562 q 254 699 197 642 q 394 760 311 760 q 534 699 481 760 q 589 591 570 659 l 491 548 q 458 619 480 593 q 393 647 433 647 q 328 619 356 647 q 302 561 302 593 q 302 557 302 559 q 327 501 302 525 q 392 474 349 479 q 573 401 510 460 q 642 239 642 335 l 642 237 q 575 75 641 146 q 395 0 506 0 q 220 73 288 0 q 138 255 143 154 l 138 262 l 246 309 l 247 257 q 290 153 248 194 q 395 110 333 110 z "},"Ț":{"ha":780,"x_min":31,"x_max":749,"o":"m 197 -217 l 391 -28 l 434 -139 l 240 -328 l 197 -217 m 78 1011 l 749 1011 l 702 903 l 444 903 l 444 47 l 336 0 l 336 903 l 31 903 l 78 1011 z "},"ț":{"ha":780,"x_min":50,"x_max":646,"o":"m 197 -217 l 391 -28 l 434 -139 l 240 -328 l 197 -217 m 537 262 q 646 309 537 262 l 646 255 q 571 75 646 149 q 391 0 496 0 q 210 75 285 0 q 134 255 134 149 l 134 637 l 50 637 l 98 746 l 134 746 l 134 977 l 243 1025 l 243 746 l 587 746 l 540 637 l 243 637 l 243 257 q 286 153 244 193 q 389 110 330 110 q 494 153 450 110 q 537 262 537 195 z "},"ȷ":{"ha":780,"x_min":134,"x_max":646,"o":"m 395 -161 q 494 -119 452 -161 q 537 -16 537 -76 q 537 -14 537 -16 l 537 712 q 646 760 537 712 l 646 -16 q 571 -197 646 -122 q 391 -271 496 -271 q 209 -197 282 -271 q 134 -16 134 -121 l 134 262 l 243 309 l 243 -14 q 286 -119 244 -77 q 395 -161 329 -161 z "},"ˆ":{"ha":780,"x_min":214,"x_max":566,"o":"m 392 1060 l 566 900 l 517 801 l 391 935 l 259 801 l 214 897 l 392 1060 z "},"ˇ":{"ha":780,"x_min":214,"x_max":566,"o":"m 392 799 l 214 962 l 259 1058 l 391 924 l 517 1058 l 566 959 l 392 799 z "},"ˉ":{"ha":780,"x_min":151,"x_max":629,"o":"m 198 963 l 629 963 l 582 854 l 151 854 l 198 963 z "},"˘":{"ha":780,"x_min":193,"x_max":587,"o":"m 282 1015 q 300 995 283 1011 q 390 959 338 959 q 479 995 443 959 q 498 1019 490 1006 l 587 970 q 551 924 572 946 q 389 859 485 859 q 228 924 293 859 q 193 966 203 948 l 282 1015 z "},"˙":{"ha":780,"x_min":302,"x_max":478,"o":"m 328 872 q 315 885 328 872 q 302 935 302 898 q 328 999 302 972 q 390 1025 353 1025 q 452 999 427 1025 q 478 935 478 972 q 452 872 478 898 q 390 846 427 846 q 328 872 353 846 z "},"˚":{"ha":780,"x_min":235,"x_max":545,"o":"m 395 903 q 434 921 415 903 q 452 962 452 938 q 452 964 452 963 q 434 1006 452 990 q 391 1024 414 1024 q 390 1024 391 1024 q 346 1005 365 1024 q 328 964 328 987 q 328 960 328 962 q 349 920 330 936 q 395 903 366 904 m 235 966 q 281 1074 235 1029 q 390 1118 326 1118 q 498 1073 452 1118 q 545 966 545 1028 q 498 858 545 903 q 390 814 454 814 q 279 859 325 814 q 235 966 235 903 z "},"˛":{"ha":780,"x_min":281,"x_max":499,"o":"m 499 -214 l 496 -333 l 281 -238 l 283 -119 l 381 98 l 460 9 l 380 -165 l 499 -214 z "},"˜":{"ha":780,"x_min":151,"x_max":629,"o":"m 463 931 l 580 1055 l 629 956 l 454 795 l 319 920 l 197 795 l 151 892 l 329 1055 l 463 931 z "},"˝":{"ha":780,"x_min":214,"x_max":712,"o":"m 475 907 l 669 1095 l 712 985 l 518 796 l 475 907 m 214 904 l 408 1093 l 452 982 l 258 793 l 214 904 z "},"̈":{"ha":780,"x_min":149,"x_max":631,"o":"m 481 872 q 468 885 481 872 q 455 935 455 898 q 481 999 455 972 q 543 1025 507 1025 q 606 999 580 1025 q 631 935 631 972 q 606 872 631 898 q 543 846 580 846 q 481 872 507 846 m 174 872 q 161 885 174 872 q 149 935 149 898 q 174 999 149 972 q 237 1025 200 1025 q 299 999 273 1025 q 325 935 325 972 q 299 872 325 898 q 237 846 273 846 q 174 872 200 846 z "},"Ͱ":{"ha":780,"x_min":115,"x_max":665,"o":"m 665 566 l 618 458 l 223 458 l 223 47 l 115 0 l 115 977 l 223 1025 l 223 566 l 665 566 z "},"ͱ":{"ha":780,"x_min":167,"x_max":613,"o":"m 613 427 l 566 319 l 274 319 l 275 47 l 167 0 l 167 712 l 275 760 l 274 427 l 613 427 z "},"Ͳ":{"ha":780,"x_min":29,"x_max":749,"o":"m 749 1011 l 749 686 l 640 638 l 641 903 l 444 903 l 444 47 l 336 0 l 336 903 l 139 903 l 139 686 l 29 638 l 31 1011 l 749 1011 z "},"ͳ":{"ha":780,"x_min":122,"x_max":658,"o":"m 658 1011 l 658 686 l 548 638 l 549 903 l 444 903 l 444 47 l 335 0 l 335 903 l 232 903 l 232 686 l 122 638 l 123 1011 l 658 1011 z "},"ʹ":{"ha":780,"x_min":301,"x_max":479,"o":"m 301 764 l 377 1025 l 479 979 l 403 719 l 301 764 z "},"͵":{"ha":780,"x_min":301,"x_max":479,"o":"m 301 -213 l 377 47 l 479 2 l 403 -258 l 301 -213 z "},"Ͷ":{"ha":780,"x_min":84,"x_max":696,"o":"m 193 266 l 587 977 l 696 1025 l 696 47 l 587 0 l 587 760 l 193 47 l 84 0 l 84 977 l 193 1025 l 193 266 z "},"ͷ":{"ha":780,"x_min":134,"x_max":645,"o":"m 243 243 l 536 712 l 645 760 l 645 47 l 536 0 l 536 513 l 243 47 l 134 0 l 134 712 l 243 760 l 243 243 z "},"ͺ":{"ha":780,"x_min":281,"x_max":499,"o":"m 499 -214 l 496 -333 l 281 -238 l 283 -119 l 381 98 l 460 9 l 380 -165 l 499 -214 z "},"ͻ":{"ha":780,"x_min":121,"x_max":659,"o":"m 229 612 l 146 680 q 353 760 233 760 q 570 671 480 760 q 659 458 659 583 l 659 302 q 570 88 659 178 q 353 0 481 0 q 137 88 233 0 q 121 106 130 94 l 205 171 q 214 161 209 167 q 353 104 272 104 q 493 161 435 104 q 551 300 551 219 l 551 460 q 493 598 551 541 q 353 656 435 656 q 229 612 283 656 z "},"ͼ":{"ha":780,"x_min":121,"x_max":659,"o":"m 362 309 q 349 322 362 309 q 336 372 336 335 q 362 436 336 410 q 425 462 388 462 q 487 436 461 462 q 513 372 513 410 q 487 309 513 335 q 425 283 461 283 q 362 309 388 283 m 551 612 q 427 656 497 656 q 287 598 345 656 q 229 460 229 541 l 229 300 q 287 161 229 219 q 427 104 345 104 q 566 161 508 104 q 574 171 571 167 l 659 106 q 643 88 650 94 q 427 0 547 0 q 210 88 298 0 q 121 302 121 178 l 121 458 q 210 671 121 583 q 427 760 300 760 q 633 680 547 760 l 551 612 z "},"ͽ":{"ha":780,"x_min":121,"x_max":659,"o":"m 418 436 q 431 423 418 436 q 444 372 444 410 q 418 309 444 335 q 355 283 392 283 q 293 309 319 283 q 267 372 267 335 q 293 436 267 410 q 355 462 319 462 q 418 436 392 462 m 229 612 q 146 680 229 612 q 353 760 233 760 q 570 671 480 760 q 659 458 659 583 l 659 302 q 570 88 659 178 q 353 0 481 0 q 137 88 233 0 q 121 106 130 94 l 205 171 q 214 161 209 167 q 353 104 272 104 q 493 161 435 104 q 551 300 551 219 l 551 460 q 493 598 551 541 q 353 656 435 656 q 229 612 283 656 z "},";":{"ha":780,"x_min":265,"x_max":478,"o":"m 355 3 q 315 26 332 8 q 289 90 289 52 q 315 153 289 127 q 377 179 340 179 q 439 155 410 179 q 475 85 469 131 q 477 55 477 70 q 450 -52 477 1 q 327 -164 401 -149 q 288 -168 307 -168 q 265 -167 277 -168 q 292 -93 279 -127 q 340 -59 320 -90 q 355 -12 355 -36 q 355 3 355 -4 m 328 447 q 315 460 328 447 q 302 510 302 473 q 328 573 302 547 q 390 600 353 600 q 452 573 427 600 q 478 510 478 547 q 452 447 478 473 q 390 420 427 420 q 328 447 353 420 z "},"΄":{"ha":780,"x_min":347,"x_max":584,"o":"m 347 1183 l 541 1371 l 584 1261 l 390 1072 l 347 1183 z "},"΅":{"ha":780,"x_min":149,"x_max":631,"o":"m 347 1183 l 541 1371 l 584 1261 l 390 1072 l 347 1183 m 481 872 q 468 885 481 872 q 455 935 455 898 q 481 999 455 972 q 543 1025 507 1025 q 606 999 580 1025 q 631 935 631 972 q 606 872 631 898 q 543 846 580 846 q 481 872 507 846 m 174 872 q 161 885 174 872 q 149 935 149 898 q 174 999 149 972 q 237 1025 200 1025 q 299 999 273 1025 q 325 935 325 972 q 299 872 325 898 q 237 846 273 846 q 174 872 200 846 z "},"Ά":{"ha":780,"x_min":32,"x_max":748,"o":"m 40 949 l 234 1137 l 277 1027 l 83 838 l 40 949 m 446 1025 l 748 47 l 649 0 l 551 318 l 229 318 l 130 0 l 32 47 l 324 977 l 446 1025 m 262 427 l 517 427 l 390 839 l 262 427 z "},"·":{"ha":780,"x_min":302,"x_max":478,"o":"m 328 447 q 315 460 328 447 q 302 510 302 473 q 328 573 302 547 q 390 600 353 600 q 452 573 427 600 q 478 510 478 547 q 452 447 478 473 q 390 420 427 420 q 328 447 353 420 z "},"Έ":{"ha":780,"x_min":0,"x_max":706,"o":"m 0 949 l 194 1137 l 237 1027 l 43 838 l 0 949 m 294 458 l 294 122 l 706 122 l 659 14 l 185 14 l 185 964 l 294 1012 l 618 1011 l 570 903 l 294 903 l 294 566 l 618 566 l 570 458 l 294 458 z "},"Ή":{"ha":780,"x_min":0,"x_max":721,"o":"m 0 949 l 194 1137 l 237 1027 l 43 838 l 0 949 m 197 977 l 306 1025 l 306 566 l 612 566 l 612 977 l 721 1025 l 721 47 l 612 0 l 612 458 l 306 458 l 306 47 l 197 0 l 197 977 z "},"Ί":{"ha":780,"x_min":0,"x_max":619,"o":"m 0 949 l 194 1137 l 237 1027 l 43 838 l 0 949 m 238 1011 l 619 1011 l 572 903 l 460 903 l 460 122 l 619 122 l 572 14 l 191 14 l 238 122 l 351 122 l 351 903 l 191 903 l 238 1011 z "},"Ό":{"ha":780,"x_min":0,"x_max":729,"o":"m 0 948 l 194 1137 l 237 1026 l 43 838 l 0 948 m 729 723 q 729 302 729 723 q 640 89 729 177 q 423 0 550 0 q 207 88 296 0 q 117 302 117 177 l 117 723 q 207 936 117 848 q 423 1025 296 1025 q 640 936 550 1025 q 729 723 729 848 m 226 725 l 226 300 q 283 161 226 219 q 423 104 341 104 q 562 161 504 104 q 621 300 620 218 l 621 725 q 562 863 620 806 q 423 921 504 921 q 283 864 341 921 q 226 725 226 806 z "},"Ύ":{"ha":780,"x_min":0,"x_max":776,"o":"m 0 949 l 194 1137 l 237 1027 l 43 838 l 0 949 m 529 389 l 530 47 l 421 0 l 420 342 l 206 978 l 305 1025 l 470 523 l 678 1027 l 776 979 l 529 389 z "},"Ώ":{"ha":780,"x_min":0,"x_max":763,"o":"m 0 948 l 194 1137 l 237 1026 l 43 838 l 0 948 m 348 341 l 348 14 l 65 14 l 113 122 l 239 122 l 239 280 q 198 315 218 295 q 109 528 109 404 l 109 723 q 198 936 109 848 q 414 1025 288 1025 q 631 936 541 1025 q 720 723 720 848 l 720 528 q 631 315 720 401 q 589 280 610 295 l 589 122 l 763 122 l 715 14 l 480 14 l 480 341 q 553 388 520 355 q 612 526 611 444 l 612 725 q 553 863 611 806 q 414 921 495 921 q 275 864 332 921 q 217 725 217 806 l 217 526 q 275 388 217 446 q 348 341 307 355 z "},"ΐ":{"ha":780,"x_min":79,"x_max":643,"o":"m 277 1182 l 471 1371 l 514 1260 l 320 1072 l 277 1182 m 411 871 q 398 884 411 871 q 385 935 385 897 q 411 998 385 972 q 473 1024 437 1024 q 536 998 510 1024 q 562 935 562 972 q 536 871 562 897 q 473 845 510 845 q 411 871 437 845 m 104 871 q 92 884 104 871 q 79 935 79 897 q 104 998 79 972 q 167 1024 130 1024 q 229 998 203 1024 q 255 935 255 972 q 229 871 255 897 q 167 845 203 845 q 104 871 130 845 m 594 0 q 510 0 552 0 q 378 53 431 0 q 324 187 324 108 l 324 188 l 324 637 l 137 637 l 184 746 l 433 746 l 433 188 q 456 130 433 154 q 508 106 477 107 q 643 106 540 106 l 594 0 z "},"Α":{"ha":780,"x_min":32,"x_max":748,"o":"m 446 1025 l 748 47 l 649 0 l 551 318 l 229 318 l 130 0 l 32 47 l 324 977 l 446 1025 m 262 427 l 517 427 l 390 839 l 262 427 z "},"Β":{"ha":780,"x_min":85,"x_max":694,"o":"m 85 14 l 85 964 l 194 1011 l 365 1011 q 545 937 471 1011 q 619 770 619 863 q 547 590 619 664 l 543 586 q 606 536 576 566 q 694 319 694 447 q 606 103 694 193 q 393 14 518 14 l 85 14 m 194 122 l 395 122 q 533 180 475 122 q 591 319 591 239 q 533 459 591 401 q 395 517 475 517 l 368 517 l 194 517 l 194 122 m 366 625 q 469 661 435 626 q 511 764 511 705 q 511 771 511 767 q 467 859 511 820 q 363 903 422 901 l 194 903 l 194 625 l 366 625 z "},"Γ":{"ha":780,"x_min":94,"x_max":686,"o":"m 94 0 l 94 1011 l 686 1011 l 638 903 l 203 903 l 203 47 l 94 0 z "},"Δ":{"ha":780,"x_min":17,"x_max":763,"o":"m 17 0 l 324 977 l 446 1025 l 763 0 l 17 0 m 161 109 l 616 109 l 390 839 l 161 109 z "},"Ε":{"ha":780,"x_min":138,"x_max":730,"o":"m 247 458 l 247 122 l 730 122 l 682 14 l 138 14 l 138 964 l 247 1012 l 642 1011 l 594 903 l 247 903 l 247 566 l 642 566 l 594 458 l 247 458 z "},"Ζ":{"ha":780,"x_min":71,"x_max":709,"o":"m 515 903 l 98 903 l 146 1011 l 690 1011 l 244 122 l 709 122 l 661 14 l 71 14 l 515 903 z "},"Η":{"ha":780,"x_min":84,"x_max":696,"o":"m 84 977 l 193 1025 l 193 566 l 587 566 l 587 977 l 696 1025 l 696 47 l 587 0 l 587 458 l 193 458 l 193 47 l 84 0 l 84 977 z "},"Θ":{"ha":780,"x_min":84,"x_max":696,"o":"m 273 559 l 555 559 l 507 450 l 226 450 l 273 559 m 696 723 q 696 302 696 723 q 606 89 696 177 q 390 0 517 0 q 174 88 262 0 q 84 302 84 177 l 84 723 q 174 936 84 848 q 390 1025 263 1025 q 606 936 517 1025 q 696 723 696 848 m 193 725 l 193 300 q 250 161 193 219 q 390 104 308 104 q 529 161 471 104 q 587 300 587 218 l 587 725 q 529 863 587 806 q 390 921 471 921 q 250 864 308 921 q 193 725 193 806 z "},"Ι":{"ha":780,"x_min":94,"x_max":686,"o":"m 142 1011 l 686 1011 l 638 903 l 444 903 l 444 122 l 686 122 l 638 14 l 94 14 l 142 122 l 336 122 l 336 903 l 94 903 l 142 1011 z "},"Κ":{"ha":780,"x_min":95,"x_max":685,"o":"m 368 604 l 685 49 l 578 0 l 285 514 l 202 422 l 203 47 l 95 0 l 95 977 l 203 1025 l 203 570 l 578 1025 l 675 982 l 368 604 z "},"Λ":{"ha":780,"x_min":32,"x_max":748,"o":"m 446 1025 l 748 47 l 649 0 l 390 839 l 130 0 l 32 47 l 324 977 l 446 1025 z "},"Μ":{"ha":780,"x_min":60,"x_max":720,"o":"m 168 622 l 169 47 l 60 0 l 60 977 l 169 1025 l 385 289 l 611 977 l 720 1025 l 720 47 l 611 0 l 610 629 l 444 119 l 336 71 l 168 622 z "},"Ν":{"ha":780,"x_min":84,"x_max":696,"o":"m 587 258 l 587 977 l 696 1025 l 696 47 l 587 0 l 193 766 l 193 47 l 84 0 l 84 977 l 193 1025 l 587 258 z "},"Ξ":{"ha":780,"x_min":57,"x_max":723,"o":"m 210 566 l 617 566 l 570 458 l 163 458 l 210 566 m 104 122 l 723 122 l 675 14 l 57 14 l 104 122 m 104 1011 l 723 1011 l 675 903 l 57 903 l 104 1011 z "},"Ο":{"ha":780,"x_min":84,"x_max":696,"o":"m 696 723 q 696 302 696 723 q 606 89 696 177 q 390 0 517 0 q 174 88 262 0 q 84 302 84 177 l 84 723 q 174 936 84 848 q 390 1025 263 1025 q 606 936 517 1025 q 696 723 696 848 m 193 725 l 193 300 q 250 161 193 219 q 390 104 308 104 q 529 161 471 104 q 587 300 587 218 l 587 725 q 529 863 587 806 q 390 921 471 921 q 250 864 308 921 q 193 725 193 806 z "},"Π":{"ha":780,"x_min":94,"x_max":686,"o":"m 686 47 l 577 0 l 577 903 l 203 903 l 203 47 l 94 0 l 94 1011 l 686 1011 l 686 47 z "},"Ρ":{"ha":780,"x_min":85,"x_max":694,"o":"m 194 903 l 194 508 l 395 508 q 533 566 475 508 q 591 705 591 623 q 533 844 591 786 q 395 903 475 903 l 194 903 m 194 399 l 194 47 l 85 0 l 85 977 l 194 1011 l 393 1011 q 606 922 518 1011 q 694 705 694 831 q 606 489 694 578 q 393 399 517 399 l 194 399 z "},"Σ":{"ha":780,"x_min":94,"x_max":686,"o":"m 509 532 l 280 122 l 686 122 l 638 14 l 94 14 l 378 530 l 94 964 l 203 1012 l 633 1011 l 586 903 l 263 903 l 509 532 z "},"Τ":{"ha":780,"x_min":31,"x_max":749,"o":"m 78 1011 l 749 1011 l 702 903 l 444 903 l 444 47 l 336 0 l 336 903 l 31 903 l 78 1011 z "},"Υ":{"ha":780,"x_min":51,"x_max":729,"o":"m 444 389 l 444 47 l 336 0 l 335 342 l 51 978 l 150 1025 l 384 502 l 631 1027 l 729 979 l 444 389 z "},"Φ":{"ha":780,"x_min":73,"x_max":707,"o":"m 73 534 q 161 746 73 657 q 336 833 236 821 l 336 977 l 444 1025 l 444 833 q 618 746 544 821 q 707 530 706 658 l 707 528 q 618 313 707 401 q 444 227 544 239 l 444 47 l 336 0 l 336 227 q 161 313 235 239 q 73 534 73 403 m 444 724 l 444 336 q 545 391 503 347 q 604 530 604 450 q 546 670 604 612 q 444 724 502 714 m 336 336 l 336 724 q 235 670 278 713 q 176 531 176 612 l 176 530 q 235 391 177 448 q 336 336 278 347 z "},"Χ":{"ha":780,"x_min":56,"x_max":724,"o":"m 56 977 l 153 1025 l 390 618 l 627 1025 l 724 977 l 452 511 l 724 47 l 625 0 l 390 404 l 155 0 l 56 47 l 328 511 l 56 977 z "},"Ψ":{"ha":780,"x_min":75,"x_max":705,"o":"m 75 606 l 75 977 l 183 1025 l 183 604 q 240 465 184 521 q 335 413 281 424 l 336 977 l 444 1025 l 444 414 q 596 581 568 441 l 597 595 l 597 977 l 705 1025 l 705 606 q 609 387 705 474 q 444 307 538 322 l 444 47 l 335 0 l 335 307 q 164 393 237 321 q 75 606 75 481 z "},"Ω":{"ha":780,"x_min":41,"x_max":739,"o":"m 323 341 l 323 14 l 41 14 l 88 122 l 215 122 l 215 280 q 174 315 193 295 q 84 528 84 404 l 84 723 q 174 936 84 848 q 390 1025 263 1025 q 606 936 517 1025 q 696 723 696 848 l 696 528 q 606 315 696 401 q 564 280 586 295 l 564 122 l 739 122 l 691 14 l 456 14 l 456 341 q 529 388 496 355 q 587 526 587 444 l 587 725 q 529 863 587 806 q 390 921 471 921 q 250 864 308 921 q 193 725 193 806 l 193 526 q 250 388 193 446 q 323 341 283 355 z "},"Ϊ":{"ha":780,"x_min":94,"x_max":686,"o":"m 483 1119 q 470 1132 483 1119 q 457 1182 457 1145 q 483 1245 457 1219 q 545 1272 509 1272 q 608 1245 582 1272 q 633 1182 633 1219 q 608 1119 633 1145 q 545 1093 582 1093 q 483 1119 509 1093 m 176 1119 q 163 1132 176 1119 q 151 1182 151 1145 q 176 1245 151 1219 q 239 1272 202 1272 q 301 1245 275 1272 q 327 1182 327 1219 q 301 1119 327 1145 q 239 1093 275 1093 q 176 1119 202 1093 m 142 1011 l 686 1011 l 638 903 l 444 903 l 444 122 l 686 122 l 638 14 l 94 14 l 142 122 l 336 122 l 336 903 l 94 903 l 142 1011 z "},"Ϋ":{"ha":780,"x_min":51,"x_max":729,"o":"m 483 1119 q 470 1132 483 1119 q 457 1182 457 1145 q 483 1245 457 1219 q 545 1272 509 1272 q 608 1245 582 1272 q 633 1182 633 1219 q 608 1119 633 1145 q 545 1093 582 1093 q 483 1119 509 1093 m 176 1119 q 163 1132 176 1119 q 151 1182 151 1145 q 176 1245 151 1219 q 239 1272 202 1272 q 301 1245 275 1272 q 327 1182 327 1219 q 301 1119 327 1145 q 239 1093 275 1093 q 176 1119 202 1093 m 444 389 l 444 47 l 336 0 l 335 342 l 51 978 l 150 1025 l 384 502 l 631 1027 l 729 979 l 444 389 z "},"ά":{"ha":780,"x_min":102,"x_max":723,"o":"m 347 904 l 541 1093 l 584 982 l 390 793 l 347 904 m 321 648 q 245 616 271 648 q 210 507 210 568 l 210 503 l 210 257 q 241 153 210 205 q 338 109 269 109 q 434 184 404 109 l 496 387 l 437 563 q 321 648 405 648 m 554 210 l 541 167 q 338 0 471 0 q 165 75 228 0 q 102 255 102 149 l 102 505 q 175 697 102 625 q 320 759 238 759 q 329 759 324 759 q 550 566 486 759 l 609 760 l 705 712 l 608 390 l 723 47 l 625 0 l 554 210 z "},"έ":{"ha":780,"x_min":115,"x_max":669,"o":"m 347 904 l 541 1093 l 584 982 l 390 793 l 347 904 m 115 231 q 186 382 115 326 q 115 540 115 455 q 190 697 115 642 q 320 746 257 746 l 658 746 l 610 637 l 323 637 q 256 614 278 637 q 221 534 221 578 q 221 532 221 533 q 263 453 221 477 q 321 436 293 436 l 462 436 l 414 328 l 321 328 l 320 328 q 301 328 311 328 q 254 307 273 327 q 222 233 222 271 q 222 222 222 226 q 268 144 233 162 q 323 121 311 121 l 669 122 l 621 14 l 320 14 q 186 72 243 21 q 115 231 115 136 z "},"ή":{"ha":780,"x_min":134,"x_max":646,"o":"m 347 904 l 541 1093 l 584 982 l 390 793 l 347 904 m 391 650 q 286 606 330 650 q 243 505 243 564 q 243 503 243 503 l 243 47 l 134 0 l 134 505 q 209 685 134 610 q 389 760 283 760 q 570 685 495 760 q 646 505 646 610 l 646 -217 l 537 -264 l 537 503 q 494 607 536 566 q 391 650 450 650 z "},"ί":{"ha":780,"x_min":137,"x_max":643,"o":"m 347 904 l 541 1093 l 584 982 l 390 793 l 347 904 m 594 0 q 510 0 552 0 q 378 53 431 0 q 324 187 324 108 l 324 188 l 324 637 l 137 637 l 184 746 l 433 746 l 433 188 q 456 130 433 154 q 508 106 477 107 q 643 106 540 106 l 594 0 z "},"ΰ":{"ha":780,"x_min":0,"x_max":755,"o":"m 347 1183 l 541 1371 l 584 1261 l 390 1072 l 347 1183 m 481 872 q 468 885 481 872 q 455 935 455 898 q 481 999 455 972 q 543 1025 507 1025 q 606 999 580 1025 q 631 935 631 972 q 606 872 631 898 q 543 846 580 846 q 481 872 507 846 m 174 872 q 161 885 174 872 q 149 935 149 898 q 174 999 149 972 q 237 1025 200 1025 q 299 999 273 1025 q 325 935 325 972 q 299 872 325 898 q 237 846 273 846 q 174 872 200 846 m 448 151 q 648 546 648 328 q 613 736 647 637 l 604 760 l 727 711 l 755 551 l 755 533 l 755 532 q 373 0 755 161 q 241 53 294 0 q 187 187 187 108 l 187 188 l 187 637 l 0 637 l 47 746 l 296 746 l 296 188 q 319 130 296 153 q 362 105 343 105 q 372 106 367 104 q 448 151 414 125 z "},"α":{"ha":780,"x_min":102,"x_max":723,"o":"m 321 648 q 245 616 271 648 q 210 507 210 568 l 210 503 l 210 257 q 241 153 210 205 q 338 109 269 109 q 434 184 404 109 l 496 387 l 437 563 q 321 648 405 648 m 554 210 l 541 167 q 338 0 471 0 q 165 75 228 0 q 102 255 102 149 l 102 505 q 175 697 102 625 q 320 759 238 759 q 329 759 324 759 q 550 566 486 759 l 609 760 l 705 712 l 608 390 l 723 47 l 625 0 l 554 210 z "},"β":{"ha":780,"x_min":134,"x_max":693,"o":"m 445 503 q 354 506 430 504 l 397 602 q 442 606 434 602 q 494 640 469 616 q 537 744 536 680 l 537 767 q 494 871 536 830 q 385 914 450 914 q 286 871 328 914 q 243 771 243 829 l 243 254 q 244 242 243 248 q 286 154 251 188 q 412 109 333 109 q 541 151 498 109 q 585 256 583 193 l 585 349 q 543 453 583 408 q 445 503 502 498 m 243 49 l 243 -217 l 134 -264 l 134 769 q 210 949 134 874 q 391 1024 285 1024 q 571 949 489 1024 q 646 769 646 882 l 646 742 q 576 566 646 642 q 618 531 598 551 q 693 351 693 456 l 693 254 q 618 73 693 147 q 417 0 545 0 q 415 0 416 0 q 243 49 313 0 z "},"γ":{"ha":780,"x_min":5,"x_max":775,"o":"m 381 1 l 156 574 q 64 642 129 642 l 5 642 l 52 748 l 77 748 q 253 631 209 748 l 430 161 l 677 761 l 775 713 l 490 47 l 490 -217 l 382 -264 l 381 1 z "},"δ":{"ha":780,"x_min":134,"x_max":651,"o":"m 243 257 q 288 153 243 195 q 393 110 334 110 q 494 153 450 110 q 537 257 536 194 l 537 503 q 494 607 536 566 q 385 650 450 650 q 286 607 328 650 q 243 507 243 565 l 243 503 l 243 257 m 134 505 q 209 685 134 610 q 229 703 218 694 l 227 705 q 175 833 175 759 q 220 965 175 911 q 416 1024 270 1024 l 651 1024 l 604 916 l 369 916 q 300 889 323 916 q 281 840 281 867 q 298 787 281 812 q 352 759 315 759 q 355 759 353 759 q 385 760 374 760 l 389 760 q 570 685 495 760 q 646 505 646 610 l 646 255 q 570 75 646 149 q 389 0 495 0 q 209 75 283 0 q 134 255 134 149 l 134 505 z "},"ε":{"ha":780,"x_min":115,"x_max":669,"o":"m 115 231 q 186 382 115 326 q 115 540 115 455 q 190 697 115 642 q 320 746 257 746 l 658 746 l 610 637 l 323 637 q 256 614 278 637 q 221 534 221 578 q 221 532 221 533 q 263 453 221 477 q 321 436 293 436 l 462 436 l 414 328 l 321 328 l 320 328 q 301 328 311 328 q 254 307 273 327 q 222 233 222 271 q 222 222 222 226 q 268 144 233 162 q 323 121 311 121 l 669 122 l 621 14 l 320 14 q 186 72 243 21 q 115 231 115 136 z "},"ζ":{"ha":780,"x_min":94,"x_max":710,"o":"m 491 903 l 94 903 l 142 1011 l 686 1011 l 638 903 q 407 636 528 803 l 395 618 q 270 406 301 492 q 243 267 245 339 l 243 256 q 286 151 244 193 q 415 109 329 109 q 422 109 418 109 l 533 109 q 659 55 606 109 q 710 -73 710 1 q 665 -205 710 -151 q 469 -264 615 -264 l 516 -162 q 525 -163 521 -163 q 585 -136 566 -159 q 604 -87 604 -113 q 587 -27 604 -54 q 545 0 571 0 q 527 0 536 0 q 420 0 480 0 q 412 0 416 0 l 410 0 q 209 73 283 0 q 134 254 134 147 l 134 269 q 168 442 134 349 q 307 680 205 545 q 463 873 345 732 q 491 903 484 899 z "},"η":{"ha":780,"x_min":134,"x_max":646,"o":"m 391 650 q 286 606 330 650 q 243 505 243 564 q 243 503 243 503 l 243 47 l 134 0 l 134 505 q 209 685 134 610 q 389 760 283 760 q 570 685 495 760 q 646 505 646 610 l 646 -217 l 537 -264 l 537 503 q 494 607 536 566 q 391 650 450 650 z "},"θ":{"ha":780,"x_min":134,"x_max":646,"o":"m 134 770 q 209 950 134 876 q 389 1025 283 1025 q 570 950 495 1025 q 646 770 646 876 l 646 255 q 570 75 646 149 q 389 0 495 0 q 209 75 283 0 q 134 255 134 149 l 134 770 m 243 257 q 288 153 243 195 q 393 110 334 110 q 494 153 450 110 q 537 257 536 194 l 537 458 l 243 458 l 243 257 m 243 566 l 537 566 l 537 768 q 494 872 536 831 q 385 915 450 915 q 286 872 328 915 q 243 772 243 830 l 243 768 l 243 566 z "},"ι":{"ha":780,"x_min":137,"x_max":643,"o":"m 594 0 q 510 0 552 0 q 378 53 431 0 q 324 187 324 108 l 324 188 l 324 637 l 137 637 l 184 746 l 433 746 l 433 188 q 456 130 433 154 q 508 106 477 107 q 643 106 540 106 l 594 0 z "},"κ":{"ha":780,"x_min":121,"x_max":659,"o":"m 406 455 l 659 49 l 551 0 l 323 366 l 230 275 l 231 47 l 121 0 l 121 712 l 230 760 l 230 429 l 551 760 l 649 717 l 406 455 z "},"λ":{"ha":780,"x_min":82,"x_max":698,"o":"m 414 906 l 698 47 l 595 0 l 419 531 l 186 0 l 82 47 l 363 698 l 319 832 q 225 918 290 918 l 165 918 l 165 1025 l 237 1023 q 414 906 376 1021 z "},"μ":{"ha":780,"x_min":134,"x_max":646,"o":"m 395 110 q 494 153 452 110 q 537 255 537 195 q 537 257 537 256 l 537 712 l 646 760 l 646 255 q 571 75 646 149 q 391 0 496 0 q 243 46 307 0 l 243 -217 l 134 -264 l 134 712 l 243 760 l 243 257 q 286 153 244 194 q 395 110 330 110 z "},"ν":{"ha":780,"x_min":86,"x_max":693,"o":"m 670 693 q 693 533 693 612 q 693 532 693 533 q 432 47 693 271 l 310 0 l 86 714 l 185 762 l 385 151 q 585 546 585 328 q 550 736 585 637 l 541 760 l 664 711 l 670 693 z "},"ξ":{"ha":780,"x_min":94,"x_max":710,"o":"m 385 606 q 658 601 402 602 l 612 496 q 382 497 460 496 q 285 450 326 492 q 243 349 244 408 l 243 256 q 286 151 244 193 q 415 109 329 109 q 422 109 418 109 l 533 109 q 659 55 606 109 q 710 -73 710 1 q 665 -205 710 -151 q 469 -264 615 -264 l 516 -162 q 525 -163 521 -163 q 585 -136 566 -159 q 604 -87 604 -113 q 587 -27 604 -54 q 545 0 571 0 q 527 0 536 0 q 420 0 480 0 q 412 0 416 0 l 410 0 q 209 73 283 0 q 134 254 134 147 l 134 351 q 209 531 134 456 q 252 566 229 551 q 182 742 182 642 l 182 769 q 220 903 182 840 l 94 903 l 142 1011 l 686 1011 l 638 903 l 423 903 q 334 867 370 898 q 290 767 292 830 l 290 744 q 328 639 294 687 q 385 606 347 613 z "},"ο":{"ha":780,"x_min":134,"x_max":646,"o":"m 243 257 q 288 153 243 195 q 393 110 334 110 q 494 153 450 110 q 537 257 536 194 l 537 503 q 494 607 536 566 q 385 650 450 650 q 286 607 328 650 q 243 507 243 565 l 243 503 l 243 257 m 134 505 q 209 685 134 610 q 389 760 283 760 q 570 685 495 760 q 646 505 646 610 l 646 255 q 570 75 646 149 q 389 0 495 0 q 209 75 283 0 q 134 255 134 149 l 134 505 z "},"π":{"ha":780,"x_min":134,"x_max":646,"o":"m 646 47 l 537 0 l 537 637 l 243 637 l 243 47 l 134 0 l 134 746 l 646 746 l 646 47 z "},"ρ":{"ha":780,"x_min":134,"x_max":646,"o":"m 243 257 q 288 153 243 195 q 393 110 334 110 q 494 153 450 110 q 537 257 536 194 l 537 503 q 494 607 536 566 q 385 650 450 650 q 286 607 328 650 q 243 507 243 565 l 243 503 l 243 257 m 134 -265 l 134 505 q 210 685 134 610 q 391 760 285 760 q 571 685 496 760 q 646 505 646 610 l 646 255 q 571 75 646 149 q 391 0 496 0 q 243 46 307 0 l 243 -218 l 134 -265 z "},"ς":{"ha":780,"x_min":134,"x_max":659,"o":"m 435 0 q 223 88 308 0 q 134 302 134 181 l 134 458 q 223 671 134 583 q 439 760 313 760 q 659 684 555 760 l 586 606 q 447 656 518 656 q 439 656 444 656 q 300 598 361 656 q 242 460 242 544 l 242 300 q 300 161 242 219 q 439 104 357 104 q 479 104 460 104 q 602 55 556 104 q 654 -73 654 1 q 608 -205 654 -151 q 412 -264 559 -264 l 460 -162 q 469 -163 465 -163 q 529 -136 510 -159 q 547 -87 547 -113 q 531 -27 547 -54 q 489 0 515 -1 q 473 1 475 1 q 435 0 452 1 z "},"σ":{"ha":780,"x_min":134,"x_max":732,"o":"m 134 505 q 209 685 134 610 q 389 760 283 760 l 732 760 l 684 651 l 600 651 q 646 505 646 587 l 646 255 q 570 75 646 149 q 389 0 495 0 q 209 75 283 0 q 134 255 134 149 l 134 505 m 243 257 q 288 153 243 195 q 393 110 334 110 q 494 153 450 110 q 537 257 536 194 l 537 503 q 494 607 536 566 q 385 650 450 650 q 286 607 328 650 q 243 507 243 565 l 243 503 l 243 257 z "},"τ":{"ha":780,"x_min":94,"x_max":685,"o":"m 685 746 l 637 637 l 433 637 l 433 188 q 456 130 433 154 q 508 106 477 107 q 643 106 540 106 l 594 0 l 510 0 q 378 53 431 0 q 324 187 324 108 l 324 188 l 324 637 l 94 637 l 141 746 l 685 746 z "},"υ":{"ha":780,"x_min":0,"x_max":755,"o":"m 448 151 q 648 546 648 328 q 613 736 647 637 l 604 760 l 727 711 l 755 551 l 755 533 l 755 532 q 373 0 755 161 q 241 53 294 0 q 187 187 187 108 l 187 188 l 187 637 l 0 637 l 47 746 l 296 746 l 296 188 q 319 130 296 153 q 362 105 343 105 q 372 106 367 104 q 448 151 414 125 z "},"φ":{"ha":780,"x_min":134,"x_max":646,"o":"m 444 649 l 444 119 q 494 153 471 130 q 537 257 536 193 l 537 503 q 503 605 536 568 q 444 649 470 642 m 336 121 l 336 712 l 445 760 q 570 685 506 754 q 646 505 646 604 l 646 255 q 570 75 646 149 q 444 5 515 20 l 444 -217 l 335 -264 l 336 5 q 210 75 264 20 q 134 255 134 151 l 134 712 l 243 760 l 243 257 q 286 153 244 190 q 336 121 310 132 z "},"χ":{"ha":780,"x_min":1,"x_max":779,"o":"m 452 246 l 629 -109 q 720 -159 654 -159 l 779 -159 l 732 -264 l 707 -264 q 531 -147 589 -264 l 389 138 l 180 -265 l 81 -218 l 327 246 l 151 605 q 60 651 129 651 l 1 651 l 48 757 l 73 757 q 249 640 191 757 l 389 353 l 601 760 l 697 712 l 452 246 z "},"ψ":{"ha":780,"x_min":134,"x_max":646,"o":"m 444 -217 l 335 -264 l 336 5 q 210 75 264 20 q 134 255 134 149 l 134 712 l 243 760 l 243 257 q 286 153 244 195 q 336 120 308 131 l 336 712 l 445 760 l 444 119 q 494 153 471 130 q 537 255 537 195 l 537 257 l 537 712 l 646 760 l 646 255 q 571 75 646 149 q 444 5 516 20 l 444 -217 z "},"ω":{"ha":780,"x_min":75,"x_max":705,"o":"m 75 185 l 75 712 l 183 760 l 182 188 q 205 130 182 154 q 258 106 227 106 q 312 130 290 106 q 335 187 335 155 q 335 188 335 187 l 336 412 l 444 459 l 444 188 q 466 130 444 154 q 519 106 488 106 q 573 130 550 106 q 596 188 596 154 l 597 712 l 705 760 l 705 184 q 651 54 705 109 q 520 0 597 0 q 389 53 441 0 q 259 0 335 0 q 127 53 178 0 q 75 185 75 106 z "},"ϊ":{"ha":780,"x_min":81,"x_max":643,"o":"m 414 872 q 401 886 414 872 q 388 936 388 899 q 414 999 388 973 q 476 1025 439 1025 q 538 999 513 1025 q 564 936 564 973 q 538 872 564 899 q 476 846 513 846 q 414 872 439 846 m 107 872 q 94 886 107 872 q 81 936 81 899 q 107 999 81 973 q 170 1025 133 1025 q 232 999 206 1025 q 258 936 258 973 q 232 872 258 899 q 170 846 206 846 q 107 872 133 846 m 594 0 q 510 0 552 0 q 378 53 431 0 q 324 187 324 108 l 324 188 l 324 637 l 137 637 l 184 746 l 433 746 l 433 188 q 456 130 433 154 q 508 106 477 107 q 643 106 540 106 l 594 0 z "},"ϋ":{"ha":780,"x_min":0,"x_max":755,"o":"m 481 872 q 468 885 481 872 q 455 935 455 898 q 481 999 455 972 q 543 1025 507 1025 q 606 999 580 1025 q 631 935 631 972 q 606 872 631 898 q 543 846 580 846 q 481 872 507 846 m 174 872 q 161 885 174 872 q 149 935 149 898 q 174 999 149 972 q 237 1025 200 1025 q 299 999 273 1025 q 325 935 325 972 q 299 872 325 898 q 237 846 273 846 q 174 872 200 846 m 448 151 q 648 546 648 328 q 613 736 647 637 l 604 760 l 727 711 l 755 551 l 755 533 l 755 532 q 373 0 755 161 q 241 53 294 0 q 187 187 187 108 l 187 188 l 187 637 l 0 637 l 47 746 l 296 746 l 296 188 q 319 130 296 153 q 362 105 343 105 q 372 106 367 104 q 448 151 414 125 z "},"ό":{"ha":780,"x_min":134,"x_max":646,"o":"m 347 904 l 541 1093 l 584 982 l 390 793 l 347 904 m 243 257 q 288 153 243 195 q 393 110 334 110 q 494 153 450 110 q 537 257 536 194 l 537 503 q 494 607 536 566 q 385 650 450 650 q 286 607 328 650 q 243 507 243 565 l 243 503 l 243 257 m 134 505 q 209 685 134 610 q 389 760 283 760 q 570 685 495 760 q 646 505 646 610 l 646 255 q 570 75 646 149 q 389 0 495 0 q 209 75 283 0 q 134 255 134 149 l 134 505 z "},"ύ":{"ha":780,"x_min":0,"x_max":755,"o":"m 347 904 l 541 1093 l 584 982 l 390 793 l 347 904 m 448 151 q 648 546 648 328 q 613 736 647 637 l 604 760 l 727 711 l 755 551 l 755 533 l 755 532 q 373 0 755 161 q 241 53 294 0 q 187 187 187 108 l 187 188 l 187 637 l 0 637 l 47 746 l 296 746 l 296 188 q 319 130 296 153 q 362 105 343 105 q 372 106 367 104 q 448 151 414 125 z "},"ώ":{"ha":780,"x_min":75,"x_max":705,"o":"m 347 904 l 541 1093 l 584 982 l 390 793 l 347 904 m 75 185 l 75 712 l 183 760 l 182 188 q 205 130 182 154 q 258 106 227 106 q 312 130 290 106 q 335 187 335 155 l 335 188 l 336 412 l 444 459 l 444 188 q 466 130 444 154 q 519 106 488 106 q 573 130 550 106 q 596 188 596 154 l 597 712 l 705 760 l 705 184 q 651 54 705 109 q 520 0 597 0 q 389 53 441 0 q 259 0 335 0 q 127 53 178 0 q 75 185 75 106 z "},"Ϗ":{"ha":780,"x_min":95,"x_max":722,"o":"m 722 -14 l 486 -234 l 416 -138 l 575 5 l 285 514 l 202 422 l 203 47 l 95 0 l 95 977 l 203 1025 l 203 570 l 578 1025 l 675 982 l 368 604 l 722 -14 z "},"ϐ":{"ha":780,"x_min":111,"x_max":669,"o":"m 595 73 q 393 0 521 0 q 192 73 266 0 q 111 254 111 155 l 111 769 q 186 949 111 874 q 367 1024 261 1024 q 547 949 465 1024 q 622 769 622 882 l 622 742 q 530 566 622 642 q 573 531 553 551 q 669 351 669 435 l 669 254 q 595 73 669 147 m 217 505 q 216 256 217 505 q 256 165 217 207 q 388 109 309 109 q 517 151 475 109 q 561 256 559 193 l 561 349 q 482 469 548 422 q 399 503 443 497 q 217 505 395 504 m 218 602 q 397 606 388 602 q 455 638 436 621 q 513 744 513 686 l 513 767 q 470 871 512 830 q 361 914 427 914 q 262 871 304 914 q 219 771 220 829 l 218 602 z "},"ϑ":{"ha":780,"x_min":134,"x_max":646,"o":"m 645 808 l 646 255 q 571 75 646 149 q 391 0 496 0 q 210 75 285 0 q 134 255 134 149 l 134 712 l 243 760 l 243 257 q 286 153 244 194 q 395 110 330 110 q 494 153 452 110 q 537 255 537 195 l 537 257 l 537 567 l 479 567 l 477 567 q 358 615 407 568 q 310 785 310 662 q 310 789 310 787 q 359 968 310 915 q 475 1025 412 1025 l 478 1025 q 596 975 549 1025 q 644 859 644 924 l 645 808 m 546 802 q 528 904 546 877 q 478 934 507 934 l 477 934 q 415 881 427 934 q 407 807 407 844 q 407 802 407 804 q 418 705 407 730 q 474 664 437 664 q 533 706 509 664 q 546 802 546 729 z "},"ϒ":{"ha":780,"x_min":35,"x_max":745,"o":"m 35 1000 q 80 1018 55 1011 q 125 1025 105 1025 q 220 1000 181 1025 q 307 884 286 960 l 382 655 l 466 882 q 553 998 492 949 q 644 1024 585 1023 q 693 1017 669 1024 q 745 995 722 1009 l 674 910 q 665 913 669 912 q 646 916 655 916 q 607 904 625 916 q 571 854 583 886 l 440 513 l 441 47 l 332 0 l 332 467 l 203 857 q 166 906 192 890 q 127 918 146 918 q 109 916 115 917 q 96 911 102 914 l 35 1000 z "},"ϓ":{"ha":780,"x_min":0,"x_max":780,"o":"m 0 949 l 194 1137 l 237 1027 l 43 838 l 0 949 m 751 909 q 743 904 747 907 q 707 854 720 889 l 576 513 l 576 47 l 468 0 l 467 467 l 338 857 q 302 906 327 891 q 273 917 287 915 l 242 1023 q 260 1025 252 1025 q 356 1000 317 1025 q 443 884 421 960 l 518 655 l 602 882 q 689 998 628 951 q 780 1025 720 1022 q 751 909 780 1025 z "},"ϔ":{"ha":780,"x_min":35,"x_max":745,"o":"m 483 1119 q 470 1132 483 1119 q 457 1182 457 1145 q 483 1245 457 1219 q 545 1272 509 1272 q 608 1245 582 1272 q 633 1182 633 1219 q 608 1119 633 1145 q 545 1093 582 1093 q 483 1119 509 1093 m 176 1119 q 163 1132 176 1119 q 151 1182 151 1145 q 176 1245 151 1219 q 239 1272 202 1272 q 301 1245 275 1272 q 327 1182 327 1219 q 301 1119 327 1145 q 239 1093 275 1093 q 176 1119 202 1093 m 35 1000 q 80 1018 55 1011 q 125 1025 105 1025 q 220 1000 181 1025 q 307 884 286 960 l 382 655 l 466 882 q 553 998 492 949 q 644 1024 585 1023 q 693 1017 669 1024 q 745 995 722 1009 l 674 910 q 665 913 669 912 q 646 916 655 916 q 607 904 625 916 q 571 854 583 886 l 440 513 l 441 47 l 332 0 l 332 467 l 203 857 q 166 906 192 890 q 127 918 146 918 q 109 916 115 917 q 96 911 102 914 l 35 1000 z "},"ϕ":{"ha":780,"x_min":134,"x_max":646,"o":"m 134 505 q 209 685 134 610 q 336 754 264 740 l 336 977 l 444 1025 l 444 754 q 570 685 515 739 q 646 505 646 610 l 646 255 q 570 75 646 149 q 444 5 515 20 l 444 -217 l 336 -264 l 336 5 q 209 75 264 20 q 134 255 134 149 l 134 505 m 243 257 q 288 153 243 194 q 336 121 311 132 l 336 641 q 286 607 309 630 q 243 507 243 565 l 243 503 l 243 257 m 444 640 l 444 119 q 494 153 471 130 q 537 257 536 193 l 537 503 q 494 607 536 565 q 444 640 472 629 z "},"ϖ":{"ha":780,"x_min":75,"x_max":705,"o":"m 705 746 l 705 184 q 651 54 705 109 q 520 0 597 0 q 389 53 441 0 q 259 0 335 0 q 127 53 178 0 q 75 185 75 106 l 75 746 l 705 746 m 597 637 l 183 637 l 182 188 q 205 130 182 154 q 258 106 227 106 q 312 130 290 106 q 335 187 335 155 l 335 188 l 336 412 l 444 459 l 444 188 q 466 130 444 154 q 519 106 488 106 q 573 130 550 106 q 596 188 596 154 l 597 637 z "},"ϗ":{"ha":780,"x_min":53,"x_max":721,"o":"m 270 515 q 262 578 270 555 q 160 648 237 648 q 53 649 106 648 l 117 760 q 146 760 134 760 q 182 759 168 760 q 198 757 186 758 q 377 531 363 734 q 378 512 378 522 q 368 422 376 465 l 469 487 l 537 711 l 658 760 l 548 397 q 522 260 522 304 q 530 184 522 224 q 563 123 538 143 q 616 104 585 108 q 678 102 650 102 q 719 103 699 102 q 721 55 721 78 q 570 -240 719 -160 q 477 -264 524 -264 q 371 -231 428 -264 l 431 -138 q 472 -156 449 -156 q 473 -156 473 -156 q 603 0 589 -156 q 415 231 431 24 q 414 248 414 239 q 427 349 416 303 l 323 275 l 254 49 l 133 0 l 244 364 q 270 515 270 458 z "},"Ϙ":{"ha":780,"x_min":84,"x_max":696,"o":"m 193 725 l 193 300 q 250 161 193 219 q 390 104 308 104 q 529 161 471 104 q 587 300 587 218 l 587 725 q 529 863 587 806 q 390 921 471 921 q 250 864 308 921 q 193 725 193 806 m 696 723 l 696 302 q 606 88 696 176 q 446 5 537 20 l 446 -221 l 336 -269 l 337 4 q 174 88 243 19 q 84 302 84 177 l 84 723 q 174 936 84 848 q 390 1025 263 1025 q 606 936 517 1025 q 696 723 696 848 z "},"ϙ":{"ha":780,"x_min":134,"x_max":646,"o":"m 134 505 q 209 685 134 610 q 389 760 283 760 q 570 685 495 760 q 646 505 646 610 l 646 255 q 570 75 646 150 q 446 5 516 20 l 446 -221 l 336 -269 l 337 5 q 209 75 264 19 q 134 255 134 149 l 134 505 m 243 257 q 288 153 243 195 q 393 110 334 110 q 494 153 450 110 q 537 257 536 194 l 537 503 q 494 607 536 566 q 385 650 450 650 q 286 607 328 650 q 243 507 243 565 l 243 503 l 243 257 z "},"Ϛ":{"ha":780,"x_min":84,"x_max":699,"o":"m 481 0 q 465 0 473 0 q 386 0 425 0 q 174 88 258 0 q 84 302 84 182 l 84 709 q 174 923 84 846 q 364 1011 275 1011 q 390 1011 377 1011 q 398 1011 394 1011 l 699 1011 l 651 903 l 351 903 l 347 903 q 250 850 296 892 q 193 711 193 797 l 193 300 q 250 161 193 219 q 390 104 307 104 l 471 103 q 593 54 547 102 q 645 -74 645 0 q 600 -206 645 -152 q 404 -265 550 -265 l 451 -163 q 460 -163 456 -163 q 520 -136 501 -160 q 538 -87 538 -113 q 521 -27 538 -55 q 481 0 504 0 z "},"ϛ":{"ha":780,"x_min":134,"x_max":686,"o":"m 396 637 q 300 585 345 627 q 242 446 242 530 l 242 300 q 300 161 242 219 q 439 104 357 104 l 479 104 q 602 55 556 104 q 654 -73 654 1 q 608 -205 654 -151 q 412 -264 559 -264 l 460 -162 q 469 -163 465 -163 q 529 -136 510 -159 q 547 -87 547 -113 q 531 -27 547 -54 q 489 0 515 -1 q 473 1 475 1 q 435 0 452 1 q 223 88 308 0 q 134 302 134 182 l 134 444 q 223 658 134 570 q 439 746 313 746 q 448 746 444 746 l 686 745 l 639 636 l 400 637 l 396 637 z "},"Ϝ":{"ha":780,"x_min":138,"x_max":642,"o":"m 138 0 l 138 964 l 247 1012 l 642 1011 l 594 903 l 247 903 l 247 566 l 642 566 l 594 458 l 247 458 l 247 47 l 138 0 z "},"ϝ":{"ha":780,"x_min":138,"x_max":642,"o":"m 268 -8 l 268 770 q 342 950 268 876 q 523 1025 417 1025 q 642 997 589 1025 l 569 909 q 523 916 547 916 q 419 872 463 916 q 376 770 376 829 q 376 768 376 768 l 376 567 l 599 567 l 551 458 l 376 458 l 376 -10 q 301 -191 376 -116 q 138 -264 232 -259 l 150 -153 q 224 -113 191 -145 q 268 -8 267 -71 z "},"Ϟ":{"ha":780,"x_min":58,"x_max":722,"o":"m 338 797 l 273 515 l 704 762 l 562 271 q 536 159 536 185 q 537 151 536 154 q 722 109 557 111 l 674 0 q 484 47 554 0 q 427 158 427 86 q 438 227 427 189 l 526 529 l 110 299 l 216 752 q 229 840 229 814 q 228 850 229 846 q 102 912 216 912 q 58 910 82 912 l 102 1023 q 295 975 242 1023 q 346 852 346 928 q 346 850 346 851 q 338 797 346 825 z "},"ϟ":{"ha":780,"x_min":129,"x_max":651,"o":"m 651 566 l 491 47 l 366 0 l 505 451 l 129 451 l 285 977 l 412 1024 l 275 566 l 651 566 z "},"Ϡ":{"ha":780,"x_min":5,"x_max":780,"o":"m 532 359 l 385 0 l 290 47 l 464 479 q 366 624 419 571 l 102 0 l 7 47 l 288 728 q 182 834 251 779 q 5 921 87 909 l 49 1024 q 349 841 172 1022 q 717 201 618 564 q 780 -217 780 5 l 669 -264 q 603 153 658 -39 l 532 359 z "},"ϡ":{"ha":780,"x_min":79,"x_max":701,"o":"m 514 182 l 385 0 l 290 47 l 469 293 q 430 369 461 317 l 172 0 l 79 47 l 368 473 q 292 571 351 509 q 95 656 216 651 l 138 760 q 438 576 296 757 q 639 201 555 428 q 701 -217 701 5 l 591 -264 q 525 153 579 -39 l 514 182 z "},"Ϣ":{"ha":780,"x_min":75,"x_max":705,"o":"m 75 185 l 75 977 l 183 1025 l 182 188 q 205 130 182 154 q 258 106 227 106 q 312 130 290 106 q 335 187 335 155 l 335 188 l 336 514 l 444 562 l 444 188 q 466 130 444 154 q 519 106 488 106 q 557 117 540 106 l 573 130 q 596 188 596 154 l 597 977 l 705 1025 l 705 184 q 651 54 705 109 q 621 30 637 40 l 264 -265 l 221 -155 l 435 19 q 389 53 410 32 q 259 0 335 0 q 127 53 178 0 q 75 185 75 106 z "},"ϣ":{"ha":780,"x_min":75,"x_max":705,"o":"m 75 185 l 75 712 l 183 760 l 182 188 q 205 130 182 154 q 258 106 227 106 q 312 130 290 106 q 335 187 335 155 l 335 188 l 336 412 l 444 459 l 444 188 q 466 130 444 154 q 519 106 488 106 q 557 117 540 106 l 573 130 q 596 188 596 154 l 597 712 l 705 760 l 705 184 q 651 54 705 109 q 621 30 637 40 l 264 -265 l 221 -155 l 435 19 q 389 53 410 32 q 259 0 335 0 q 127 53 178 0 q 75 185 75 106 z "},"Ϥ":{"ha":780,"x_min":84,"x_max":696,"o":"m 285 1025 q 361 954 285 1025 q 252 873 292 932 q 193 663 201 796 q 190 529 190 618 q 191 380 190 468 q 253 162 193 245 q 389 104 311 104 q 528 161 469 104 q 587 294 587 218 l 587 977 l 696 1025 l 695 -218 l 587 -265 l 587 71 q 389 0 504 0 q 173 88 262 0 q 84 384 84 176 l 84 385 l 85 636 q 151 914 87 821 q 285 1025 205 995 z "},"ϥ":{"ha":780,"x_min":118,"x_max":662,"o":"m 319 761 q 394 689 319 761 q 286 609 327 669 q 229 454 236 536 q 224 361 224 410 q 226 301 224 334 q 288 155 229 218 q 388 104 333 104 q 503 159 444 104 q 553 294 553 205 l 553 712 l 662 760 l 662 -218 l 553 -265 l 553 71 q 388 0 471 0 q 210 77 292 0 q 119 305 119 164 l 119 307 q 118 427 119 427 q 184 650 126 560 q 319 761 236 729 z "},"Ϧ":{"ha":780,"x_min":85,"x_max":697,"o":"m 332 -159 q 500 -90 435 -159 q 592 226 578 -7 q 593 281 593 250 q 588 459 592 368 q 530 598 584 543 q 391 656 473 656 q 252 598 311 656 q 193 465 193 541 l 193 47 l 85 0 l 85 977 l 193 1025 l 193 688 q 391 760 276 760 q 607 671 518 760 q 695 455 695 584 l 695 454 q 697 258 695 440 q 602 -130 689 -19 q 336 -264 498 -264 q 328 -264 332 -264 q 153 -215 240 -264 l 227 -135 q 332 -159 276 -159 z "},"ϧ":{"ha":780,"x_min":20,"x_max":760,"o":"m 248 16 q 200 25 210 25 q 136 1 158 25 l 128 -7 l 20 34 l 71 85 q 193 136 122 136 q 264 125 227 136 q 333 108 294 108 q 336 108 334 108 q 458 175 391 108 q 535 304 514 232 l 326 304 l 324 304 q 161 373 227 304 q 99 530 99 437 q 99 536 99 532 q 169 694 99 626 q 330 760 235 760 q 559 663 473 760 q 648 492 623 592 q 656 414 655 466 l 760 414 l 713 305 l 648 305 q 564 134 627 215 q 340 0 460 0 l 332 0 q 248 16 277 0 m 536 414 q 502 553 536 479 q 439 626 486 589 q 338 655 403 655 q 334 655 336 655 q 251 624 283 655 q 210 536 210 584 q 239 457 210 494 q 330 412 267 423 l 536 414 z "},"Ϩ":{"ha":780,"x_min":26,"x_max":699,"o":"m 360 -264 q 129 -175 213 -264 q 26 0 64 -106 q 350 248 183 91 q 525 480 450 342 q 584 714 584 589 q 584 724 584 719 q 526 863 584 804 q 383 916 475 916 q 346 914 365 916 q 151 819 253 904 q 119 780 136 806 l 57 873 q 74 892 65 883 q 387 1025 206 1025 q 603 937 515 1025 q 692 707 692 849 q 606 393 692 555 q 231 0 498 189 l 160 -45 q 216 -107 188 -85 q 375 -163 286 -163 l 376 -163 q 544 -104 465 -163 q 582 -68 569 -86 l 699 -107 q 635 -172 675 -141 q 360 -264 513 -264 z "},"ϩ":{"ha":780,"x_min":77,"x_max":699,"o":"m 406 -157 q 544 -104 473 -157 q 582 -68 569 -86 l 699 -107 q 635 -172 675 -141 q 397 -262 517 -262 q 389 -262 393 -262 q 180 -175 280 -260 q 77 0 122 -125 q 360 175 119 9 q 511 301 469 250 q 585 449 585 393 q 585 459 585 454 q 527 598 585 539 q 384 651 475 651 q 347 649 357 651 q 221 576 278 639 q 189 537 197 551 l 127 631 q 144 649 136 640 q 387 760 235 760 q 604 671 515 760 q 693 463 693 583 q 692 442 693 452 q 541 175 683 298 q 269 -12 416 66 l 212 -45 q 267 -107 243 -91 q 406 -157 340 -157 z "},"Ϫ":{"ha":780,"x_min":1,"x_max":779,"o":"m 530 909 q 703 1027 594 1027 l 774 1027 l 727 921 l 715 921 q 623 852 663 921 l 452 543 l 682 122 l 779 122 l 731 14 l 1 14 l 49 122 l 93 122 l 327 543 l 157 850 q 65 918 125 918 l 5 918 l 53 1024 l 77 1024 q 248 907 192 1024 l 389 650 l 530 909 m 220 122 l 556 122 l 389 435 l 220 122 z "},"ϫ":{"ha":780,"x_min":15,"x_max":765,"o":"m 576 585 q 461 407 576 585 l 644 122 l 765 122 l 718 14 l 15 14 l 62 122 l 137 122 l 327 406 l 211 585 q 119 654 163 654 l 60 654 l 107 760 l 132 760 q 302 642 224 760 l 393 488 l 483 642 q 655 760 561 760 l 727 760 l 680 654 l 667 654 q 576 585 623 654 m 260 122 l 513 122 l 393 321 l 260 122 z "},"Ϭ":{"ha":780,"x_min":84,"x_max":696,"o":"m 84 728 q 170 937 84 853 q 349 1011 245 1011 q 374 1011 362 1011 l 658 1010 l 610 902 l 372 902 l 347 902 q 246 859 290 902 q 203 755 204 818 l 202 704 q 390 760 296 760 q 606 671 517 760 q 696 458 696 582 l 696 302 q 606 89 696 177 q 390 0 517 0 q 174 88 262 0 q 84 302 84 176 l 84 728 m 193 460 l 193 300 q 250 161 193 219 q 390 104 308 104 q 529 161 471 104 q 587 300 587 218 l 587 460 q 529 598 587 541 q 390 656 471 656 q 250 598 308 656 q 193 460 193 541 z "},"ϭ":{"ha":780,"x_min":134,"x_max":646,"o":"m 243 503 q 243 257 243 503 l 243 253 q 286 153 243 195 q 385 110 328 110 q 494 153 450 110 q 537 257 536 194 l 537 503 q 494 607 536 566 q 393 650 450 650 q 288 607 334 650 q 243 503 243 565 m 425 1011 l 606 1010 l 559 902 l 422 902 l 397 902 q 296 859 340 902 q 253 755 254 818 l 253 714 q 393 760 317 760 q 572 685 499 760 q 646 505 646 610 l 646 255 q 570 75 646 149 q 389 0 495 0 q 209 75 283 0 q 134 255 134 150 l 134 728 q 220 937 134 853 q 399 1011 295 1011 q 425 1011 412 1011 z "},"Ϯ":{"ha":780,"x_min":30,"x_max":750,"o":"m 445 -217 l 336 -264 l 336 665 l 140 665 l 140 448 l 30 400 l 31 773 l 336 773 l 336 977 l 445 1025 l 445 773 l 750 773 l 750 448 l 640 400 l 642 665 l 445 665 l 445 -217 z "},"ϯ":{"ha":780,"x_min":122,"x_max":658,"o":"m 335 665 l 232 665 l 232 581 l 122 534 l 123 773 l 335 773 l 335 977 l 444 1025 l 444 773 l 658 773 l 658 581 l 548 534 l 549 665 l 444 665 l 444 -217 l 335 -264 l 335 665 z "},"ϰ":{"ha":780,"x_min":53,"x_max":727,"o":"m 270 515 q 262 578 270 555 q 160 648 236 648 q 53 649 106 648 l 117 760 q 146 760 133 760 q 182 759 167 760 q 198 757 187 758 q 377 531 368 732 q 378 512 378 522 q 368 422 376 465 l 469 487 l 537 711 l 658 760 l 548 397 q 522 250 522 304 q 530 184 522 222 q 616 104 547 109 q 675 102 647 102 q 727 104 703 102 l 670 0 l 629 0 q 595 5 627 0 q 415 231 425 31 q 414 248 414 239 q 427 349 416 303 l 323 275 l 254 49 l 133 0 l 244 364 q 270 515 270 458 z "},"ϱ":{"ha":780,"x_min":134,"x_max":646,"o":"m 243 257 q 288 153 243 195 q 393 110 334 110 q 494 153 450 110 q 537 257 536 194 l 537 503 q 494 607 536 566 q 385 650 450 650 q 286 607 328 650 q 243 507 243 565 l 243 503 l 243 257 m 425 -271 q 399 -271 412 -271 q 220 -197 294 -271 q 134 12 134 -112 l 134 505 q 209 685 134 610 q 389 760 283 760 q 570 685 495 760 q 646 505 646 610 l 646 255 q 572 75 646 149 q 393 0 499 0 q 253 45 317 0 l 253 -14 q 296 -119 254 -77 q 397 -161 340 -161 l 422 -161 l 606 -161 l 559 -270 l 425 -271 z "},"ϲ":{"ha":780,"x_min":121,"x_max":659,"o":"m 551 612 q 427 656 497 656 q 287 598 345 656 q 229 460 229 541 l 229 300 q 287 161 229 219 q 427 104 345 104 q 566 161 508 104 q 574 171 571 167 l 659 106 q 643 88 650 94 q 427 0 547 0 q 210 88 298 0 q 121 302 121 178 l 121 458 q 210 671 121 583 q 427 760 300 760 q 633 680 547 760 l 551 612 z "},"ϳ":{"ha":780,"x_min":136,"x_max":487,"o":"m 336 872 q 323 886 336 872 q 311 936 311 899 q 336 999 311 973 q 399 1025 362 1025 q 461 999 435 1025 q 487 936 487 973 q 461 872 487 899 q 399 846 435 846 q 336 872 362 846 m 454 746 l 454 -77 l 454 -77 q 400 -212 454 -157 q 269 -264 348 -264 q 136 -264 202 -264 l 182 -159 q 294 -158 286 -159 q 323 -134 302 -157 q 346 -77 346 -108 l 346 637 l 159 637 l 206 746 l 454 746 z "},"ϴ":{"ha":780,"x_min":84,"x_max":696,"o":"m 696 723 l 696 302 q 606 89 696 177 q 390 0 517 0 q 174 88 262 0 q 84 302 84 177 l 84 723 q 174 936 84 848 q 390 1025 263 1025 q 606 936 517 1025 q 696 723 696 848 m 587 458 l 193 458 l 193 300 q 250 161 193 219 q 390 104 308 104 q 529 161 471 104 q 587 300 587 218 l 587 458 m 587 566 l 587 725 q 529 863 587 806 q 390 921 471 921 q 250 864 308 921 q 193 725 193 806 l 193 566 l 587 566 z "},"ϵ":{"ha":780,"x_min":121,"x_max":659,"o":"m 551 612 q 427 656 497 656 q 287 598 345 656 q 229 460 229 541 l 229 433 l 627 433 l 579 324 l 229 324 l 229 300 q 287 161 229 219 q 427 104 345 104 q 566 161 508 104 q 574 171 571 167 l 659 106 q 643 88 650 94 q 427 0 547 0 q 210 88 298 0 q 121 302 121 178 l 121 458 q 210 671 121 583 q 427 760 300 760 q 633 680 547 760 l 551 612 z "},"϶":{"ha":780,"x_min":121,"x_max":659,"o":"m 229 612 l 146 680 q 353 760 233 760 q 570 671 480 760 q 659 458 659 583 l 659 302 q 570 88 659 178 q 353 0 481 0 q 137 88 233 0 q 121 106 130 94 l 205 171 q 214 161 209 167 q 353 104 272 104 q 493 161 435 104 q 551 300 551 219 l 551 324 l 150 324 l 197 433 l 551 433 l 551 460 q 493 598 551 541 q 353 656 435 656 q 229 612 283 656 z "},"Ϸ":{"ha":780,"x_min":106,"x_max":673,"o":"m 106 977 l 215 1025 l 215 818 l 372 818 q 585 728 496 818 q 673 515 673 639 l 673 513 q 585 296 673 384 q 372 206 496 206 l 215 206 l 215 47 l 106 0 l 106 977 m 215 709 l 215 315 l 374 315 q 512 372 454 315 q 570 513 570 430 q 512 651 570 593 q 374 709 454 709 l 215 709 z "},"ϸ":{"ha":780,"x_min":134,"x_max":646,"o":"m 243 507 q 243 257 243 507 q 288 153 243 195 q 393 110 334 110 q 494 153 450 110 q 537 257 536 194 l 537 503 q 494 607 536 566 q 385 650 450 650 q 286 607 328 650 q 243 507 243 565 m 134 -265 l 134 977 l 243 1025 l 243 713 q 391 760 307 760 q 571 685 496 760 q 646 505 646 610 l 646 255 q 571 75 646 149 q 391 0 496 0 q 243 46 307 0 l 243 -218 l 134 -265 z "},"Ϲ":{"ha":780,"x_min":84,"x_max":711,"o":"m 432 104 q 586 173 516 104 q 614 208 602 189 l 711 160 q 663 100 688 121 q 415 0 550 0 q 174 88 262 0 q 84 302 84 177 l 84 723 q 186 936 84 848 q 416 1025 288 1025 q 666 928 574 1025 q 693 897 680 913 l 608 833 q 589 854 594 850 q 429 922 507 922 q 426 922 427 922 q 263 864 334 922 q 193 725 193 806 l 193 300 q 258 159 193 215 q 432 104 321 104 z "},"Ϻ":{"ha":780,"x_min":60,"x_max":720,"o":"m 170 850 l 169 47 l 60 0 l 60 977 l 169 1025 l 399 720 l 611 977 l 720 1025 l 720 47 l 611 0 l 611 833 l 460 646 l 352 598 l 170 850 z "},"ϻ":{"ha":780,"x_min":134,"x_max":646,"o":"m 243 534 l 243 -217 l 134 -264 l 134 712 l 243 760 l 394 473 l 537 712 l 646 760 l 646 47 l 537 0 l 537 527 l 454 385 l 346 338 l 243 534 z "},"ϼ":{"ha":780,"x_min":4,"x_max":646,"o":"m 243 257 q 288 153 243 195 q 393 110 334 110 q 494 153 450 110 q 537 257 536 194 l 537 503 q 494 607 536 566 q 385 650 450 650 q 286 607 328 650 q 243 507 243 565 l 243 503 l 243 257 m 243 -168 l 243 -218 l 134 -265 l 134 -168 l 4 -168 l 52 -60 l 134 -60 l 134 505 q 210 685 134 610 q 391 760 285 760 q 571 685 496 760 q 646 505 646 610 l 646 255 q 571 75 646 149 q 391 0 496 0 q 243 46 307 0 l 243 -60 l 522 -60 l 474 -168 l 243 -168 z "},"Ͻ":{"ha":780,"x_min":68,"x_max":696,"o":"m 348 104 q 522 159 458 104 q 587 300 587 215 l 587 725 q 517 864 587 806 q 354 922 446 922 q 351 922 353 922 q 191 854 273 922 q 172 833 186 850 l 87 897 q 114 928 100 913 q 364 1025 206 1025 q 594 936 492 1025 q 696 723 696 848 l 696 302 q 606 88 696 177 q 365 0 517 0 q 117 100 230 0 q 68 160 92 121 l 165 208 q 194 173 178 189 q 348 104 264 104 z "},"Ͼ":{"ha":780,"x_min":84,"x_max":711,"o":"m 369 447 q 356 460 369 447 q 343 511 343 473 q 369 574 343 548 q 431 600 395 600 q 494 574 468 600 q 519 511 519 548 q 494 447 519 473 q 431 421 468 421 q 369 447 395 421 m 432 104 q 586 173 516 104 q 614 208 602 189 l 711 160 q 663 100 688 121 q 415 0 550 0 q 174 88 262 0 q 84 302 84 177 l 84 723 q 186 936 84 848 q 416 1025 288 1025 q 666 928 574 1025 q 693 897 680 913 l 608 833 q 589 854 594 850 q 429 922 507 922 q 426 922 427 922 q 263 864 334 922 q 193 725 193 806 l 193 300 q 258 159 193 215 q 432 104 321 104 z "}}}
